<svg xmlns="http://www.w3.org/2000/svg" xmlns:xlink="http://www.w3.org/1999/xlink" width="2000" zoomAndPan="magnify" viewBox="0 0 1500 1499.999933" height="2000" preserveAspectRatio="xMidYMid meet" version="1.0"><defs><filter x="0%" y="0%" width="100%" height="100%" id="5fec732d5b"><feColorMatrix values="0 0 0 0 1 0 0 0 0 1 0 0 0 0 1 0 0 0 1 0" color-interpolation-filters="sRGB"/></filter><g/><clipPath id="f4cd2dd50e"><path d="M 151.519531 351 L 371 351 L 371 526.179688 L 151.519531 526.179688 Z M 151.519531 351 " clip-rule="nonzero"/></clipPath><clipPath id="b4c533a0fd"><path d="M 374 316 L 533 316 L 533 526.179688 L 374 526.179688 Z M 374 316 " clip-rule="nonzero"/></clipPath><clipPath id="703c0193cd"><path d="M 153 16.179688 L 414 16.179688 L 414 167 L 153 167 Z M 153 16.179688 " clip-rule="nonzero"/></clipPath><clipPath id="cce3517275"><path d="M 151.519531 145 L 254 145 L 254 388 L 151.519531 388 Z M 151.519531 145 " clip-rule="nonzero"/></clipPath><clipPath id="cb4d251603"><path d="M 0 0.984375 L 883.808594 0.984375 L 883.808594 771.6875 L 0 771.6875 Z M 0 0.984375 " clip-rule="nonzero"/></clipPath><clipPath id="e1e891f234"><path d="M 0 0.984375 L 883.808594 0.984375 L 883.808594 771.6875 L 0 771.6875 Z M 0 0.984375 " clip-rule="nonzero"/></clipPath><clipPath id="a751c1e1bc"><path d="M 0 29.035156 L 878.070312 29.035156 L 878.070312 742.996094 L 0 742.996094 Z M 0 29.035156 " clip-rule="nonzero"/></clipPath><radialGradient gradientTransform="matrix(1.000074, 0, 0, 0.999926, 155.85632, 286.57214)" gradientUnits="userSpaceOnUse" r="229.659196" cx="218.278321" id="f411b32a2f" cy="99.451852" fx="218.278321" fy="99.451852"><stop stop-opacity="1" stop-color="rgb(47.709656%, 93.180847%, 81.87561%)" offset="0"/><stop stop-opacity="1" stop-color="rgb(47.517395%, 92.961121%, 81.752014%)" offset="0.0078125"/><stop stop-opacity="1" stop-color="rgb(47.387695%, 92.81311%, 81.669617%)" offset="0.0117188"/><stop stop-opacity="1" stop-color="rgb(47.259521%, 92.666626%, 81.585693%)" offset="0.015625"/><stop stop-opacity="1" stop-color="rgb(47.129822%, 92.518616%, 81.503296%)" offset="0.0195312"/><stop stop-opacity="1" stop-color="rgb(47.001648%, 92.372131%, 81.420898%)" offset="0.0234375"/><stop stop-opacity="1" stop-color="rgb(46.873474%, 92.224121%, 81.338501%)" offset="0.0273438"/><stop stop-opacity="1" stop-color="rgb(46.743774%, 92.077637%, 81.254578%)" offset="0.03125"/><stop stop-opacity="1" stop-color="rgb(46.615601%, 91.929626%, 81.17218%)" offset="0.0351562"/><stop stop-opacity="1" stop-color="rgb(46.485901%, 91.783142%, 81.089783%)" offset="0.0390625"/><stop stop-opacity="1" stop-color="rgb(46.357727%, 91.635132%, 81.007385%)" offset="0.0429688"/><stop stop-opacity="1" stop-color="rgb(46.229553%, 91.488647%, 80.923462%)" offset="0.046875"/><stop stop-opacity="1" stop-color="rgb(46.099854%, 91.342163%, 80.841064%)" offset="0.0507812"/><stop stop-opacity="1" stop-color="rgb(45.97168%, 91.194153%, 80.758667%)" offset="0.0546875"/><stop stop-opacity="1" stop-color="rgb(45.84198%, 91.047668%, 80.674744%)" offset="0.0585938"/><stop stop-opacity="1" stop-color="rgb(45.713806%, 90.899658%, 80.592346%)" offset="0.0625"/><stop stop-opacity="1" stop-color="rgb(45.585632%, 90.753174%, 80.509949%)" offset="0.0664062"/><stop stop-opacity="1" stop-color="rgb(45.455933%, 90.605164%, 80.427551%)" offset="0.0703125"/><stop stop-opacity="1" stop-color="rgb(45.327759%, 90.458679%, 80.343628%)" offset="0.0742188"/><stop stop-opacity="1" stop-color="rgb(45.198059%, 90.310669%, 80.26123%)" offset="0.078125"/><stop stop-opacity="1" stop-color="rgb(45.069885%, 90.164185%, 80.178833%)" offset="0.0820312"/><stop stop-opacity="1" stop-color="rgb(44.940186%, 90.016174%, 80.09491%)" offset="0.0859375"/><stop stop-opacity="1" stop-color="rgb(44.812012%, 89.86969%, 80.012512%)" offset="0.0898438"/><stop stop-opacity="1" stop-color="rgb(44.683838%, 89.72168%, 79.930115%)" offset="0.09375"/><stop stop-opacity="1" stop-color="rgb(44.554138%, 89.575195%, 79.847717%)" offset="0.0976562"/><stop stop-opacity="1" stop-color="rgb(44.425964%, 89.427185%, 79.763794%)" offset="0.101562"/><stop stop-opacity="1" stop-color="rgb(44.296265%, 89.280701%, 79.681396%)" offset="0.105469"/><stop stop-opacity="1" stop-color="rgb(44.168091%, 89.13269%, 79.598999%)" offset="0.109375"/><stop stop-opacity="1" stop-color="rgb(44.039917%, 88.986206%, 79.516602%)" offset="0.113281"/><stop stop-opacity="1" stop-color="rgb(43.910217%, 88.838196%, 79.432678%)" offset="0.117188"/><stop stop-opacity="1" stop-color="rgb(43.782043%, 88.691711%, 79.350281%)" offset="0.121094"/><stop stop-opacity="1" stop-color="rgb(43.652344%, 88.543701%, 79.267883%)" offset="0.125"/><stop stop-opacity="1" stop-color="rgb(43.52417%, 88.397217%, 79.18396%)" offset="0.128906"/><stop stop-opacity="1" stop-color="rgb(43.395996%, 88.249207%, 79.101562%)" offset="0.132812"/><stop stop-opacity="1" stop-color="rgb(43.266296%, 88.102722%, 79.019165%)" offset="0.136719"/><stop stop-opacity="1" stop-color="rgb(43.138123%, 87.954712%, 78.936768%)" offset="0.140625"/><stop stop-opacity="1" stop-color="rgb(43.008423%, 87.808228%, 78.852844%)" offset="0.144531"/><stop stop-opacity="1" stop-color="rgb(42.880249%, 87.661743%, 78.770447%)" offset="0.148438"/><stop stop-opacity="1" stop-color="rgb(42.750549%, 87.513733%, 78.688049%)" offset="0.152344"/><stop stop-opacity="1" stop-color="rgb(42.622375%, 87.367249%, 78.605652%)" offset="0.15625"/><stop stop-opacity="1" stop-color="rgb(42.494202%, 87.219238%, 78.521729%)" offset="0.160156"/><stop stop-opacity="1" stop-color="rgb(42.364502%, 87.072754%, 78.439331%)" offset="0.164062"/><stop stop-opacity="1" stop-color="rgb(42.236328%, 86.924744%, 78.356934%)" offset="0.167969"/><stop stop-opacity="1" stop-color="rgb(42.106628%, 86.778259%, 78.27301%)" offset="0.171875"/><stop stop-opacity="1" stop-color="rgb(41.978455%, 86.630249%, 78.190613%)" offset="0.175781"/><stop stop-opacity="1" stop-color="rgb(41.850281%, 86.483765%, 78.108215%)" offset="0.179688"/><stop stop-opacity="1" stop-color="rgb(41.720581%, 86.335754%, 78.025818%)" offset="0.183594"/><stop stop-opacity="1" stop-color="rgb(41.592407%, 86.18927%, 77.941895%)" offset="0.1875"/><stop stop-opacity="1" stop-color="rgb(41.462708%, 86.04126%, 77.859497%)" offset="0.191406"/><stop stop-opacity="1" stop-color="rgb(41.334534%, 85.894775%, 77.7771%)" offset="0.195312"/><stop stop-opacity="1" stop-color="rgb(41.20636%, 85.746765%, 77.694702%)" offset="0.199219"/><stop stop-opacity="1" stop-color="rgb(41.07666%, 85.600281%, 77.610779%)" offset="0.203125"/><stop stop-opacity="1" stop-color="rgb(40.948486%, 85.452271%, 77.528381%)" offset="0.207031"/><stop stop-opacity="1" stop-color="rgb(40.818787%, 85.305786%, 77.445984%)" offset="0.210938"/><stop stop-opacity="1" stop-color="rgb(40.690613%, 85.157776%, 77.362061%)" offset="0.214844"/><stop stop-opacity="1" stop-color="rgb(40.562439%, 85.011292%, 77.279663%)" offset="0.21875"/><stop stop-opacity="1" stop-color="rgb(40.432739%, 84.863281%, 77.197266%)" offset="0.222656"/><stop stop-opacity="1" stop-color="rgb(40.304565%, 84.716797%, 77.114868%)" offset="0.226562"/><stop stop-opacity="1" stop-color="rgb(40.174866%, 84.568787%, 77.030945%)" offset="0.230469"/><stop stop-opacity="1" stop-color="rgb(40.046692%, 84.422302%, 76.948547%)" offset="0.234375"/><stop stop-opacity="1" stop-color="rgb(39.916992%, 84.274292%, 76.86615%)" offset="0.238281"/><stop stop-opacity="1" stop-color="rgb(39.788818%, 84.127808%, 76.782227%)" offset="0.242188"/><stop stop-opacity="1" stop-color="rgb(39.660645%, 83.979797%, 76.699829%)" offset="0.246094"/><stop stop-opacity="1" stop-color="rgb(39.530945%, 83.833313%, 76.617432%)" offset="0.25"/><stop stop-opacity="1" stop-color="rgb(39.337158%, 83.612061%, 76.49231%)" offset="0.253906"/><stop stop-opacity="1" stop-color="rgb(39.080811%, 83.317566%, 76.327515%)" offset="0.261719"/><stop stop-opacity="1" stop-color="rgb(38.822937%, 83.023071%, 76.161194%)" offset="0.269531"/><stop stop-opacity="1" stop-color="rgb(38.565063%, 82.728577%, 75.996399%)" offset="0.277344"/><stop stop-opacity="1" stop-color="rgb(38.30719%, 82.434082%, 75.830078%)" offset="0.285156"/><stop stop-opacity="1" stop-color="rgb(38.049316%, 82.139587%, 75.665283%)" offset="0.292969"/><stop stop-opacity="1" stop-color="rgb(37.791443%, 81.845093%, 75.498962%)" offset="0.300781"/><stop stop-opacity="1" stop-color="rgb(37.535095%, 81.550598%, 75.334167%)" offset="0.308594"/><stop stop-opacity="1" stop-color="rgb(37.277222%, 81.256104%, 75.167847%)" offset="0.316406"/><stop stop-opacity="1" stop-color="rgb(37.019348%, 80.961609%, 75.001526%)" offset="0.324219"/><stop stop-opacity="1" stop-color="rgb(36.763%, 80.671692%, 74.816895%)" offset="0.332031"/><stop stop-opacity="1" stop-color="rgb(36.505127%, 80.387878%, 74.609375%)" offset="0.339844"/><stop stop-opacity="1" stop-color="rgb(36.248779%, 80.104065%, 74.397278%)" offset="0.347656"/><stop stop-opacity="1" stop-color="rgb(35.992432%, 79.820251%, 74.186707%)" offset="0.355469"/><stop stop-opacity="1" stop-color="rgb(35.734558%, 79.534912%, 73.976135%)" offset="0.363281"/><stop stop-opacity="1" stop-color="rgb(35.47821%, 79.251099%, 73.764038%)" offset="0.371094"/><stop stop-opacity="1" stop-color="rgb(35.221863%, 78.967285%, 73.553467%)" offset="0.378906"/><stop stop-opacity="1" stop-color="rgb(34.963989%, 78.683472%, 73.342896%)" offset="0.386719"/><stop stop-opacity="1" stop-color="rgb(34.707642%, 78.398132%, 73.132324%)" offset="0.394531"/><stop stop-opacity="1" stop-color="rgb(34.451294%, 78.114319%, 72.920227%)" offset="0.402344"/><stop stop-opacity="1" stop-color="rgb(34.19342%, 77.830505%, 72.709656%)" offset="0.410156"/><stop stop-opacity="1" stop-color="rgb(33.937073%, 77.546692%, 72.499084%)" offset="0.417969"/><stop stop-opacity="1" stop-color="rgb(33.680725%, 77.261353%, 72.288513%)" offset="0.425781"/><stop stop-opacity="1" stop-color="rgb(33.424377%, 76.977539%, 72.076416%)" offset="0.433594"/><stop stop-opacity="1" stop-color="rgb(33.166504%, 76.693726%, 71.865845%)" offset="0.441406"/><stop stop-opacity="1" stop-color="rgb(32.910156%, 76.409912%, 71.655273%)" offset="0.449219"/><stop stop-opacity="1" stop-color="rgb(32.653809%, 76.124573%, 71.444702%)" offset="0.457031"/><stop stop-opacity="1" stop-color="rgb(32.395935%, 75.840759%, 71.232605%)" offset="0.464844"/><stop stop-opacity="1" stop-color="rgb(32.139587%, 75.556946%, 71.022034%)" offset="0.472656"/><stop stop-opacity="1" stop-color="rgb(31.88324%, 75.273132%, 70.811462%)" offset="0.480469"/><stop stop-opacity="1" stop-color="rgb(31.625366%, 74.987793%, 70.599365%)" offset="0.488281"/><stop stop-opacity="1" stop-color="rgb(31.369019%, 74.703979%, 70.388794%)" offset="0.496094"/><stop stop-opacity="1" stop-color="rgb(31.176758%, 74.490356%, 70.230103%)" offset="0.503906"/><stop stop-opacity="1" stop-color="rgb(31.048584%, 74.34845%, 70.124817%)" offset="0.507812"/><stop stop-opacity="1" stop-color="rgb(30.92041%, 74.206543%, 70.019531%)" offset="0.511719"/><stop stop-opacity="1" stop-color="rgb(30.79071%, 74.064636%, 69.914246%)" offset="0.515625"/><stop stop-opacity="1" stop-color="rgb(30.662537%, 73.922729%, 69.80896%)" offset="0.519531"/><stop stop-opacity="1" stop-color="rgb(30.534363%, 73.779297%, 69.702148%)" offset="0.523438"/><stop stop-opacity="1" stop-color="rgb(30.406189%, 73.63739%, 69.596863%)" offset="0.527344"/><stop stop-opacity="1" stop-color="rgb(30.278015%, 73.495483%, 69.491577%)" offset="0.53125"/><stop stop-opacity="1" stop-color="rgb(30.149841%, 73.353577%, 69.386292%)" offset="0.535156"/><stop stop-opacity="1" stop-color="rgb(30.020142%, 73.21167%, 69.281006%)" offset="0.539062"/><stop stop-opacity="1" stop-color="rgb(29.891968%, 73.069763%, 69.17572%)" offset="0.542969"/><stop stop-opacity="1" stop-color="rgb(29.763794%, 72.927856%, 69.070435%)" offset="0.546875"/><stop stop-opacity="1" stop-color="rgb(29.63562%, 72.78595%, 68.965149%)" offset="0.550781"/><stop stop-opacity="1" stop-color="rgb(29.507446%, 72.642517%, 68.858337%)" offset="0.554688"/><stop stop-opacity="1" stop-color="rgb(29.379272%, 72.50061%, 68.753052%)" offset="0.558594"/><stop stop-opacity="1" stop-color="rgb(29.249573%, 72.358704%, 68.647766%)" offset="0.5625"/><stop stop-opacity="1" stop-color="rgb(29.121399%, 72.216797%, 68.54248%)" offset="0.566406"/><stop stop-opacity="1" stop-color="rgb(28.993225%, 72.07489%, 68.437195%)" offset="0.570312"/><stop stop-opacity="1" stop-color="rgb(28.865051%, 71.932983%, 68.331909%)" offset="0.574219"/><stop stop-opacity="1" stop-color="rgb(28.736877%, 71.791077%, 68.226624%)" offset="0.578125"/><stop stop-opacity="1" stop-color="rgb(28.608704%, 71.64917%, 68.119812%)" offset="0.582031"/><stop stop-opacity="1" stop-color="rgb(28.48053%, 71.505737%, 68.014526%)" offset="0.585938"/><stop stop-opacity="1" stop-color="rgb(28.35083%, 71.363831%, 67.909241%)" offset="0.589844"/><stop stop-opacity="1" stop-color="rgb(28.222656%, 71.221924%, 67.803955%)" offset="0.59375"/><stop stop-opacity="1" stop-color="rgb(28.094482%, 71.080017%, 67.698669%)" offset="0.597656"/><stop stop-opacity="1" stop-color="rgb(27.966309%, 70.93811%, 67.593384%)" offset="0.601562"/><stop stop-opacity="1" stop-color="rgb(27.838135%, 70.796204%, 67.488098%)" offset="0.605469"/><stop stop-opacity="1" stop-color="rgb(27.709961%, 70.654297%, 67.382812%)" offset="0.609375"/><stop stop-opacity="1" stop-color="rgb(27.580261%, 70.51239%, 67.276001%)" offset="0.613281"/><stop stop-opacity="1" stop-color="rgb(27.452087%, 70.368958%, 67.170715%)" offset="0.617188"/><stop stop-opacity="1" stop-color="rgb(27.323914%, 70.227051%, 67.06543%)" offset="0.621094"/><stop stop-opacity="1" stop-color="rgb(27.19574%, 70.085144%, 66.960144%)" offset="0.625"/><stop stop-opacity="1" stop-color="rgb(27.003479%, 69.873047%, 66.802979%)" offset="0.628906"/><stop stop-opacity="1" stop-color="rgb(26.745605%, 69.589233%, 66.590881%)" offset="0.636719"/><stop stop-opacity="1" stop-color="rgb(26.489258%, 69.303894%, 66.38031%)" offset="0.644531"/><stop stop-opacity="1" stop-color="rgb(26.23291%, 69.020081%, 66.169739%)" offset="0.652344"/><stop stop-opacity="1" stop-color="rgb(25.971985%, 68.722534%, 65.951538%)" offset="0.660156"/><stop stop-opacity="1" stop-color="rgb(25.761414%, 68.443298%, 65.757751%)" offset="0.667969"/><stop stop-opacity="1" stop-color="rgb(25.605774%, 68.19458%, 65.597534%)" offset="0.671875"/><stop stop-opacity="1" stop-color="rgb(25.448608%, 67.945862%, 65.437317%)" offset="0.675781"/><stop stop-opacity="1" stop-color="rgb(25.292969%, 67.697144%, 65.275574%)" offset="0.679688"/><stop stop-opacity="1" stop-color="rgb(25.135803%, 67.448425%, 65.115356%)" offset="0.683594"/><stop stop-opacity="1" stop-color="rgb(24.980164%, 67.201233%, 64.953613%)" offset="0.6875"/><stop stop-opacity="1" stop-color="rgb(24.822998%, 66.952515%, 64.793396%)" offset="0.691406"/><stop stop-opacity="1" stop-color="rgb(24.667358%, 66.703796%, 64.631653%)" offset="0.695312"/><stop stop-opacity="1" stop-color="rgb(24.511719%, 66.455078%, 64.471436%)" offset="0.699219"/><stop stop-opacity="1" stop-color="rgb(24.354553%, 66.20636%, 64.309692%)" offset="0.703125"/><stop stop-opacity="1" stop-color="rgb(24.198914%, 65.957642%, 64.149475%)" offset="0.707031"/><stop stop-opacity="1" stop-color="rgb(24.041748%, 65.710449%, 63.987732%)" offset="0.710938"/><stop stop-opacity="1" stop-color="rgb(23.886108%, 65.461731%, 63.827515%)" offset="0.714844"/><stop stop-opacity="1" stop-color="rgb(23.728943%, 65.213013%, 63.665771%)" offset="0.71875"/><stop stop-opacity="1" stop-color="rgb(23.573303%, 64.964294%, 63.505554%)" offset="0.722656"/><stop stop-opacity="1" stop-color="rgb(23.416138%, 64.715576%, 63.343811%)" offset="0.726562"/><stop stop-opacity="1" stop-color="rgb(23.260498%, 64.466858%, 63.183594%)" offset="0.730469"/><stop stop-opacity="1" stop-color="rgb(23.103333%, 64.219666%, 63.021851%)" offset="0.734375"/><stop stop-opacity="1" stop-color="rgb(22.947693%, 63.970947%, 62.861633%)" offset="0.738281"/><stop stop-opacity="1" stop-color="rgb(22.790527%, 63.722229%, 62.69989%)" offset="0.742188"/><stop stop-opacity="1" stop-color="rgb(22.634888%, 63.473511%, 62.539673%)" offset="0.746094"/><stop stop-opacity="1" stop-color="rgb(22.477722%, 63.224792%, 62.37793%)" offset="0.75"/><stop stop-opacity="1" stop-color="rgb(22.322083%, 62.976074%, 62.217712%)" offset="0.753906"/><stop stop-opacity="1" stop-color="rgb(22.164917%, 62.728882%, 62.057495%)" offset="0.757812"/><stop stop-opacity="1" stop-color="rgb(22.009277%, 62.480164%, 61.895752%)" offset="0.761719"/><stop stop-opacity="1" stop-color="rgb(21.852112%, 62.231445%, 61.735535%)" offset="0.765625"/><stop stop-opacity="1" stop-color="rgb(21.696472%, 61.982727%, 61.573792%)" offset="0.769531"/><stop stop-opacity="1" stop-color="rgb(21.539307%, 61.734009%, 61.413574%)" offset="0.773438"/><stop stop-opacity="1" stop-color="rgb(21.383667%, 61.486816%, 61.251831%)" offset="0.777344"/><stop stop-opacity="1" stop-color="rgb(21.226501%, 61.238098%, 61.091614%)" offset="0.78125"/><stop stop-opacity="1" stop-color="rgb(21.070862%, 60.98938%, 60.929871%)" offset="0.785156"/><stop stop-opacity="1" stop-color="rgb(20.915222%, 60.740662%, 60.769653%)" offset="0.789062"/><stop stop-opacity="1" stop-color="rgb(20.758057%, 60.491943%, 60.60791%)" offset="0.792969"/><stop stop-opacity="1" stop-color="rgb(20.602417%, 60.243225%, 60.447693%)" offset="0.796875"/><stop stop-opacity="1" stop-color="rgb(20.445251%, 59.996033%, 60.28595%)" offset="0.800781"/><stop stop-opacity="1" stop-color="rgb(20.289612%, 59.747314%, 60.125732%)" offset="0.804688"/><stop stop-opacity="1" stop-color="rgb(20.132446%, 59.498596%, 59.963989%)" offset="0.808594"/><stop stop-opacity="1" stop-color="rgb(19.976807%, 59.249878%, 59.803772%)" offset="0.8125"/><stop stop-opacity="1" stop-color="rgb(19.819641%, 59.00116%, 59.642029%)" offset="0.816406"/><stop stop-opacity="1" stop-color="rgb(19.664001%, 58.752441%, 59.481812%)" offset="0.820312"/><stop stop-opacity="1" stop-color="rgb(19.506836%, 58.505249%, 59.320068%)" offset="0.824219"/><stop stop-opacity="1" stop-color="rgb(19.351196%, 58.256531%, 59.159851%)" offset="0.828125"/><stop stop-opacity="1" stop-color="rgb(19.194031%, 58.007812%, 58.999634%)" offset="0.832031"/><stop stop-opacity="1" stop-color="rgb(19.038391%, 57.759094%, 58.837891%)" offset="0.835938"/><stop stop-opacity="1" stop-color="rgb(18.881226%, 57.510376%, 58.677673%)" offset="0.839844"/><stop stop-opacity="1" stop-color="rgb(18.725586%, 57.263184%, 58.51593%)" offset="0.84375"/><stop stop-opacity="1" stop-color="rgb(18.56842%, 57.014465%, 58.355713%)" offset="0.847656"/><stop stop-opacity="1" stop-color="rgb(18.412781%, 56.765747%, 58.19397%)" offset="0.851562"/><stop stop-opacity="1" stop-color="rgb(18.255615%, 56.517029%, 58.033752%)" offset="0.855469"/><stop stop-opacity="1" stop-color="rgb(18.099976%, 56.268311%, 57.872009%)" offset="0.859375"/><stop stop-opacity="1" stop-color="rgb(17.94281%, 56.019592%, 57.711792%)" offset="0.863281"/><stop stop-opacity="1" stop-color="rgb(17.78717%, 55.7724%, 57.550049%)" offset="0.867188"/><stop stop-opacity="1" stop-color="rgb(17.631531%, 55.523682%, 57.389832%)" offset="0.871094"/><stop stop-opacity="1" stop-color="rgb(17.474365%, 55.274963%, 57.228088%)" offset="0.875"/><stop stop-opacity="1" stop-color="rgb(17.318726%, 55.026245%, 57.067871%)" offset="0.878906"/><stop stop-opacity="1" stop-color="rgb(17.16156%, 54.777527%, 56.906128%)" offset="0.882812"/><stop stop-opacity="1" stop-color="rgb(17.00592%, 54.528809%, 56.745911%)" offset="0.886719"/><stop stop-opacity="1" stop-color="rgb(16.848755%, 54.281616%, 56.584167%)" offset="0.890625"/><stop stop-opacity="1" stop-color="rgb(16.693115%, 54.032898%, 56.42395%)" offset="0.894531"/><stop stop-opacity="1" stop-color="rgb(16.53595%, 53.78418%, 56.262207%)" offset="0.898438"/><stop stop-opacity="1" stop-color="rgb(16.38031%, 53.535461%, 56.10199%)" offset="0.902344"/><stop stop-opacity="1" stop-color="rgb(16.223145%, 53.286743%, 55.940247%)" offset="0.90625"/><stop stop-opacity="1" stop-color="rgb(16.067505%, 53.038025%, 55.780029%)" offset="0.910156"/><stop stop-opacity="1" stop-color="rgb(15.910339%, 52.790833%, 55.619812%)" offset="0.914062"/><stop stop-opacity="1" stop-color="rgb(15.7547%, 52.542114%, 55.458069%)" offset="0.917969"/><stop stop-opacity="1" stop-color="rgb(15.597534%, 52.293396%, 55.297852%)" offset="0.921875"/><stop stop-opacity="1" stop-color="rgb(15.441895%, 52.044678%, 55.136108%)" offset="0.925781"/><stop stop-opacity="1" stop-color="rgb(15.284729%, 51.795959%, 54.975891%)" offset="0.929688"/><stop stop-opacity="1" stop-color="rgb(15.129089%, 51.548767%, 54.814148%)" offset="0.933594"/><stop stop-opacity="1" stop-color="rgb(14.971924%, 51.300049%, 54.653931%)" offset="0.9375"/><stop stop-opacity="1" stop-color="rgb(14.816284%, 51.051331%, 54.492188%)" offset="0.941406"/><stop stop-opacity="1" stop-color="rgb(14.659119%, 50.802612%, 54.33197%)" offset="0.945312"/><stop stop-opacity="1" stop-color="rgb(14.503479%, 50.553894%, 54.170227%)" offset="0.949219"/><stop stop-opacity="1" stop-color="rgb(14.347839%, 50.305176%, 54.01001%)" offset="0.953125"/><stop stop-opacity="1" stop-color="rgb(14.190674%, 50.057983%, 53.848267%)" offset="0.957031"/><stop stop-opacity="1" stop-color="rgb(14.035034%, 49.809265%, 53.688049%)" offset="0.960938"/><stop stop-opacity="1" stop-color="rgb(13.877869%, 49.560547%, 53.526306%)" offset="0.964844"/><stop stop-opacity="1" stop-color="rgb(13.722229%, 49.311829%, 53.366089%)" offset="0.96875"/><stop stop-opacity="1" stop-color="rgb(13.565063%, 49.06311%, 53.204346%)" offset="0.972656"/><stop stop-opacity="1" stop-color="rgb(13.409424%, 48.814392%, 53.044128%)" offset="0.976562"/><stop stop-opacity="1" stop-color="rgb(13.252258%, 48.5672%, 52.882385%)" offset="0.980469"/><stop stop-opacity="1" stop-color="rgb(13.096619%, 48.318481%, 52.722168%)" offset="0.984375"/><stop stop-opacity="1" stop-color="rgb(12.939453%, 48.069763%, 52.561951%)" offset="0.988281"/><stop stop-opacity="1" stop-color="rgb(12.783813%, 47.821045%, 52.400208%)" offset="0.992188"/><stop stop-opacity="1" stop-color="rgb(12.626648%, 47.572327%, 52.23999%)" offset="0.996094"/><stop stop-opacity="1" stop-color="rgb(12.548828%, 47.44873%, 52.159119%)" offset="1"/></radialGradient><clipPath id="04a09f9551"><rect x="0" width="884" y="0" height="772"/></clipPath><clipPath id="101fac7cd3"><path d="M 0 0.984375 L 883.808594 0.984375 L 883.808594 771.6875 L 0 771.6875 Z M 0 0.984375 " clip-rule="nonzero"/></clipPath><clipPath id="e1b8172857"><rect x="0" width="884" y="0" height="772"/></clipPath><clipPath id="e53f990b88"><rect x="0" width="884" y="0" height="772"/></clipPath><mask id="b66fd65c11"><g filter="url(#5fec732d5b)"><g transform="matrix(1, 0, 0, 1, 0, 0.000000000000113687)"><g clip-path="url(#e53f990b88)"><g clip-path="url(#101fac7cd3)"><g transform="matrix(1, 0, 0, 1, 0, 0.000000000000113687)"><g clip-path="url(#e1b8172857)"><g fill="#000000" fill-opacity="1"><g transform="translate(155.816768, 415.977718)"><g><path d="M 33.421875 -19.703125 L 33.703125 -19.703125 L 40.40625 -101.953125 L 64.96875 -101.953125 L 51.125 0 L 13.84375 0 L 1.140625 -101.953125 L 27.421875 -101.953125 Z M 33.421875 -19.703125 "/></g></g></g><g fill="#000000" fill-opacity="1"><g transform="translate(221.930134, 415.977718)"><g><path d="M 47.546875 -81.390625 L 29.421875 -81.390625 L 29.421875 -62.6875 L 46.40625 -62.6875 L 46.40625 -42.984375 L 29.421875 -42.984375 L 29.421875 -20.5625 L 48.984375 -20.5625 L 48.984375 0 L 3.140625 0 L 3.140625 -101.953125 L 47.546875 -101.953125 Z M 47.546875 -81.390625 "/></g></g></g><g fill="#000000" fill-opacity="1"><g transform="translate(272.193427, 415.977718)"><g><path d="M 40.40625 -51.265625 L 40.703125 -51.265625 L 40.703125 -101.953125 L 62.96875 -101.953125 L 62.96875 0 L 40.703125 0 L 25.84375 -56.96875 L 25.421875 -56.96875 L 25.421875 0 L 3.140625 0 L 3.140625 -101.953125 L 25.421875 -101.953125 Z M 40.40625 -51.265625 "/></g></g></g><g fill="#000000" fill-opacity="1"><g transform="translate(338.306794, 415.977718)"><g><path d="M 34.421875 -104.09375 C 44.597656 -104.09375 52.351562 -101.664062 57.6875 -96.8125 C 63.019531 -91.957031 65.6875 -84.101562 65.6875 -73.25 L 65.6875 -31.125 C 65.6875 -25.507812 65.207031 -21.0625 64.25 -17.78125 C 63.300781 -14.5 61.707031 -11.972656 59.46875 -10.203125 C 57.238281 -8.441406 54.125 -7.132812 50.125 -6.28125 C 50.03125 -4.28125 50.289062 -2.828125 50.90625 -1.921875 C 51.519531 -1.023438 52.878906 -0.578125 54.984375 -0.578125 L 67.109375 -0.578125 L 67.109375 12.28125 L 42.40625 12.28125 C 37.738281 12.28125 34.265625 11.351562 31.984375 9.5 C 29.703125 7.644531 28.5625 5.050781 28.5625 1.71875 L 28.5625 0.421875 L 26.703125 0.421875 C 18.515625 0.421875 12.539062 -2.453125 8.78125 -8.203125 C 5.019531 -13.960938 3.140625 -20.84375 3.140625 -28.84375 L 3.140625 -73.25 C 3.140625 -84.007812 5.78125 -91.835938 11.0625 -96.734375 C 16.34375 -101.640625 24.128906 -104.09375 34.421875 -104.09375 Z M 29.421875 -80.6875 L 29.421875 -21.28125 C 29.421875 -19.28125 29.847656 -17.734375 30.703125 -16.640625 C 31.554688 -15.546875 32.796875 -15 34.421875 -15 C 36.035156 -15 37.269531 -15.546875 38.125 -16.640625 C 38.976562 -17.734375 39.40625 -19.28125 39.40625 -21.28125 L 39.40625 -80.6875 C 39.40625 -82.675781 38.976562 -84.21875 38.125 -85.3125 C 37.269531 -86.414062 36.035156 -86.96875 34.421875 -86.96875 C 31.085938 -86.96875 29.421875 -84.875 29.421875 -80.6875 Z M 29.421875 -80.6875 "/></g></g></g><g fill="#000000" fill-opacity="1"><g transform="translate(407.133234, 415.977718)"><g><path d="M 34.421875 -104.09375 C 44.597656 -104.09375 52.351562 -101.664062 57.6875 -96.8125 C 63.019531 -91.957031 65.6875 -84.101562 65.6875 -73.25 L 65.6875 -28.703125 C 65.6875 -17.941406 63.046875 -10.109375 57.765625 -5.203125 C 52.484375 -0.304688 44.703125 2.140625 34.421875 2.140625 C 24.128906 2.140625 16.34375 -0.257812 11.0625 -5.0625 C 5.78125 -9.875 3.140625 -17.753906 3.140625 -28.703125 L 3.140625 -73.25 C 3.140625 -84.007812 5.78125 -91.835938 11.0625 -96.734375 C 16.34375 -101.640625 24.128906 -104.09375 34.421875 -104.09375 Z M 29.421875 -80.6875 L 29.421875 -21.28125 C 29.421875 -19.28125 29.847656 -17.734375 30.703125 -16.640625 C 31.554688 -15.546875 32.796875 -15 34.421875 -15 C 36.035156 -15 37.269531 -15.546875 38.125 -16.640625 C 38.976562 -17.734375 39.40625 -19.28125 39.40625 -21.28125 L 39.40625 -80.6875 C 39.40625 -82.675781 38.976562 -84.21875 38.125 -85.3125 C 37.269531 -86.414062 36.035156 -86.96875 34.421875 -86.96875 C 31.085938 -86.96875 29.421875 -84.875 29.421875 -80.6875 Z M 29.421875 -80.6875 "/></g></g></g><g fill="#000000" fill-opacity="1"><g transform="translate(475.959674, 415.977718)"><g><path d="M 61.96875 -81.828125 L 61.96875 -71.546875 C 61.96875 -65.921875 60.679688 -61.703125 58.109375 -58.890625 C 55.546875 -56.085938 51.691406 -54.5 46.546875 -54.125 L 46.546875 -53.828125 C 52.171875 -53.453125 56.3125 -51.835938 58.96875 -48.984375 C 61.632812 -46.128906 62.96875 -41.890625 62.96875 -36.265625 L 62.96875 0 L 38.40625 0 L 38.40625 -39.125 C 38.40625 -44.738281 36.125 -47.546875 31.5625 -47.546875 C 30.507812 -47.546875 29.507812 -47.40625 28.5625 -47.125 L 28.5625 0 L 3.140625 0 L 3.140625 -101.953125 L 33.84375 -101.953125 C 39.9375 -101.953125 44.929688 -101.5 48.828125 -100.59375 C 52.734375 -99.695312 55.898438 -97.796875 58.328125 -94.890625 C 60.753906 -91.984375 61.96875 -87.628906 61.96875 -81.828125 Z M 30.421875 -62.96875 C 33.460938 -62.96875 35.550781 -63.65625 36.6875 -65.03125 C 37.832031 -66.414062 38.40625 -68.015625 38.40625 -69.828125 L 38.40625 -78.828125 C 38.40625 -80.535156 37.832031 -82.101562 36.6875 -83.53125 C 35.550781 -84.957031 33.507812 -85.671875 30.5625 -85.671875 L 28.5625 -85.671875 L 28.5625 -62.96875 Z M 30.421875 -62.96875 "/></g></g></g><g fill="#000000" fill-opacity="1"><g transform="translate(542.07303, 415.977718)"><g><path d="M 47.546875 -81.390625 L 29.421875 -81.390625 L 29.421875 -62.6875 L 46.40625 -62.6875 L 46.40625 -42.984375 L 29.421875 -42.984375 L 29.421875 -20.5625 L 48.984375 -20.5625 L 48.984375 0 L 3.140625 0 L 3.140625 -101.953125 L 47.546875 -101.953125 Z M 47.546875 -81.390625 "/></g></g></g></g></g></g></g></g></g></mask><clipPath id="f52251c66c"><path d="M 0 29.035156 L 878.070312 29.035156 L 878.070312 742.996094 L 0 742.996094 Z M 0 29.035156 " clip-rule="nonzero"/></clipPath><clipPath id="422f95322a"><rect x="0" width="884" y="0" height="772"/></clipPath><clipPath id="45d5a00284"><rect x="0" width="884" y="0" height="772"/></clipPath><clipPath id="d87440736e"><rect x="0" width="885" y="0" height="772"/></clipPath><clipPath id="30b7a0323b"><path d="M 330 579 L 357.304688 579 L 357.304688 763 L 330 763 Z M 330 579 " clip-rule="nonzero"/></clipPath><clipPath id="c16d2904fd"><path d="M 65.214844 715 L 210 715 L 210 830.65625 L 65.214844 830.65625 Z M 65.214844 715 " clip-rule="nonzero"/></clipPath><clipPath id="4e4d929290"><path d="M 212 692 L 317 692 L 317 830.65625 L 212 830.65625 Z M 212 692 " clip-rule="nonzero"/></clipPath><clipPath id="de58dcdd15"><path d="M 66 493.628906 L 239 493.628906 L 239 593 L 66 593 Z M 66 493.628906 " clip-rule="nonzero"/></clipPath><clipPath id="33cfa79dff"><path d="M 65.214844 579 L 133 579 L 133 739 L 65.214844 739 Z M 65.214844 579 " clip-rule="nonzero"/></clipPath><clipPath id="a3055ecaf3"><path d="M 0 0.921875 L 1500 0.921875 L 1500 1043 L 0 1043 Z M 0 0.921875 " clip-rule="nonzero"/></clipPath><clipPath id="9d0c0efab7"><path d="M 0 1.136719 L 1500 1.136719 L 1500 1043 L 0 1043 Z M 0 1.136719 " clip-rule="nonzero"/></clipPath><clipPath id="8159f86232"><path d="M 0 0.136719 L 1500 0.136719 L 1500 1042 L 0 1042 Z M 0 0.136719 " clip-rule="nonzero"/></clipPath><clipPath id="9703c1e906"><path d="M 0 0.136719 L 1500 0.136719 L 1500 1042 L 0 1042 Z M 0 0.136719 " clip-rule="nonzero"/></clipPath><radialGradient gradientTransform="matrix(0.999541, 0, 0, 1.000459, 464.103089, 626.334311)" gradientUnits="userSpaceOnUse" r="503.134642" cx="478.290795" id="04603f5da5" cy="77.25184" fx="478.290795" fy="77.25184"><stop stop-opacity="1" stop-color="rgb(47.709656%, 93.180847%, 81.87561%)" offset="0"/><stop stop-opacity="1" stop-color="rgb(47.517395%, 92.961121%, 81.752014%)" offset="0.0078125"/><stop stop-opacity="1" stop-color="rgb(47.387695%, 92.81311%, 81.669617%)" offset="0.0117188"/><stop stop-opacity="1" stop-color="rgb(47.259521%, 92.666626%, 81.585693%)" offset="0.015625"/><stop stop-opacity="1" stop-color="rgb(47.129822%, 92.518616%, 81.503296%)" offset="0.0195312"/><stop stop-opacity="1" stop-color="rgb(47.001648%, 92.372131%, 81.420898%)" offset="0.0234375"/><stop stop-opacity="1" stop-color="rgb(46.873474%, 92.224121%, 81.338501%)" offset="0.0273438"/><stop stop-opacity="1" stop-color="rgb(46.743774%, 92.077637%, 81.254578%)" offset="0.03125"/><stop stop-opacity="1" stop-color="rgb(46.615601%, 91.929626%, 81.17218%)" offset="0.0351562"/><stop stop-opacity="1" stop-color="rgb(46.485901%, 91.783142%, 81.089783%)" offset="0.0390625"/><stop stop-opacity="1" stop-color="rgb(46.357727%, 91.635132%, 81.007385%)" offset="0.0429688"/><stop stop-opacity="1" stop-color="rgb(46.229553%, 91.488647%, 80.923462%)" offset="0.046875"/><stop stop-opacity="1" stop-color="rgb(46.099854%, 91.342163%, 80.841064%)" offset="0.0507812"/><stop stop-opacity="1" stop-color="rgb(45.97168%, 91.194153%, 80.758667%)" offset="0.0546875"/><stop stop-opacity="1" stop-color="rgb(45.84198%, 91.047668%, 80.674744%)" offset="0.0585938"/><stop stop-opacity="1" stop-color="rgb(45.713806%, 90.899658%, 80.592346%)" offset="0.0625"/><stop stop-opacity="1" stop-color="rgb(45.585632%, 90.753174%, 80.509949%)" offset="0.0664062"/><stop stop-opacity="1" stop-color="rgb(45.455933%, 90.605164%, 80.427551%)" offset="0.0703125"/><stop stop-opacity="1" stop-color="rgb(45.327759%, 90.458679%, 80.343628%)" offset="0.0742188"/><stop stop-opacity="1" stop-color="rgb(45.198059%, 90.310669%, 80.26123%)" offset="0.078125"/><stop stop-opacity="1" stop-color="rgb(45.069885%, 90.164185%, 80.178833%)" offset="0.0820312"/><stop stop-opacity="1" stop-color="rgb(44.940186%, 90.016174%, 80.09491%)" offset="0.0859375"/><stop stop-opacity="1" stop-color="rgb(44.812012%, 89.86969%, 80.012512%)" offset="0.0898438"/><stop stop-opacity="1" stop-color="rgb(44.683838%, 89.72168%, 79.930115%)" offset="0.09375"/><stop stop-opacity="1" stop-color="rgb(44.554138%, 89.575195%, 79.847717%)" offset="0.0976562"/><stop stop-opacity="1" stop-color="rgb(44.425964%, 89.427185%, 79.763794%)" offset="0.101562"/><stop stop-opacity="1" stop-color="rgb(44.296265%, 89.280701%, 79.681396%)" offset="0.105469"/><stop stop-opacity="1" stop-color="rgb(44.168091%, 89.13269%, 79.598999%)" offset="0.109375"/><stop stop-opacity="1" stop-color="rgb(44.039917%, 88.986206%, 79.516602%)" offset="0.113281"/><stop stop-opacity="1" stop-color="rgb(43.910217%, 88.838196%, 79.432678%)" offset="0.117188"/><stop stop-opacity="1" stop-color="rgb(43.782043%, 88.691711%, 79.350281%)" offset="0.121094"/><stop stop-opacity="1" stop-color="rgb(43.652344%, 88.543701%, 79.267883%)" offset="0.125"/><stop stop-opacity="1" stop-color="rgb(43.52417%, 88.397217%, 79.18396%)" offset="0.128906"/><stop stop-opacity="1" stop-color="rgb(43.395996%, 88.249207%, 79.101562%)" offset="0.132812"/><stop stop-opacity="1" stop-color="rgb(43.266296%, 88.102722%, 79.019165%)" offset="0.136719"/><stop stop-opacity="1" stop-color="rgb(43.138123%, 87.954712%, 78.936768%)" offset="0.140625"/><stop stop-opacity="1" stop-color="rgb(43.008423%, 87.808228%, 78.852844%)" offset="0.144531"/><stop stop-opacity="1" stop-color="rgb(42.880249%, 87.661743%, 78.770447%)" offset="0.148438"/><stop stop-opacity="1" stop-color="rgb(42.750549%, 87.513733%, 78.688049%)" offset="0.152344"/><stop stop-opacity="1" stop-color="rgb(42.622375%, 87.367249%, 78.605652%)" offset="0.15625"/><stop stop-opacity="1" stop-color="rgb(42.494202%, 87.219238%, 78.521729%)" offset="0.160156"/><stop stop-opacity="1" stop-color="rgb(42.364502%, 87.072754%, 78.439331%)" offset="0.164062"/><stop stop-opacity="1" stop-color="rgb(42.236328%, 86.924744%, 78.356934%)" offset="0.167969"/><stop stop-opacity="1" stop-color="rgb(42.106628%, 86.778259%, 78.27301%)" offset="0.171875"/><stop stop-opacity="1" stop-color="rgb(41.978455%, 86.630249%, 78.190613%)" offset="0.175781"/><stop stop-opacity="1" stop-color="rgb(41.850281%, 86.483765%, 78.108215%)" offset="0.179688"/><stop stop-opacity="1" stop-color="rgb(41.720581%, 86.335754%, 78.025818%)" offset="0.183594"/><stop stop-opacity="1" stop-color="rgb(41.592407%, 86.18927%, 77.941895%)" offset="0.1875"/><stop stop-opacity="1" stop-color="rgb(41.462708%, 86.04126%, 77.859497%)" offset="0.191406"/><stop stop-opacity="1" stop-color="rgb(41.334534%, 85.894775%, 77.7771%)" offset="0.195312"/><stop stop-opacity="1" stop-color="rgb(41.20636%, 85.746765%, 77.694702%)" offset="0.199219"/><stop stop-opacity="1" stop-color="rgb(41.07666%, 85.600281%, 77.610779%)" offset="0.203125"/><stop stop-opacity="1" stop-color="rgb(40.948486%, 85.452271%, 77.528381%)" offset="0.207031"/><stop stop-opacity="1" stop-color="rgb(40.818787%, 85.305786%, 77.445984%)" offset="0.210938"/><stop stop-opacity="1" stop-color="rgb(40.690613%, 85.157776%, 77.362061%)" offset="0.214844"/><stop stop-opacity="1" stop-color="rgb(40.562439%, 85.011292%, 77.279663%)" offset="0.21875"/><stop stop-opacity="1" stop-color="rgb(40.432739%, 84.863281%, 77.197266%)" offset="0.222656"/><stop stop-opacity="1" stop-color="rgb(40.304565%, 84.716797%, 77.114868%)" offset="0.226562"/><stop stop-opacity="1" stop-color="rgb(40.174866%, 84.568787%, 77.030945%)" offset="0.230469"/><stop stop-opacity="1" stop-color="rgb(40.046692%, 84.422302%, 76.948547%)" offset="0.234375"/><stop stop-opacity="1" stop-color="rgb(39.916992%, 84.274292%, 76.86615%)" offset="0.238281"/><stop stop-opacity="1" stop-color="rgb(39.788818%, 84.127808%, 76.782227%)" offset="0.242188"/><stop stop-opacity="1" stop-color="rgb(39.660645%, 83.979797%, 76.699829%)" offset="0.246094"/><stop stop-opacity="1" stop-color="rgb(39.530945%, 83.833313%, 76.617432%)" offset="0.25"/><stop stop-opacity="1" stop-color="rgb(39.337158%, 83.612061%, 76.49231%)" offset="0.253906"/><stop stop-opacity="1" stop-color="rgb(39.080811%, 83.317566%, 76.327515%)" offset="0.261719"/><stop stop-opacity="1" stop-color="rgb(38.822937%, 83.023071%, 76.161194%)" offset="0.269531"/><stop stop-opacity="1" stop-color="rgb(38.565063%, 82.728577%, 75.996399%)" offset="0.277344"/><stop stop-opacity="1" stop-color="rgb(38.30719%, 82.434082%, 75.830078%)" offset="0.285156"/><stop stop-opacity="1" stop-color="rgb(38.049316%, 82.139587%, 75.665283%)" offset="0.292969"/><stop stop-opacity="1" stop-color="rgb(37.791443%, 81.845093%, 75.498962%)" offset="0.300781"/><stop stop-opacity="1" stop-color="rgb(37.535095%, 81.550598%, 75.334167%)" offset="0.308594"/><stop stop-opacity="1" stop-color="rgb(37.277222%, 81.256104%, 75.167847%)" offset="0.316406"/><stop stop-opacity="1" stop-color="rgb(37.019348%, 80.961609%, 75.001526%)" offset="0.324219"/><stop stop-opacity="1" stop-color="rgb(36.763%, 80.671692%, 74.816895%)" offset="0.332031"/><stop stop-opacity="1" stop-color="rgb(36.505127%, 80.387878%, 74.609375%)" offset="0.339844"/><stop stop-opacity="1" stop-color="rgb(36.248779%, 80.104065%, 74.397278%)" offset="0.347656"/><stop stop-opacity="1" stop-color="rgb(35.992432%, 79.820251%, 74.186707%)" offset="0.355469"/><stop stop-opacity="1" stop-color="rgb(35.734558%, 79.534912%, 73.976135%)" offset="0.363281"/><stop stop-opacity="1" stop-color="rgb(35.47821%, 79.251099%, 73.764038%)" offset="0.371094"/><stop stop-opacity="1" stop-color="rgb(35.221863%, 78.967285%, 73.553467%)" offset="0.378906"/><stop stop-opacity="1" stop-color="rgb(34.963989%, 78.683472%, 73.342896%)" offset="0.386719"/><stop stop-opacity="1" stop-color="rgb(34.707642%, 78.398132%, 73.132324%)" offset="0.394531"/><stop stop-opacity="1" stop-color="rgb(34.451294%, 78.114319%, 72.920227%)" offset="0.402344"/><stop stop-opacity="1" stop-color="rgb(34.19342%, 77.830505%, 72.709656%)" offset="0.410156"/><stop stop-opacity="1" stop-color="rgb(33.937073%, 77.546692%, 72.499084%)" offset="0.417969"/><stop stop-opacity="1" stop-color="rgb(33.680725%, 77.261353%, 72.288513%)" offset="0.425781"/><stop stop-opacity="1" stop-color="rgb(33.424377%, 76.977539%, 72.076416%)" offset="0.433594"/><stop stop-opacity="1" stop-color="rgb(33.166504%, 76.693726%, 71.865845%)" offset="0.441406"/><stop stop-opacity="1" stop-color="rgb(32.910156%, 76.409912%, 71.655273%)" offset="0.449219"/><stop stop-opacity="1" stop-color="rgb(32.653809%, 76.124573%, 71.444702%)" offset="0.457031"/><stop stop-opacity="1" stop-color="rgb(32.395935%, 75.840759%, 71.232605%)" offset="0.464844"/><stop stop-opacity="1" stop-color="rgb(32.139587%, 75.556946%, 71.022034%)" offset="0.472656"/><stop stop-opacity="1" stop-color="rgb(31.88324%, 75.273132%, 70.811462%)" offset="0.480469"/><stop stop-opacity="1" stop-color="rgb(31.625366%, 74.987793%, 70.599365%)" offset="0.488281"/><stop stop-opacity="1" stop-color="rgb(31.369019%, 74.703979%, 70.388794%)" offset="0.496094"/><stop stop-opacity="1" stop-color="rgb(31.176758%, 74.490356%, 70.230103%)" offset="0.503906"/><stop stop-opacity="1" stop-color="rgb(31.048584%, 74.34845%, 70.124817%)" offset="0.507812"/><stop stop-opacity="1" stop-color="rgb(30.92041%, 74.206543%, 70.019531%)" offset="0.511719"/><stop stop-opacity="1" stop-color="rgb(30.79071%, 74.064636%, 69.914246%)" offset="0.515625"/><stop stop-opacity="1" stop-color="rgb(30.662537%, 73.922729%, 69.80896%)" offset="0.519531"/><stop stop-opacity="1" stop-color="rgb(30.534363%, 73.779297%, 69.702148%)" offset="0.523438"/><stop stop-opacity="1" stop-color="rgb(30.406189%, 73.63739%, 69.596863%)" offset="0.527344"/><stop stop-opacity="1" stop-color="rgb(30.278015%, 73.495483%, 69.491577%)" offset="0.53125"/><stop stop-opacity="1" stop-color="rgb(30.149841%, 73.353577%, 69.386292%)" offset="0.535156"/><stop stop-opacity="1" stop-color="rgb(30.020142%, 73.21167%, 69.281006%)" offset="0.539062"/><stop stop-opacity="1" stop-color="rgb(29.891968%, 73.069763%, 69.17572%)" offset="0.542969"/><stop stop-opacity="1" stop-color="rgb(29.763794%, 72.927856%, 69.070435%)" offset="0.546875"/><stop stop-opacity="1" stop-color="rgb(29.63562%, 72.78595%, 68.965149%)" offset="0.550781"/><stop stop-opacity="1" stop-color="rgb(29.507446%, 72.642517%, 68.858337%)" offset="0.554688"/><stop stop-opacity="1" stop-color="rgb(29.379272%, 72.50061%, 68.753052%)" offset="0.558594"/><stop stop-opacity="1" stop-color="rgb(29.249573%, 72.358704%, 68.647766%)" offset="0.5625"/><stop stop-opacity="1" stop-color="rgb(29.121399%, 72.216797%, 68.54248%)" offset="0.566406"/><stop stop-opacity="1" stop-color="rgb(28.993225%, 72.07489%, 68.437195%)" offset="0.570312"/><stop stop-opacity="1" stop-color="rgb(28.865051%, 71.932983%, 68.331909%)" offset="0.574219"/><stop stop-opacity="1" stop-color="rgb(28.736877%, 71.791077%, 68.226624%)" offset="0.578125"/><stop stop-opacity="1" stop-color="rgb(28.608704%, 71.64917%, 68.119812%)" offset="0.582031"/><stop stop-opacity="1" stop-color="rgb(28.48053%, 71.505737%, 68.014526%)" offset="0.585938"/><stop stop-opacity="1" stop-color="rgb(28.35083%, 71.363831%, 67.909241%)" offset="0.589844"/><stop stop-opacity="1" stop-color="rgb(28.222656%, 71.221924%, 67.803955%)" offset="0.59375"/><stop stop-opacity="1" stop-color="rgb(28.094482%, 71.080017%, 67.698669%)" offset="0.597656"/><stop stop-opacity="1" stop-color="rgb(27.966309%, 70.93811%, 67.593384%)" offset="0.601562"/><stop stop-opacity="1" stop-color="rgb(27.838135%, 70.796204%, 67.488098%)" offset="0.605469"/><stop stop-opacity="1" stop-color="rgb(27.709961%, 70.654297%, 67.382812%)" offset="0.609375"/><stop stop-opacity="1" stop-color="rgb(27.580261%, 70.51239%, 67.276001%)" offset="0.613281"/><stop stop-opacity="1" stop-color="rgb(27.452087%, 70.368958%, 67.170715%)" offset="0.617188"/><stop stop-opacity="1" stop-color="rgb(27.323914%, 70.227051%, 67.06543%)" offset="0.621094"/><stop stop-opacity="1" stop-color="rgb(27.19574%, 70.085144%, 66.960144%)" offset="0.625"/><stop stop-opacity="1" stop-color="rgb(27.003479%, 69.873047%, 66.802979%)" offset="0.628906"/><stop stop-opacity="1" stop-color="rgb(26.745605%, 69.589233%, 66.590881%)" offset="0.636719"/><stop stop-opacity="1" stop-color="rgb(26.489258%, 69.303894%, 66.38031%)" offset="0.644531"/><stop stop-opacity="1" stop-color="rgb(26.23291%, 69.020081%, 66.169739%)" offset="0.652344"/><stop stop-opacity="1" stop-color="rgb(25.971985%, 68.722534%, 65.951538%)" offset="0.660156"/><stop stop-opacity="1" stop-color="rgb(25.761414%, 68.443298%, 65.757751%)" offset="0.667969"/><stop stop-opacity="1" stop-color="rgb(25.605774%, 68.19458%, 65.597534%)" offset="0.671875"/><stop stop-opacity="1" stop-color="rgb(25.448608%, 67.945862%, 65.437317%)" offset="0.675781"/><stop stop-opacity="1" stop-color="rgb(25.292969%, 67.697144%, 65.275574%)" offset="0.679688"/><stop stop-opacity="1" stop-color="rgb(25.135803%, 67.448425%, 65.115356%)" offset="0.683594"/><stop stop-opacity="1" stop-color="rgb(24.980164%, 67.201233%, 64.953613%)" offset="0.6875"/><stop stop-opacity="1" stop-color="rgb(24.822998%, 66.952515%, 64.793396%)" offset="0.691406"/><stop stop-opacity="1" stop-color="rgb(24.667358%, 66.703796%, 64.631653%)" offset="0.695312"/><stop stop-opacity="1" stop-color="rgb(24.511719%, 66.455078%, 64.471436%)" offset="0.699219"/><stop stop-opacity="1" stop-color="rgb(24.354553%, 66.20636%, 64.309692%)" offset="0.703125"/><stop stop-opacity="1" stop-color="rgb(24.198914%, 65.957642%, 64.149475%)" offset="0.707031"/><stop stop-opacity="1" stop-color="rgb(24.041748%, 65.710449%, 63.987732%)" offset="0.710938"/><stop stop-opacity="1" stop-color="rgb(23.886108%, 65.461731%, 63.827515%)" offset="0.714844"/><stop stop-opacity="1" stop-color="rgb(23.728943%, 65.213013%, 63.665771%)" offset="0.71875"/><stop stop-opacity="1" stop-color="rgb(23.573303%, 64.964294%, 63.505554%)" offset="0.722656"/><stop stop-opacity="1" stop-color="rgb(23.416138%, 64.715576%, 63.343811%)" offset="0.726562"/><stop stop-opacity="1" stop-color="rgb(23.260498%, 64.466858%, 63.183594%)" offset="0.730469"/><stop stop-opacity="1" stop-color="rgb(23.103333%, 64.219666%, 63.021851%)" offset="0.734375"/><stop stop-opacity="1" stop-color="rgb(22.947693%, 63.970947%, 62.861633%)" offset="0.738281"/><stop stop-opacity="1" stop-color="rgb(22.790527%, 63.722229%, 62.69989%)" offset="0.742188"/><stop stop-opacity="1" stop-color="rgb(22.634888%, 63.473511%, 62.539673%)" offset="0.746094"/><stop stop-opacity="1" stop-color="rgb(22.477722%, 63.224792%, 62.37793%)" offset="0.75"/><stop stop-opacity="1" stop-color="rgb(22.322083%, 62.976074%, 62.217712%)" offset="0.753906"/><stop stop-opacity="1" stop-color="rgb(22.164917%, 62.728882%, 62.057495%)" offset="0.757812"/><stop stop-opacity="1" stop-color="rgb(22.009277%, 62.480164%, 61.895752%)" offset="0.761719"/><stop stop-opacity="1" stop-color="rgb(21.852112%, 62.231445%, 61.735535%)" offset="0.765625"/><stop stop-opacity="1" stop-color="rgb(21.696472%, 61.982727%, 61.573792%)" offset="0.769531"/><stop stop-opacity="1" stop-color="rgb(21.539307%, 61.734009%, 61.413574%)" offset="0.773438"/><stop stop-opacity="1" stop-color="rgb(21.383667%, 61.486816%, 61.251831%)" offset="0.777344"/><stop stop-opacity="1" stop-color="rgb(21.226501%, 61.238098%, 61.091614%)" offset="0.78125"/><stop stop-opacity="1" stop-color="rgb(21.070862%, 60.98938%, 60.929871%)" offset="0.785156"/><stop stop-opacity="1" stop-color="rgb(20.915222%, 60.740662%, 60.769653%)" offset="0.789062"/><stop stop-opacity="1" stop-color="rgb(20.758057%, 60.491943%, 60.60791%)" offset="0.792969"/><stop stop-opacity="1" stop-color="rgb(20.602417%, 60.243225%, 60.447693%)" offset="0.796875"/><stop stop-opacity="1" stop-color="rgb(20.445251%, 59.996033%, 60.28595%)" offset="0.800781"/><stop stop-opacity="1" stop-color="rgb(20.289612%, 59.747314%, 60.125732%)" offset="0.804688"/><stop stop-opacity="1" stop-color="rgb(20.132446%, 59.498596%, 59.963989%)" offset="0.808594"/><stop stop-opacity="1" stop-color="rgb(19.976807%, 59.249878%, 59.803772%)" offset="0.8125"/><stop stop-opacity="1" stop-color="rgb(19.819641%, 59.00116%, 59.642029%)" offset="0.816406"/><stop stop-opacity="1" stop-color="rgb(19.664001%, 58.752441%, 59.481812%)" offset="0.820312"/><stop stop-opacity="1" stop-color="rgb(19.506836%, 58.505249%, 59.320068%)" offset="0.824219"/><stop stop-opacity="1" stop-color="rgb(19.351196%, 58.256531%, 59.159851%)" offset="0.828125"/><stop stop-opacity="1" stop-color="rgb(19.194031%, 58.007812%, 58.999634%)" offset="0.832031"/><stop stop-opacity="1" stop-color="rgb(19.038391%, 57.759094%, 58.837891%)" offset="0.835938"/><stop stop-opacity="1" stop-color="rgb(18.881226%, 57.510376%, 58.677673%)" offset="0.839844"/><stop stop-opacity="1" stop-color="rgb(18.725586%, 57.263184%, 58.51593%)" offset="0.84375"/><stop stop-opacity="1" stop-color="rgb(18.56842%, 57.014465%, 58.355713%)" offset="0.847656"/><stop stop-opacity="1" stop-color="rgb(18.412781%, 56.765747%, 58.19397%)" offset="0.851562"/><stop stop-opacity="1" stop-color="rgb(18.255615%, 56.517029%, 58.033752%)" offset="0.855469"/><stop stop-opacity="1" stop-color="rgb(18.099976%, 56.268311%, 57.872009%)" offset="0.859375"/><stop stop-opacity="1" stop-color="rgb(17.94281%, 56.019592%, 57.711792%)" offset="0.863281"/><stop stop-opacity="1" stop-color="rgb(17.78717%, 55.7724%, 57.550049%)" offset="0.867188"/><stop stop-opacity="1" stop-color="rgb(17.631531%, 55.523682%, 57.389832%)" offset="0.871094"/><stop stop-opacity="1" stop-color="rgb(17.474365%, 55.274963%, 57.228088%)" offset="0.875"/><stop stop-opacity="1" stop-color="rgb(17.318726%, 55.026245%, 57.067871%)" offset="0.878906"/><stop stop-opacity="1" stop-color="rgb(17.16156%, 54.777527%, 56.906128%)" offset="0.882812"/><stop stop-opacity="1" stop-color="rgb(17.00592%, 54.528809%, 56.745911%)" offset="0.886719"/><stop stop-opacity="1" stop-color="rgb(16.848755%, 54.281616%, 56.584167%)" offset="0.890625"/><stop stop-opacity="1" stop-color="rgb(16.693115%, 54.032898%, 56.42395%)" offset="0.894531"/><stop stop-opacity="1" stop-color="rgb(16.53595%, 53.78418%, 56.262207%)" offset="0.898438"/><stop stop-opacity="1" stop-color="rgb(16.38031%, 53.535461%, 56.10199%)" offset="0.902344"/><stop stop-opacity="1" stop-color="rgb(16.223145%, 53.286743%, 55.940247%)" offset="0.90625"/><stop stop-opacity="1" stop-color="rgb(16.067505%, 53.038025%, 55.780029%)" offset="0.910156"/><stop stop-opacity="1" stop-color="rgb(15.910339%, 52.790833%, 55.619812%)" offset="0.914062"/><stop stop-opacity="1" stop-color="rgb(15.7547%, 52.542114%, 55.458069%)" offset="0.917969"/><stop stop-opacity="1" stop-color="rgb(15.597534%, 52.293396%, 55.297852%)" offset="0.921875"/><stop stop-opacity="1" stop-color="rgb(15.441895%, 52.044678%, 55.136108%)" offset="0.925781"/><stop stop-opacity="1" stop-color="rgb(15.284729%, 51.795959%, 54.975891%)" offset="0.929688"/><stop stop-opacity="1" stop-color="rgb(15.129089%, 51.548767%, 54.814148%)" offset="0.933594"/><stop stop-opacity="1" stop-color="rgb(14.971924%, 51.300049%, 54.653931%)" offset="0.9375"/><stop stop-opacity="1" stop-color="rgb(14.816284%, 51.051331%, 54.492188%)" offset="0.941406"/><stop stop-opacity="1" stop-color="rgb(14.659119%, 50.802612%, 54.33197%)" offset="0.945312"/><stop stop-opacity="1" stop-color="rgb(14.503479%, 50.553894%, 54.170227%)" offset="0.949219"/><stop stop-opacity="1" stop-color="rgb(14.347839%, 50.305176%, 54.01001%)" offset="0.953125"/><stop stop-opacity="1" stop-color="rgb(14.190674%, 50.057983%, 53.848267%)" offset="0.957031"/><stop stop-opacity="1" stop-color="rgb(14.035034%, 49.809265%, 53.688049%)" offset="0.960938"/><stop stop-opacity="1" stop-color="rgb(13.877869%, 49.560547%, 53.526306%)" offset="0.964844"/><stop stop-opacity="1" stop-color="rgb(13.722229%, 49.311829%, 53.366089%)" offset="0.96875"/><stop stop-opacity="1" stop-color="rgb(13.565063%, 49.06311%, 53.204346%)" offset="0.972656"/><stop stop-opacity="1" stop-color="rgb(13.409424%, 48.814392%, 53.044128%)" offset="0.976562"/><stop stop-opacity="1" stop-color="rgb(13.252258%, 48.5672%, 52.882385%)" offset="0.980469"/><stop stop-opacity="1" stop-color="rgb(13.096619%, 48.318481%, 52.722168%)" offset="0.984375"/><stop stop-opacity="1" stop-color="rgb(12.939453%, 48.069763%, 52.561951%)" offset="0.988281"/><stop stop-opacity="1" stop-color="rgb(12.783813%, 47.821045%, 52.400208%)" offset="0.992188"/><stop stop-opacity="1" stop-color="rgb(12.626648%, 47.572327%, 52.23999%)" offset="0.996094"/><stop stop-opacity="1" stop-color="rgb(12.548828%, 47.44873%, 52.159119%)" offset="1"/></radialGradient><clipPath id="0e04ba29b0"><rect x="0" width="1500" y="0" height="1042"/></clipPath><clipPath id="ab1f492399"><path d="M 0 0.136719 L 1500 0.136719 L 1500 1042 L 0 1042 Z M 0 0.136719 " clip-rule="nonzero"/></clipPath><clipPath id="bd880f84ba"><rect x="0" width="1500" y="0" height="1042"/></clipPath><clipPath id="7f16d84b3e"><rect x="0" width="1500" y="0" height="1042"/></clipPath><mask id="a13a92d4db"><g filter="url(#5fec732d5b)"><g transform="matrix(1, 0, 0, 1, 0, 0.000000000000113687)"><g clip-path="url(#7f16d84b3e)"><g clip-path="url(#ab1f492399)"><g transform="matrix(1, 0, 0, 1, 0, 0.000000000000113687)"><g clip-path="url(#bd880f84ba)"><g fill="#000000" fill-opacity="1"><g transform="translate(464.716289, 769.328713)"><g><path d="M 73.21875 -43.1875 L 73.84375 -43.1875 L 88.5625 -223.421875 L 142.375 -223.421875 L 112.03125 0 L 30.359375 0 L 2.5 -223.421875 L 60.078125 -223.421875 Z M 73.21875 -43.1875 "/></g></g></g><g fill="#000000" fill-opacity="1"><g transform="translate(609.586879, 769.328713)"><g><path d="M 104.203125 -178.359375 L 64.46875 -178.359375 L 64.46875 -137.375 L 101.703125 -137.375 L 101.703125 -94.1875 L 64.46875 -94.1875 L 64.46875 -45.0625 L 107.328125 -45.0625 L 107.328125 0 L 6.890625 0 L 6.890625 -223.421875 L 104.203125 -223.421875 Z M 104.203125 -178.359375 "/></g></g></g><g fill="#000000" fill-opacity="1"><g transform="translate(719.726093, 769.328713)"><g><path d="M 88.5625 -112.34375 L 89.1875 -112.34375 L 89.1875 -223.421875 L 138 -223.421875 L 138 0 L 89.1875 0 L 56.640625 -124.859375 L 55.703125 -124.859375 L 55.703125 0 L 6.890625 0 L 6.890625 -223.421875 L 55.703125 -223.421875 Z M 88.5625 -112.34375 "/></g></g></g><g fill="#000000" fill-opacity="1"><g transform="translate(864.596683, 769.328713)"><g><path d="M 75.421875 -228.125 C 97.734375 -228.125 114.726562 -222.800781 126.40625 -212.15625 C 138.09375 -201.519531 143.9375 -184.3125 143.9375 -160.53125 L 143.9375 -68.21875 C 143.9375 -55.90625 142.894531 -46.148438 140.8125 -38.953125 C 138.726562 -31.753906 135.234375 -26.222656 130.328125 -22.359375 C 125.429688 -18.503906 118.597656 -15.640625 109.828125 -13.765625 C 109.617188 -9.390625 110.191406 -6.207031 111.546875 -4.21875 C 112.910156 -2.238281 115.882812 -1.25 120.46875 -1.25 L 147.078125 -1.25 L 147.078125 26.90625 L 92.9375 26.90625 C 82.71875 26.90625 75.101562 24.867188 70.09375 20.796875 C 65.082031 16.734375 62.578125 11.050781 62.578125 3.75 L 62.578125 0.9375 L 58.515625 0.9375 C 40.578125 0.9375 27.488281 -5.367188 19.25 -17.984375 C 11.007812 -30.609375 6.890625 -45.679688 6.890625 -63.203125 L 6.890625 -160.53125 C 6.890625 -184.101562 12.675781 -201.257812 24.25 -212 C 35.832031 -222.75 52.890625 -228.125 75.421875 -228.125 Z M 64.46875 -176.796875 L 64.46875 -46.625 C 64.46875 -42.238281 65.40625 -38.847656 67.28125 -36.453125 C 69.15625 -34.054688 71.867188 -32.859375 75.421875 -32.859375 C 78.960938 -32.859375 81.671875 -34.054688 83.546875 -36.453125 C 85.421875 -38.847656 86.359375 -42.238281 86.359375 -46.625 L 86.359375 -176.796875 C 86.359375 -181.179688 85.421875 -184.570312 83.546875 -186.96875 C 81.671875 -189.363281 78.960938 -190.5625 75.421875 -190.5625 C 68.117188 -190.5625 64.46875 -185.972656 64.46875 -176.796875 Z M 64.46875 -176.796875 "/></g></g></g><g fill="#000000" fill-opacity="1"><g transform="translate(1015.412287, 769.328713)"><g><path d="M 75.421875 -228.125 C 97.734375 -228.125 114.726562 -222.800781 126.40625 -212.15625 C 138.09375 -201.519531 143.9375 -184.3125 143.9375 -160.53125 L 143.9375 -62.890625 C 143.9375 -39.316406 138.144531 -22.160156 126.5625 -11.421875 C 114.988281 -0.679688 97.941406 4.6875 75.421875 4.6875 C 52.890625 4.6875 35.832031 -0.578125 24.25 -11.109375 C 12.675781 -21.640625 6.890625 -38.898438 6.890625 -62.890625 L 6.890625 -160.53125 C 6.890625 -184.101562 12.675781 -201.257812 24.25 -212 C 35.832031 -222.75 52.890625 -228.125 75.421875 -228.125 Z M 64.46875 -176.796875 L 64.46875 -46.625 C 64.46875 -42.238281 65.40625 -38.847656 67.28125 -36.453125 C 69.15625 -34.054688 71.867188 -32.859375 75.421875 -32.859375 C 78.960938 -32.859375 81.671875 -34.054688 83.546875 -36.453125 C 85.421875 -38.847656 86.359375 -42.238281 86.359375 -46.625 L 86.359375 -176.796875 C 86.359375 -181.179688 85.421875 -184.570312 83.546875 -186.96875 C 81.671875 -189.363281 78.960938 -190.5625 75.421875 -190.5625 C 68.117188 -190.5625 64.46875 -185.972656 64.46875 -176.796875 Z M 64.46875 -176.796875 "/></g></g></g><g fill="#000000" fill-opacity="1"><g transform="translate(1166.227866, 769.328713)"><g><path d="M 135.8125 -179.296875 L 135.8125 -156.78125 C 135.8125 -144.46875 132.992188 -135.234375 127.359375 -129.078125 C 121.722656 -122.921875 113.273438 -119.425781 102.015625 -118.59375 L 102.015625 -117.96875 C 114.316406 -117.132812 123.390625 -113.585938 129.234375 -107.328125 C 135.078125 -101.066406 138 -91.785156 138 -79.484375 L 138 0 L 84.171875 0 L 84.171875 -85.734375 C 84.171875 -98.046875 79.164062 -104.203125 69.15625 -104.203125 C 66.863281 -104.203125 64.671875 -103.890625 62.578125 -103.265625 L 62.578125 0 L 6.890625 0 L 6.890625 -223.421875 L 74.15625 -223.421875 C 87.507812 -223.421875 98.460938 -222.429688 107.015625 -220.453125 C 115.566406 -218.472656 122.503906 -214.300781 127.828125 -207.9375 C 133.148438 -201.570312 135.8125 -192.023438 135.8125 -179.296875 Z M 66.65625 -138 C 73.332031 -138 77.921875 -139.507812 80.421875 -142.53125 C 82.921875 -145.5625 84.171875 -149.054688 84.171875 -153.015625 L 84.171875 -172.734375 C 84.171875 -176.484375 82.921875 -179.921875 80.421875 -183.046875 C 77.921875 -186.179688 73.4375 -187.75 66.96875 -187.75 L 62.578125 -187.75 L 62.578125 -138 Z M 66.65625 -138 "/></g></g></g><g fill="#000000" fill-opacity="1"><g transform="translate(1311.098482, 769.328713)"><g><path d="M 104.203125 -178.359375 L 64.46875 -178.359375 L 64.46875 -137.375 L 101.703125 -137.375 L 101.703125 -94.1875 L 64.46875 -94.1875 L 64.46875 -45.0625 L 107.328125 -45.0625 L 107.328125 0 L 6.890625 0 L 6.890625 -223.421875 L 104.203125 -223.421875 Z M 104.203125 -178.359375 "/></g></g></g></g></g></g></g></g></g></mask><clipPath id="e3844a59bf"><path d="M 0 0.136719 L 1500 0.136719 L 1500 1042 L 0 1042 Z M 0 0.136719 " clip-rule="nonzero"/></clipPath><clipPath id="76484dd216"><rect x="0" width="1500" y="0" height="1042"/></clipPath><clipPath id="fd8fa02811"><rect x="0" width="1500" y="0" height="1042"/></clipPath><clipPath id="8cbe26da5e"><rect x="0" width="1500" y="0" height="1043"/></clipPath><clipPath id="c82f755e91"><rect x="0" width="1500" y="0" height="1043"/></clipPath><clipPath id="62040bc9b2"><path d="M 1378 198 L 1436.152344 198 L 1436.152344 589 L 1378 589 Z M 1378 198 " clip-rule="nonzero"/></clipPath><clipPath id="0332bb30e6"><path d="M 813.65625 488 L 1123 488 L 1123 733.929688 L 813.65625 733.929688 Z M 813.65625 488 " clip-rule="nonzero"/></clipPath><clipPath id="d293b27995"><path d="M 1126 439 L 1350 439 L 1350 733.929688 L 1126 733.929688 Z M 1126 439 " clip-rule="nonzero"/></clipPath><clipPath id="f3f11a5621"><path d="M 816 16.179688 L 1183 16.179688 L 1183 228 L 816 228 Z M 816 16.179688 " clip-rule="nonzero"/></clipPath><clipPath id="81380bd296"><path d="M 813.65625 198 L 958 198 L 958 539 L 813.65625 539 Z M 813.65625 198 " clip-rule="nonzero"/></clipPath></defs><path fill="#5ecebf" d="M 371.066406 337.441406 L 371.066406 384.464844 L 370.878906 384.574219 L 370.875 384.574219 L 335.335938 363.890625 L 335.335938 316.648438 L 350.617188 325.539062 L 370.953125 337.375 Z M 371.066406 337.441406 " fill-opacity="1" fill-rule="nonzero"/><path fill="#5ecebf" d="M 410.199219 316.6875 L 410.199219 363.832031 L 374.46875 384.464844 L 374.46875 337.3125 L 394.738281 325.605469 Z M 410.199219 316.6875 " fill-opacity="1" fill-rule="nonzero"/><path fill="#42afa8" d="M 370.832031 408.167969 L 370.757812 455.378906 L 335.335938 434.757812 L 330.078125 431.699219 L 314.917969 422.875 L 309.742188 419.871094 L 274.082031 399.117188 L 274.082031 328.46875 L 274.273438 328.355469 L 274.082031 328.25 L 274.082031 281.003906 L 279.4375 284.113281 L 314.917969 304.765625 L 314.917969 375.632812 L 335.335938 387.511719 L 350.496094 396.335938 L 350.5 396.335938 Z M 370.832031 408.167969 " fill-opacity="1" fill-rule="nonzero"/><path fill="#42afa8" d="M 471.453125 352.042969 L 471.453125 399.203125 L 435.292969 420.082031 L 435.289062 420.082031 L 430.617188 422.78125 L 414.917969 431.847656 L 410.199219 434.566406 L 374.46875 455.195312 L 374.164062 455.378906 L 374.234375 408.167969 L 374.46875 408.039062 L 394.609375 396.410156 L 394.613281 396.410156 L 394.613281 396.40625 L 410.199219 387.414062 L 430.617188 375.617188 L 435.367188 372.878906 L 435.371094 372.878906 L 455.75 361.109375 L 455.753906 361.109375 Z M 471.453125 352.042969 " fill-opacity="1" fill-rule="nonzero"/><path fill="#207985" d="M 592.257812 142.90625 L 551.421875 166.484375 L 531.007812 154.695312 L 515.691406 145.855469 L 495.273438 134.066406 L 490.171875 131.121094 L 469.75 119.328125 L 454.441406 110.492188 L 454.4375 110.492188 L 434.023438 98.703125 L 428.914062 101.648438 L 413.601562 110.492188 L 408.5 113.433594 L 372.773438 134.066406 L 372.765625 134.066406 L 337.039062 113.433594 L 331.9375 110.492188 L 337.039062 107.546875 L 372.765625 86.910156 L 372.773438 86.910156 L 393.191406 75.121094 L 408.5 66.285156 L 428.914062 54.492188 L 434.023438 51.546875 L 469.75 72.179688 L 474.859375 75.121094 L 490.171875 83.964844 L 495.273438 86.910156 L 531.007812 107.542969 L 536.109375 110.492188 L 551.421875 119.332031 L 556.527344 122.277344 Z M 592.257812 142.90625 " fill-opacity="1" fill-rule="nonzero"/><path fill="#207985" d="M 593.960938 145.738281 L 593.960938 399.203125 L 593.097656 399.699219 L 557.4375 420.289062 L 557.433594 420.289062 L 553.125 422.777344 L 553.125 169.320312 Z M 593.960938 145.738281 " fill-opacity="1" fill-rule="nonzero"/><path fill="#5ecebf" d="M 352.351562 216.585938 L 337.039062 225.421875 L 316.84375 237.09375 L 316.832031 237.09375 L 276.167969 213.417969 L 311.515625 193.007812 L 316.617188 195.960938 L 337.039062 207.746094 Z M 352.351562 216.585938 " fill-opacity="1" fill-rule="nonzero"/><path fill="#5ecebf" d="M 315.132812 239.925781 L 314.917969 240.050781 L 314.917969 281.140625 L 299.816406 272.34375 L 279.480469 260.515625 L 274.082031 257.371094 L 274.082031 216.476562 L 274.089844 216.476562 L 274.464844 216.253906 L 274.46875 216.253906 Z M 315.132812 239.925781 " fill-opacity="1" fill-rule="nonzero"/><path fill="#7aeed1" d="M 408.5 249.214844 L 372.792969 269.726562 L 372.765625 269.714844 L 337.214844 249.113281 L 337.363281 249.03125 L 372.765625 228.800781 L 408.316406 249.113281 Z M 408.5 249.214844 " fill-opacity="1" fill-rule="nonzero"/><path fill="#7aeed1" d="M 410.199219 252.054688 L 410.199219 292.890625 L 410.019531 292.996094 L 409.875 293.082031 L 374.46875 313.308594 L 374.46875 272.582031 L 374.492188 272.566406 Z M 410.199219 252.054688 " fill-opacity="1" fill-rule="nonzero"/><path fill="#7aeed1" d="M 371.066406 272.550781 L 371.066406 313.308594 L 335.515625 292.996094 L 335.335938 292.890625 L 335.335938 252.054688 L 335.515625 251.945312 Z M 371.066406 272.550781 " fill-opacity="1" fill-rule="nonzero"/><path fill="#037300" d="M 372.792969 269.726562 L 372.765625 269.742188 L 372.765625 269.714844 Z M 372.792969 269.726562 " fill-opacity="1" fill-rule="nonzero"/><g clip-path="url(#f4cd2dd50e)"><path fill="#207985" d="M 370.71875 478.972656 L 370.632812 526.179688 L 335.335938 505.632812 L 329.960938 502.507812 L 329.953125 502.507812 L 314.917969 493.753906 L 309.625 490.675781 L 274.082031 469.992188 L 268.945312 467.007812 L 253.664062 458.109375 L 248.613281 455.164062 L 248.609375 455.164062 L 212.828125 434.347656 L 207.933594 431.496094 L 192.414062 422.460938 L 187.597656 419.660156 L 152.003906 398.953125 L 151.578125 398.699219 L 151.578125 351.453125 L 157.171875 354.710938 L 192.414062 375.210938 L 192.414062 375.617188 L 192.761719 375.417969 L 212.828125 387.09375 L 228.355469 396.128906 L 248.691406 407.964844 L 253.664062 410.863281 L 274.082031 422.738281 L 289.359375 431.632812 L 289.371094 431.632812 L 309.703125 443.464844 L 309.707031 443.464844 L 314.917969 446.503906 L 335.335938 458.386719 L 350.378906 467.144531 Z M 370.71875 478.972656 " fill-opacity="1" fill-rule="nonzero"/></g><g clip-path="url(#b4c533a0fd)"><path fill="#207985" d="M 532.707031 316.679688 L 532.707031 434.566406 L 496.308594 455.582031 L 496.296875 455.589844 L 491.871094 458.144531 L 475.929688 467.351562 L 471.453125 469.929688 L 435.171875 490.882812 L 430.617188 493.507812 L 414.792969 502.648438 L 410.199219 505.296875 L 374.46875 525.929688 L 374.035156 526.179688 L 374.113281 478.972656 L 374.46875 478.777344 L 394.492188 467.210938 L 410.199219 458.140625 L 430.617188 446.355469 L 435.25 443.679688 L 455.625 431.914062 L 455.628906 431.914062 L 471.453125 422.777344 L 491.871094 410.980469 L 491.871094 340.253906 L 527.597656 319.628906 L 527.601562 319.628906 Z M 532.707031 316.679688 " fill-opacity="1" fill-rule="nonzero"/></g><path fill="#42afa8" d="M 413.601562 181.21875 L 408.5 184.167969 L 372.765625 204.796875 L 337.039062 184.167969 L 331.9375 181.21875 L 331.929688 181.21875 L 316.617188 172.378906 L 311.515625 169.433594 L 291.09375 181.21875 L 275.78125 190.058594 L 255.828125 201.585938 L 255.367188 201.316406 L 214.53125 178.273438 L 215.152344 177.914062 L 215.160156 177.914062 L 250.257812 157.644531 L 255.367188 154.695312 L 270.679688 145.855469 L 275.78125 142.910156 L 311.515625 122.277344 L 311.519531 122.277344 L 316.617188 125.222656 L 337.039062 137.015625 L 352.351562 145.855469 L 372.765625 157.644531 L 372.773438 157.644531 L 408.5 178.273438 Z M 413.601562 181.21875 " fill-opacity="1" fill-rule="nonzero"/><path fill="#42afa8" d="M 253.664062 204.148438 L 253.664062 316.367188 L 238.683594 307.652344 L 238.679688 307.652344 L 218.34375 295.808594 L 212.828125 292.601562 L 212.828125 181.109375 Z M 253.664062 204.148438 " fill-opacity="1" fill-rule="nonzero"/><path fill="#5ecebf" d="M 469.75 213.636719 L 428.914062 237.21875 L 408.5 225.421875 L 393.1875 216.585938 L 408.5 207.746094 L 428.914062 195.960938 L 434.023438 193.007812 Z M 469.75 213.636719 " fill-opacity="1" fill-rule="nonzero"/><path fill="#5ecebf" d="M 471.453125 216.476562 L 471.453125 257.738281 L 466.347656 260.679688 L 445.929688 272.472656 L 430.617188 281.316406 L 430.617188 240.050781 Z M 471.453125 216.476562 " fill-opacity="1" fill-rule="nonzero"/><path fill="#42afa8" d="M 531.007812 178.273438 L 490.171875 201.847656 L 469.75 190.058594 L 454.4375 181.21875 L 434.023438 169.433594 L 428.914062 166.484375 L 408.5 154.691406 L 393.191406 145.855469 L 408.5 137.019531 L 408.5 137.015625 L 428.914062 125.222656 L 434.023438 122.277344 L 469.75 142.90625 L 474.859375 145.855469 L 490.171875 154.695312 L 495.273438 157.644531 Z M 531.007812 178.273438 " fill-opacity="1" fill-rule="nonzero"/><path fill="#42afa8" d="M 532.707031 181.109375 L 532.707031 293.101562 L 527.601562 296.050781 L 507.1875 307.835938 L 507.183594 307.835938 L 491.871094 316.679688 L 471.453125 328.46875 L 471.074219 328.691406 L 471.066406 328.691406 L 435.40625 349.277344 L 430.617188 352.050781 L 430.617188 304.890625 L 466.347656 284.265625 L 471.453125 281.316406 L 486.773438 272.472656 L 491.871094 269.527344 L 491.871094 204.683594 Z M 532.707031 181.109375 " fill-opacity="1" fill-rule="nonzero"/><g clip-path="url(#703c0193cd)"><path fill="#207985" d="M 413.601562 39.757812 L 408.5 42.707031 L 372.773438 63.332031 L 372.765625 63.332031 L 352.351562 75.121094 L 337.039062 83.964844 L 316.617188 95.753906 L 311.519531 98.703125 L 291.09375 110.492188 L 275.78125 119.332031 L 255.367188 131.121094 L 250.269531 134.066406 L 229.84375 145.855469 L 214.53125 154.695312 L 194.816406 166.082031 L 194.113281 166.484375 L 153.277344 142.910156 L 154.136719 142.410156 L 154.144531 142.410156 L 189.007812 122.277344 L 189.015625 122.277344 L 194.113281 119.332031 L 209.429688 110.492188 L 214.53125 107.546875 L 250.257812 86.910156 L 250.269531 86.910156 L 255.367188 83.96875 L 270.683594 75.121094 L 275.78125 72.179688 L 311.519531 51.546875 L 316.617188 48.601562 L 331.9375 39.757812 L 337.039062 36.816406 L 372.765625 16.183594 L 372.765625 16.179688 L 372.773438 16.179688 L 408.5 36.808594 Z M 413.601562 39.757812 " fill-opacity="1" fill-rule="nonzero"/></g><g clip-path="url(#cce3517275)"><path fill="#207985" d="M 253.664062 339.984375 L 253.664062 387.234375 L 248.734375 384.363281 L 213.140625 363.652344 L 212.828125 363.472656 L 192.414062 351.589844 L 177.558594 342.945312 L 177.554688 342.945312 L 157.210938 331.105469 L 151.578125 327.820312 L 151.578125 145.746094 L 192.414062 169.320312 L 192.414062 304.34375 L 197.964844 307.574219 L 212.828125 316.226562 L 218.300781 319.414062 L 218.304688 319.414062 Z M 253.664062 339.984375 " fill-opacity="1" fill-rule="nonzero"/></g><g transform="matrix(1, 0, 0, 1, 0, 262)"><g clip-path="url(#d87440736e)"><g clip-path="url(#cb4d251603)"><g transform="matrix(1, 0, 0, 1, 0, 0.000000000000113687)"><g clip-path="url(#45d5a00284)"><g clip-path="url(#e1e891f234)"><g mask="url(#b66fd65c11)"><g transform="matrix(1, 0, 0, 1, 0, 0.000000000000113687)"><g clip-path="url(#422f95322a)"><g clip-path="url(#f52251c66c)"><path fill="url(#f411b32a2f)" d="M 0 29.035156 L 0 742.996094 L 878.070312 742.996094 L 878.070312 29.035156 Z M 0 29.035156 " fill-rule="nonzero"/></g></g></g></g></g></g></g></g></g></g><g transform="matrix(1, 0, 0, 1, 0, 457)"><g clip-path="url(#c82f755e91)"><path fill="#5ecebf" d="M 210.136719 705.933594 L 210.136719 737.007812 L 210.011719 737.078125 L 210.007812 737.078125 L 186.550781 723.410156 L 186.550781 692.191406 L 196.636719 698.066406 L 210.0625 705.886719 Z M 210.136719 705.933594 " fill-opacity="1" fill-rule="nonzero"/><path fill="#5ecebf" d="M 235.964844 692.214844 L 235.964844 723.371094 L 212.382812 737.007812 L 212.382812 705.84375 L 225.761719 698.109375 Z M 235.964844 692.214844 " fill-opacity="1" fill-rule="nonzero"/><path fill="#42afa8" d="M 209.980469 752.671875 L 209.933594 783.871094 L 186.550781 770.242188 L 183.082031 768.222656 L 173.074219 762.390625 L 169.660156 760.402344 L 146.121094 746.691406 L 146.121094 700.003906 L 146.246094 699.925781 L 146.121094 699.859375 L 146.121094 668.636719 L 149.65625 670.691406 L 173.074219 684.339844 L 173.074219 731.171875 L 186.550781 739.019531 L 196.558594 744.851562 L 196.5625 744.851562 Z M 209.980469 752.671875 " fill-opacity="1" fill-rule="nonzero"/><path fill="#42afa8" d="M 276.398438 715.582031 L 276.398438 746.746094 L 252.53125 760.542969 L 252.527344 760.542969 L 249.445312 762.328125 L 239.082031 768.320312 L 235.964844 770.113281 L 212.382812 783.75 L 212.179688 783.871094 L 212.226562 752.671875 L 212.382812 752.585938 L 225.675781 744.902344 L 225.679688 744.902344 L 225.679688 744.898438 L 235.964844 738.953125 L 249.445312 731.160156 L 252.578125 729.351562 L 252.582031 729.351562 L 266.035156 721.574219 Z M 276.398438 715.582031 " fill-opacity="1" fill-rule="nonzero"/><path fill="#207985" d="M 356.136719 577.375 L 329.183594 592.957031 L 315.707031 585.167969 L 305.601562 579.324219 L 292.121094 571.53125 L 288.753906 569.585938 L 275.273438 561.792969 L 265.171875 555.953125 L 265.167969 555.953125 L 251.691406 548.164062 L 248.320312 550.113281 L 238.214844 555.953125 L 234.84375 557.898438 L 211.261719 571.53125 L 211.257812 571.53125 L 187.675781 557.898438 L 184.308594 555.953125 L 187.675781 554.007812 L 211.257812 540.371094 L 211.261719 540.371094 L 224.742188 532.582031 L 234.84375 526.742188 L 248.320312 518.949219 L 251.691406 517.003906 L 275.273438 530.636719 L 278.644531 532.582031 L 288.753906 538.421875 L 292.121094 540.371094 L 315.707031 554.003906 L 319.074219 555.953125 L 329.183594 561.796875 L 332.554688 563.742188 Z M 356.136719 577.375 " fill-opacity="1" fill-rule="nonzero"/><g clip-path="url(#30b7a0323b)"><path fill="#207985" d="M 357.261719 579.246094 L 357.261719 746.746094 L 356.691406 747.074219 L 333.15625 760.679688 L 333.152344 760.679688 L 330.308594 762.324219 L 330.308594 594.828125 Z M 357.261719 579.246094 " fill-opacity="1" fill-rule="nonzero"/></g><path fill="#5ecebf" d="M 197.78125 626.066406 L 187.675781 631.90625 L 174.34375 639.617188 L 174.339844 639.617188 L 147.496094 623.972656 L 170.828125 610.484375 L 174.195312 612.4375 L 187.675781 620.222656 Z M 197.78125 626.066406 " fill-opacity="1" fill-rule="nonzero"/><path fill="#5ecebf" d="M 173.21875 641.488281 L 173.074219 641.574219 L 173.074219 668.726562 L 163.105469 662.914062 L 149.683594 655.09375 L 146.121094 653.019531 L 146.121094 625.992188 L 146.125 625.992188 L 146.371094 625.84375 L 146.375 625.84375 Z M 173.21875 641.488281 " fill-opacity="1" fill-rule="nonzero"/><path fill="#7aeed1" d="M 234.84375 647.628906 L 211.277344 661.183594 L 211.257812 661.175781 L 187.792969 647.558594 L 187.890625 647.507812 L 211.257812 634.136719 L 234.722656 647.558594 Z M 234.84375 647.628906 " fill-opacity="1" fill-rule="nonzero"/><path fill="#7aeed1" d="M 235.964844 649.503906 L 235.964844 676.492188 L 235.847656 676.5625 L 235.753906 676.617188 L 212.382812 689.984375 L 212.382812 663.070312 L 212.398438 663.058594 Z M 235.964844 649.503906 " fill-opacity="1" fill-rule="nonzero"/><path fill="#7aeed1" d="M 210.136719 663.046875 L 210.136719 689.984375 L 186.671875 676.5625 L 186.550781 676.492188 L 186.550781 649.503906 L 186.671875 649.433594 Z M 210.136719 663.046875 " fill-opacity="1" fill-rule="nonzero"/><path fill="#037300" d="M 211.277344 661.183594 L 211.257812 661.191406 L 211.257812 661.175781 Z M 211.277344 661.183594 " fill-opacity="1" fill-rule="nonzero"/><g clip-path="url(#c16d2904fd)"><path fill="#207985" d="M 209.90625 799.460938 L 209.851562 830.65625 L 186.550781 817.078125 L 183.003906 815.011719 L 183 815.011719 L 173.074219 809.230469 L 169.578125 807.195312 L 146.121094 793.527344 L 142.730469 791.554688 L 132.640625 785.671875 L 129.308594 783.726562 L 129.304688 783.726562 L 105.6875 769.96875 L 102.457031 768.085938 L 92.210938 762.117188 L 89.035156 760.265625 L 65.542969 746.578125 L 65.257812 746.414062 L 65.257812 715.191406 L 68.949219 717.34375 L 92.210938 730.890625 L 92.210938 731.160156 L 92.445312 731.027344 L 105.6875 738.742188 L 115.9375 744.714844 L 129.359375 752.535156 L 132.640625 754.449219 L 146.121094 762.300781 L 156.203125 768.175781 L 156.210938 768.175781 L 169.632812 775.996094 L 169.636719 775.996094 L 173.074219 778.003906 L 186.550781 785.855469 L 196.480469 791.644531 Z M 209.90625 799.460938 " fill-opacity="1" fill-rule="nonzero"/></g><g clip-path="url(#4e4d929290)"><path fill="#207985" d="M 316.828125 692.210938 L 316.828125 770.113281 L 292.804688 784.003906 L 292.796875 784.007812 L 289.875 785.695312 L 279.351562 791.78125 L 276.398438 793.484375 L 252.449219 807.332031 L 249.445312 809.066406 L 239 815.105469 L 235.964844 816.859375 L 212.382812 830.492188 L 212.097656 830.65625 L 212.148438 799.460938 L 212.382812 799.332031 L 225.601562 791.6875 L 235.964844 785.695312 L 249.445312 777.90625 L 252.503906 776.136719 L 265.949219 768.363281 L 265.953125 768.363281 L 276.398438 762.324219 L 289.875 754.53125 L 289.875 707.789062 L 313.457031 694.160156 L 313.460938 694.160156 Z M 316.828125 692.210938 " fill-opacity="1" fill-rule="nonzero"/></g><path fill="#42afa8" d="M 238.214844 602.695312 L 234.84375 604.640625 L 211.257812 618.273438 L 187.675781 604.640625 L 184.308594 602.695312 L 184.304688 602.695312 L 174.195312 596.851562 L 170.828125 594.90625 L 157.351562 602.695312 L 147.242188 608.535156 L 134.070312 616.152344 L 133.765625 615.972656 L 106.8125 600.75 L 107.222656 600.511719 L 107.226562 600.511719 L 130.394531 587.113281 L 133.765625 585.167969 L 143.875 579.324219 L 147.242188 577.378906 L 170.828125 563.742188 L 170.832031 563.742188 L 174.195312 565.691406 L 187.675781 573.480469 L 197.78125 579.324219 L 211.257812 587.113281 L 211.261719 587.113281 L 234.84375 600.75 Z M 238.214844 602.695312 " fill-opacity="1" fill-rule="nonzero"/><path fill="#42afa8" d="M 132.640625 617.847656 L 132.640625 692.003906 L 122.753906 686.246094 L 109.328125 678.417969 L 105.6875 676.296875 L 105.6875 602.621094 Z M 132.640625 617.847656 " fill-opacity="1" fill-rule="nonzero"/><path fill="#5ecebf" d="M 275.273438 624.117188 L 248.320312 639.699219 L 234.84375 631.90625 L 224.738281 626.066406 L 234.84375 620.222656 L 248.320312 612.4375 L 251.691406 610.484375 Z M 275.273438 624.117188 " fill-opacity="1" fill-rule="nonzero"/><path fill="#5ecebf" d="M 276.398438 625.992188 L 276.398438 653.261719 L 273.027344 655.207031 L 259.554688 662.996094 L 249.445312 668.84375 L 249.445312 641.574219 Z M 276.398438 625.992188 " fill-opacity="1" fill-rule="nonzero"/><path fill="#42afa8" d="M 315.707031 600.75 L 288.753906 616.328125 L 275.273438 608.535156 L 265.167969 602.695312 L 251.691406 594.90625 L 248.320312 592.957031 L 234.84375 585.164062 L 224.742188 579.324219 L 234.84375 573.484375 L 234.84375 573.480469 L 248.320312 565.691406 L 251.691406 563.742188 L 275.273438 577.375 L 278.644531 579.324219 L 288.753906 585.167969 L 292.121094 587.113281 Z M 315.707031 600.75 " fill-opacity="1" fill-rule="nonzero"/><path fill="#42afa8" d="M 316.828125 602.621094 L 316.828125 676.628906 L 313.460938 678.578125 L 299.984375 686.367188 L 289.875 692.210938 L 276.398438 700.003906 L 276.148438 700.148438 L 276.144531 700.148438 L 252.605469 713.753906 L 249.445312 715.585938 L 249.445312 684.421875 L 273.027344 670.792969 L 286.511719 662.996094 L 289.875 661.050781 L 289.875 618.199219 Z M 316.828125 602.621094 " fill-opacity="1" fill-rule="nonzero"/><g clip-path="url(#de58dcdd15)"><path fill="#207985" d="M 238.214844 509.210938 L 234.84375 511.160156 L 211.261719 524.789062 L 211.257812 524.789062 L 197.78125 532.582031 L 187.675781 538.421875 L 174.195312 546.214844 L 170.832031 548.164062 L 157.351562 555.953125 L 147.242188 561.796875 L 133.765625 569.585938 L 130.402344 571.53125 L 116.921875 579.324219 L 106.8125 585.167969 L 93.800781 592.691406 L 93.335938 592.957031 L 66.378906 577.378906 L 66.949219 577.046875 L 66.953125 577.046875 L 89.964844 563.742188 L 89.96875 563.742188 L 93.335938 561.796875 L 103.445312 555.953125 L 106.8125 554.007812 L 130.394531 540.371094 L 130.402344 540.371094 L 133.765625 538.425781 L 143.878906 532.582031 L 147.242188 530.636719 L 170.832031 517.003906 L 174.195312 515.054688 L 184.308594 509.210938 L 187.675781 507.265625 L 211.257812 493.632812 L 211.257812 493.628906 L 211.261719 493.628906 L 234.84375 507.261719 Z M 238.214844 509.210938 " fill-opacity="1" fill-rule="nonzero"/></g><g clip-path="url(#33cfa79dff)"><path fill="#207985" d="M 132.640625 707.609375 L 132.640625 738.835938 L 129.386719 736.941406 L 105.894531 723.25 L 105.6875 723.132812 L 92.210938 715.28125 L 82.410156 709.570312 L 82.40625 709.570312 L 68.976562 701.746094 L 65.257812 699.574219 L 65.257812 579.25 L 92.210938 594.828125 L 92.210938 684.058594 L 95.878906 686.195312 L 105.6875 691.910156 L 109.300781 694.019531 L 109.304688 694.019531 Z M 132.640625 707.609375 " fill-opacity="1" fill-rule="nonzero"/></g><g clip-path="url(#a3055ecaf3)"><g transform="matrix(1, 0, 0, 1, 0, 0.000000000000113687)"><g clip-path="url(#8cbe26da5e)"><g clip-path="url(#9d0c0efab7)"><g transform="matrix(1, 0, 0, 1, 0, 1)"><g clip-path="url(#fd8fa02811)"><g clip-path="url(#8159f86232)"><g mask="url(#a13a92d4db)"><g transform="matrix(1, 0, 0, 1, 0, 0.000000000000113687)"><g clip-path="url(#76484dd216)"><g clip-path="url(#e3844a59bf)"><path fill="url(#04603f5da5)" d="M 0 0.136719 L 0 1042 L 1500 1042 L 1500 0.136719 Z M 0 0.136719 " fill-rule="nonzero"/></g></g></g></g></g></g></g></g></g></g></g></g></g><path fill="#5ecebf" d="M 1122.511719 468.308594 L 1122.511719 534.484375 L 1122.246094 534.640625 L 1122.238281 534.640625 L 1072.242188 505.53125 L 1072.242188 439.046875 L 1093.738281 451.554688 L 1122.347656 468.214844 Z M 1122.511719 468.308594 " fill-opacity="1" fill-rule="nonzero"/><path fill="#5ecebf" d="M 1177.558594 439.097656 L 1177.558594 505.453125 L 1127.296875 534.484375 L 1127.296875 468.125 L 1155.8125 451.652344 Z M 1177.558594 439.097656 " fill-opacity="1" fill-rule="nonzero"/><path fill="#42afa8" d="M 1122.179688 567.847656 L 1122.078125 634.289062 L 1072.242188 605.269531 L 1064.851562 600.964844 L 1043.523438 588.542969 L 1036.242188 584.3125 L 986.078125 555.109375 L 986.078125 455.683594 L 986.34375 455.519531 L 986.078125 455.375 L 986.078125 388.878906 L 993.609375 393.257812 L 1043.523438 422.320312 L 1043.523438 522.058594 L 1072.242188 538.777344 L 1093.570312 551.195312 L 1093.578125 551.195312 Z M 1122.179688 567.847656 " fill-opacity="1" fill-rule="nonzero"/><path fill="#42afa8" d="M 1263.730469 488.859375 L 1263.730469 555.226562 L 1212.859375 584.617188 L 1212.851562 584.617188 L 1206.285156 588.414062 L 1184.199219 601.171875 L 1177.558594 604.996094 L 1127.296875 634.03125 L 1126.863281 634.289062 L 1126.96875 567.847656 L 1127.296875 567.664062 L 1155.628906 551.300781 L 1155.636719 551.300781 L 1155.636719 551.292969 L 1177.558594 538.636719 L 1206.285156 522.035156 L 1212.964844 518.179688 L 1212.972656 518.179688 L 1241.636719 501.617188 L 1241.644531 501.617188 Z M 1263.730469 488.859375 " fill-opacity="1" fill-rule="nonzero"/><path fill="#207985" d="M 1433.671875 194.527344 L 1376.226562 227.710938 L 1347.507812 211.121094 L 1325.964844 198.679688 L 1297.238281 182.085938 L 1290.0625 177.945312 L 1261.335938 161.34375 L 1239.800781 148.910156 L 1239.792969 148.910156 L 1211.074219 132.316406 L 1203.886719 136.46875 L 1182.347656 148.910156 L 1175.167969 153.050781 L 1124.90625 182.085938 L 1124.902344 182.085938 L 1074.640625 153.050781 L 1067.460938 148.910156 L 1074.640625 144.765625 L 1124.902344 115.726562 L 1124.90625 115.726562 L 1153.632812 99.132812 L 1175.167969 86.699219 L 1203.886719 70.097656 L 1211.074219 65.957031 L 1261.335938 94.992188 L 1268.519531 99.132812 L 1290.0625 111.574219 L 1297.238281 115.726562 L 1347.507812 144.757812 L 1354.683594 148.910156 L 1376.226562 161.351562 L 1383.410156 165.492188 Z M 1433.671875 194.527344 " fill-opacity="1" fill-rule="nonzero"/><g clip-path="url(#62040bc9b2)"><path fill="#207985" d="M 1436.070312 198.515625 L 1436.070312 555.226562 L 1434.855469 555.925781 L 1384.691406 584.902344 L 1384.683594 584.902344 L 1378.625 588.40625 L 1378.625 231.699219 Z M 1436.070312 198.515625 " fill-opacity="1" fill-rule="nonzero"/></g><path fill="#5ecebf" d="M 1096.179688 298.222656 L 1074.640625 310.660156 L 1046.230469 327.082031 L 1046.214844 327.082031 L 989.011719 293.765625 L 1038.734375 265.039062 L 1045.914062 269.195312 L 1074.640625 285.78125 Z M 1096.179688 298.222656 " fill-opacity="1" fill-rule="nonzero"/><path fill="#5ecebf" d="M 1043.824219 331.070312 L 1043.523438 331.246094 L 1043.523438 389.070312 L 1022.277344 376.695312 L 993.667969 360.042969 L 986.078125 355.621094 L 986.078125 298.070312 L 986.085938 298.070312 L 986.613281 297.753906 L 986.621094 297.753906 Z M 1043.824219 331.070312 " fill-opacity="1" fill-rule="nonzero"/><path fill="#7aeed1" d="M 1175.167969 344.144531 L 1124.9375 373.007812 L 1124.902344 372.996094 L 1074.890625 343.996094 L 1075.097656 343.886719 L 1124.902344 315.410156 L 1174.910156 343.996094 Z M 1175.167969 344.144531 " fill-opacity="1" fill-rule="nonzero"/><path fill="#7aeed1" d="M 1177.558594 348.140625 L 1177.558594 405.613281 L 1177.308594 405.757812 L 1177.101562 405.878906 L 1127.296875 434.34375 L 1127.296875 377.027344 L 1127.328125 377.003906 Z M 1177.558594 348.140625 " fill-opacity="1" fill-rule="nonzero"/><path fill="#7aeed1" d="M 1122.511719 376.984375 L 1122.511719 434.34375 L 1072.5 405.757812 L 1072.242188 405.613281 L 1072.242188 348.140625 L 1072.5 347.984375 Z M 1122.511719 376.984375 " fill-opacity="1" fill-rule="nonzero"/><path fill="#037300" d="M 1124.9375 373.007812 L 1124.902344 373.03125 L 1124.902344 372.996094 Z M 1124.9375 373.007812 " fill-opacity="1" fill-rule="nonzero"/><g clip-path="url(#0332bb30e6)"><path fill="#207985" d="M 1122.019531 667.496094 L 1121.898438 733.929688 L 1072.242188 705.011719 L 1064.683594 700.613281 L 1064.675781 700.613281 L 1043.523438 688.296875 L 1036.074219 683.960938 L 986.078125 654.855469 L 978.847656 650.652344 L 957.351562 638.128906 L 950.246094 633.988281 L 950.238281 633.988281 L 899.90625 604.6875 L 893.019531 600.679688 L 871.183594 587.964844 L 864.410156 584.019531 L 814.34375 554.875 L 813.738281 554.523438 L 813.738281 488.027344 L 821.609375 492.613281 L 871.183594 521.460938 L 871.183594 522.035156 L 871.679688 521.757812 L 899.90625 538.1875 L 921.746094 550.902344 L 950.355469 567.558594 L 957.351562 571.636719 L 986.078125 588.351562 L 1007.566406 600.871094 L 1007.582031 600.871094 L 1036.183594 617.519531 L 1036.191406 617.519531 L 1043.523438 621.796875 L 1072.242188 638.519531 L 1093.410156 650.84375 Z M 1122.019531 667.496094 " fill-opacity="1" fill-rule="nonzero"/></g><g clip-path="url(#d293b27995)"><path fill="#207985" d="M 1349.898438 439.089844 L 1349.898438 604.996094 L 1298.695312 634.574219 L 1298.679688 634.582031 L 1292.449219 638.179688 L 1270.027344 651.136719 L 1263.730469 654.765625 L 1212.691406 684.257812 L 1206.285156 687.949219 L 1184.023438 700.8125 L 1177.558594 704.542969 L 1127.296875 733.578125 L 1126.6875 733.929688 L 1126.796875 667.496094 L 1127.296875 667.214844 L 1155.464844 650.941406 L 1177.558594 638.171875 L 1206.285156 621.589844 L 1212.800781 617.820312 L 1241.460938 601.265625 L 1241.46875 601.265625 L 1263.730469 588.40625 L 1292.449219 571.804688 L 1292.449219 472.265625 L 1342.710938 443.242188 L 1342.71875 443.242188 Z M 1349.898438 439.089844 " fill-opacity="1" fill-rule="nonzero"/></g><path fill="#42afa8" d="M 1182.347656 248.445312 L 1175.167969 252.597656 L 1124.902344 281.632812 L 1074.640625 252.597656 L 1067.460938 248.445312 L 1067.453125 248.445312 L 1045.914062 236.003906 L 1038.734375 231.863281 L 1010.007812 248.445312 L 988.46875 260.890625 L 960.394531 277.113281 L 959.75 276.730469 L 902.300781 244.304688 L 903.175781 243.796875 L 903.183594 243.796875 L 952.5625 215.269531 L 959.75 211.121094 L 981.289062 198.679688 L 988.46875 194.535156 L 1038.734375 165.492188 L 1038.742188 165.492188 L 1045.914062 169.644531 L 1074.640625 186.234375 L 1096.179688 198.679688 L 1124.902344 215.269531 L 1124.90625 215.269531 L 1175.167969 244.304688 Z M 1182.347656 248.445312 " fill-opacity="1" fill-rule="nonzero"/><path fill="#42afa8" d="M 957.351562 280.71875 L 957.351562 438.648438 L 936.28125 426.382812 L 936.273438 426.382812 L 907.664062 409.71875 L 899.90625 405.199219 L 899.90625 248.292969 Z M 957.351562 280.71875 " fill-opacity="1" fill-rule="nonzero"/><path fill="#5ecebf" d="M 1261.335938 294.074219 L 1203.886719 327.257812 L 1175.167969 310.660156 L 1153.628906 298.222656 L 1175.167969 285.78125 L 1203.886719 269.195312 L 1211.074219 265.039062 Z M 1261.335938 294.074219 " fill-opacity="1" fill-rule="nonzero"/><path fill="#5ecebf" d="M 1263.730469 298.070312 L 1263.730469 356.136719 L 1256.546875 360.28125 L 1227.828125 376.871094 L 1206.285156 389.320312 L 1206.285156 331.246094 Z M 1263.730469 298.070312 " fill-opacity="1" fill-rule="nonzero"/><path fill="#42afa8" d="M 1347.507812 244.304688 L 1290.0625 277.480469 L 1261.335938 260.890625 L 1239.792969 248.445312 L 1211.074219 231.863281 L 1203.886719 227.710938 L 1175.167969 211.113281 L 1153.632812 198.679688 L 1175.167969 186.242188 L 1175.167969 186.234375 L 1203.886719 169.644531 L 1211.074219 165.492188 L 1261.335938 194.527344 L 1268.519531 198.679688 L 1290.0625 211.121094 L 1297.238281 215.269531 Z M 1347.507812 244.304688 " fill-opacity="1" fill-rule="nonzero"/><path fill="#42afa8" d="M 1349.898438 248.292969 L 1349.898438 405.90625 L 1342.71875 410.054688 L 1314 426.640625 L 1313.992188 426.640625 L 1292.449219 439.089844 L 1263.730469 455.683594 L 1263.195312 455.992188 L 1263.1875 455.992188 L 1213.023438 484.96875 L 1206.285156 488.867188 L 1206.285156 422.5 L 1256.546875 393.472656 L 1263.730469 389.320312 L 1285.28125 376.871094 L 1292.449219 372.730469 L 1292.449219 281.46875 Z M 1349.898438 248.292969 " fill-opacity="1" fill-rule="nonzero"/><g clip-path="url(#f3f11a5621)"><path fill="#207985" d="M 1182.347656 49.363281 L 1175.167969 53.515625 L 1124.90625 82.539062 L 1124.902344 82.539062 L 1096.179688 99.132812 L 1074.640625 111.574219 L 1045.914062 128.167969 L 1038.742188 132.316406 L 1010.007812 148.910156 L 988.46875 161.351562 L 959.75 177.945312 L 952.578125 182.085938 L 923.84375 198.679688 L 902.300781 211.121094 L 874.566406 227.144531 L 873.574219 227.710938 L 816.128906 194.535156 L 817.34375 193.828125 L 817.351562 193.828125 L 866.398438 165.492188 L 866.40625 165.492188 L 873.574219 161.351562 L 895.125 148.910156 L 902.300781 144.765625 L 952.5625 115.726562 L 952.578125 115.726562 L 959.75 111.582031 L 981.296875 99.132812 L 988.46875 94.992188 L 1038.742188 65.957031 L 1045.914062 61.804688 L 1067.460938 49.363281 L 1074.640625 45.222656 L 1124.902344 16.1875 L 1124.902344 16.179688 L 1124.90625 16.179688 L 1175.167969 45.214844 Z M 1182.347656 49.363281 " fill-opacity="1" fill-rule="nonzero"/></g><g clip-path="url(#81380bd296)"><path fill="#207985" d="M 957.351562 471.886719 L 957.351562 538.386719 L 950.414062 534.347656 L 900.347656 505.195312 L 899.90625 504.945312 L 871.183594 488.21875 L 850.292969 476.058594 L 850.285156 476.058594 L 821.667969 459.390625 L 813.738281 454.769531 L 813.738281 198.523438 L 871.183594 231.699219 L 871.183594 421.726562 L 878.996094 426.273438 L 899.90625 438.449219 L 907.605469 442.9375 L 907.613281 442.9375 Z M 957.351562 471.886719 " fill-opacity="1" fill-rule="nonzero"/></g></svg>