<svg xmlns="http://www.w3.org/2000/svg" xmlns:xlink="http://www.w3.org/1999/xlink" width="2000" zoomAndPan="magnify" viewBox="0 0 1500 1499.999933" height="2000" preserveAspectRatio="xMidYMid meet" version="1.0"><defs><clipPath id="0e19ec6dbb"><path d="M 1270 388 L 1388.320312 388 L 1388.320312 1188 L 1270 1188 Z M 1270 388 " clip-rule="nonzero"/></clipPath><clipPath id="131a1d8142"><path d="M 111.820312 981 L 745 981 L 745 1485.257812 L 111.820312 1485.257812 Z M 111.820312 981 " clip-rule="nonzero"/></clipPath><clipPath id="4c1f141d0f"><path d="M 753 881 L 1212 881 L 1212 1485.257812 L 753 1485.257812 Z M 753 881 " clip-rule="nonzero"/></clipPath><clipPath id="ca516580e7"><path d="M 116 14.507812 L 868 14.507812 L 868 448 L 116 448 Z M 116 14.507812 " clip-rule="nonzero"/></clipPath><clipPath id="6cadb675e8"><path d="M 111.820312 388 L 407 388 L 407 1085 L 111.820312 1085 Z M 111.820312 388 " clip-rule="nonzero"/></clipPath></defs><path fill="#5ecebf" d="M 745.160156 940.972656 L 745.160156 1076.578125 L 744.617188 1076.894531 L 744.601562 1076.894531 L 642.082031 1017.246094 L 642.082031 881.011719 L 686.164062 906.640625 L 744.828125 940.777344 Z M 745.160156 940.972656 " fill-opacity="1" fill-rule="nonzero"/><path fill="#5ecebf" d="M 858.042969 881.117188 L 858.042969 1017.082031 L 754.980469 1076.578125 L 754.980469 940.59375 L 813.449219 906.835938 Z M 858.042969 881.117188 " fill-opacity="1" fill-rule="nonzero"/><path fill="#42afa8" d="M 744.484375 1144.9375 L 744.269531 1281.082031 L 642.082031 1221.621094 L 626.925781 1212.800781 L 583.191406 1187.347656 L 568.257812 1178.679688 L 465.390625 1118.839844 L 465.390625 915.101562 L 465.933594 914.769531 L 465.390625 914.464844 L 465.390625 778.214844 L 480.835938 787.183594 L 583.191406 846.738281 L 583.191406 1051.109375 L 642.082031 1085.367188 L 685.816406 1110.816406 L 685.832031 1110.816406 Z M 744.484375 1144.9375 " fill-opacity="1" fill-rule="nonzero"/><path fill="#42afa8" d="M 1034.75 983.082031 L 1034.75 1119.078125 L 930.433594 1179.296875 L 930.417969 1179.296875 L 916.949219 1187.078125 L 871.660156 1213.222656 L 858.042969 1221.0625 L 754.980469 1280.554688 L 754.089844 1281.082031 L 754.300781 1144.9375 L 754.980469 1144.558594 L 813.070312 1111.027344 L 813.085938 1111.027344 L 813.085938 1111.011719 L 858.042969 1085.082031 L 916.949219 1051.066406 L 930.644531 1043.164062 L 930.660156 1043.164062 L 989.445312 1009.226562 L 989.460938 1009.226562 Z M 1034.75 983.082031 " fill-opacity="1" fill-rule="nonzero"/><path fill="#207985" d="M 1383.230469 379.964844 L 1265.429688 447.964844 L 1206.539062 413.964844 L 1162.367188 388.46875 L 1103.457031 354.46875 L 1088.738281 345.980469 L 1029.832031 311.96875 L 985.675781 286.488281 L 985.660156 286.488281 L 926.769531 252.488281 L 912.035156 260.992188 L 867.863281 286.488281 L 853.140625 294.976562 L 750.078125 354.46875 L 750.0625 354.46875 L 647 294.976562 L 632.277344 286.488281 L 647 278 L 750.0625 218.488281 L 750.078125 218.488281 L 808.984375 184.488281 L 853.140625 159.007812 L 912.035156 124.996094 L 926.769531 116.507812 L 1029.832031 176 L 1044.566406 184.488281 L 1088.738281 209.984375 L 1103.457031 218.488281 L 1206.539062 277.984375 L 1221.257812 286.488281 L 1265.429688 311.980469 L 1280.164062 320.46875 Z M 1383.230469 379.964844 " fill-opacity="1" fill-rule="nonzero"/><g clip-path="url(#0e19ec6dbb)"><path fill="#207985" d="M 1388.144531 388.136719 L 1388.144531 1119.078125 L 1385.65625 1120.511719 L 1282.789062 1179.886719 L 1282.773438 1179.886719 L 1270.347656 1187.0625 L 1270.347656 456.136719 Z M 1388.144531 388.136719 " fill-opacity="1" fill-rule="nonzero"/></g><path fill="#5ecebf" d="M 691.171875 592.449219 L 647 617.929688 L 588.738281 651.582031 L 588.710938 651.582031 L 471.410156 583.3125 L 573.371094 524.449219 L 588.089844 532.96875 L 647 566.953125 Z M 691.171875 592.449219 " fill-opacity="1" fill-rule="nonzero"/><path fill="#5ecebf" d="M 583.808594 659.753906 L 583.191406 660.113281 L 583.191406 778.605469 L 539.621094 753.246094 L 480.953125 719.125 L 465.390625 710.066406 L 465.390625 592.132812 L 465.40625 592.132812 L 466.492188 591.484375 L 466.507812 591.484375 Z M 583.808594 659.753906 " fill-opacity="1" fill-rule="nonzero"/><path fill="#7aeed1" d="M 853.140625 686.542969 L 750.136719 745.691406 L 750.0625 745.664062 L 647.511719 686.242188 L 647.933594 686.015625 L 750.0625 627.667969 L 852.613281 686.242188 Z M 853.140625 686.542969 " fill-opacity="1" fill-rule="nonzero"/><path fill="#7aeed1" d="M 858.042969 694.730469 L 858.042969 812.5 L 857.53125 812.800781 L 857.109375 813.042969 L 754.980469 871.375 L 754.980469 753.925781 L 755.039062 753.878906 Z M 858.042969 694.730469 " fill-opacity="1" fill-rule="nonzero"/><path fill="#7aeed1" d="M 745.160156 753.835938 L 745.160156 871.375 L 642.609375 812.800781 L 642.082031 812.5 L 642.082031 694.730469 L 642.609375 694.414062 Z M 745.160156 753.835938 " fill-opacity="1" fill-rule="nonzero"/><path fill="#037300" d="M 750.136719 745.691406 L 750.0625 745.738281 L 750.0625 745.664062 Z M 750.136719 745.691406 " fill-opacity="1" fill-rule="nonzero"/><g clip-path="url(#131a1d8142)"><path fill="#207985" d="M 744.152344 1349.128906 L 743.910156 1485.257812 L 642.082031 1426.003906 L 626.578125 1416.988281 L 626.5625 1416.988281 L 583.191406 1391.75 L 567.914062 1382.871094 L 465.390625 1323.222656 L 450.566406 1314.617188 L 406.484375 1288.953125 L 391.914062 1280.464844 L 391.902344 1280.464844 L 288.683594 1220.429688 L 274.570312 1212.210938 L 229.792969 1186.15625 L 215.902344 1178.078125 L 113.230469 1118.355469 L 111.996094 1117.632812 L 111.996094 981.378906 L 128.132812 990.773438 L 229.792969 1049.890625 L 229.792969 1051.066406 L 230.804688 1050.492188 L 288.683594 1084.160156 L 333.476562 1110.214844 L 392.140625 1144.347656 L 406.484375 1152.703125 L 465.390625 1186.957031 L 509.457031 1212.601562 L 509.488281 1212.601562 L 568.140625 1246.722656 L 568.152344 1246.722656 L 583.191406 1255.484375 L 642.082031 1289.753906 L 685.484375 1315.007812 Z M 744.152344 1349.128906 " fill-opacity="1" fill-rule="nonzero"/></g><g clip-path="url(#4c1f141d0f)"><path fill="#207985" d="M 1211.441406 881.101562 L 1211.441406 1221.0625 L 1106.445312 1281.671875 L 1106.414062 1281.6875 L 1093.640625 1289.058594 L 1047.660156 1315.609375 L 1034.75 1323.042969 L 930.085938 1383.472656 L 916.949219 1391.042969 L 871.300781 1417.394531 L 858.042969 1425.039062 L 754.980469 1484.535156 L 753.726562 1485.257812 L 753.953125 1349.128906 L 754.980469 1348.554688 L 812.738281 1315.203125 L 858.042969 1289.042969 L 916.949219 1255.058594 L 930.3125 1247.339844 L 989.082031 1213.417969 L 989.097656 1213.417969 L 1034.75 1187.0625 L 1093.640625 1153.046875 L 1093.640625 949.082031 L 1196.707031 889.605469 L 1196.71875 889.605469 Z M 1211.441406 881.101562 " fill-opacity="1" fill-rule="nonzero"/></g><path fill="#42afa8" d="M 867.863281 490.449219 L 853.140625 498.953125 L 750.0625 558.449219 L 647 498.953125 L 632.277344 490.449219 L 632.265625 490.449219 L 588.089844 464.957031 L 573.371094 456.464844 L 514.464844 490.449219 L 470.292969 515.945312 L 412.726562 549.191406 L 411.402344 548.40625 L 293.601562 481.960938 L 295.398438 480.921875 L 295.410156 480.921875 L 396.667969 422.46875 L 411.402344 413.964844 L 455.574219 388.46875 L 470.292969 379.980469 L 573.371094 320.46875 L 573.386719 320.46875 L 588.089844 328.972656 L 647 362.972656 L 691.171875 388.46875 L 750.0625 422.46875 L 750.078125 422.46875 L 853.140625 481.960938 Z M 867.863281 490.449219 " fill-opacity="1" fill-rule="nonzero"/><path fill="#42afa8" d="M 406.484375 556.578125 L 406.484375 880.195312 L 363.277344 855.0625 L 363.261719 855.0625 L 304.597656 820.914062 L 288.683594 811.65625 L 288.683594 490.132812 Z M 406.484375 556.578125 " fill-opacity="1" fill-rule="nonzero"/><path fill="#5ecebf" d="M 1029.832031 583.945312 L 912.035156 651.941406 L 853.140625 617.929688 L 808.96875 592.449219 L 853.140625 566.953125 L 912.035156 532.96875 L 926.769531 524.449219 Z M 1029.832031 583.945312 " fill-opacity="1" fill-rule="nonzero"/><path fill="#5ecebf" d="M 1034.75 592.132812 L 1034.75 711.121094 L 1020.015625 719.609375 L 961.125 753.609375 L 916.949219 779.117188 L 916.949219 660.113281 Z M 1034.75 592.132812 " fill-opacity="1" fill-rule="nonzero"/><path fill="#42afa8" d="M 1206.539062 481.960938 L 1088.738281 549.945312 L 1029.832031 515.945312 L 985.660156 490.449219 L 926.769531 456.464844 L 912.035156 447.964844 L 853.140625 413.949219 L 808.984375 388.46875 L 853.140625 362.988281 L 853.140625 362.972656 L 912.035156 328.972656 L 926.769531 320.46875 L 1029.832031 379.964844 L 1044.566406 388.46875 L 1088.738281 413.964844 L 1103.457031 422.46875 Z M 1206.539062 481.960938 " fill-opacity="1" fill-rule="nonzero"/><path fill="#42afa8" d="M 1211.441406 490.132812 L 1211.441406 813.101562 L 1196.71875 821.605469 L 1137.828125 855.589844 L 1137.8125 855.589844 L 1093.640625 881.101562 L 1034.75 915.101562 L 1033.648438 915.734375 L 1033.632812 915.734375 L 930.765625 975.105469 L 916.949219 983.097656 L 916.949219 847.101562 L 1020.015625 787.621094 L 1034.75 779.117188 L 1078.9375 753.609375 L 1093.640625 745.121094 L 1093.640625 558.117188 Z M 1211.441406 490.132812 " fill-opacity="1" fill-rule="nonzero"/><g clip-path="url(#ca516580e7)"><path fill="#207985" d="M 867.863281 82.507812 L 853.140625 91.011719 L 750.078125 150.492188 L 750.0625 150.492188 L 691.171875 184.488281 L 647 209.984375 L 588.089844 243.984375 L 573.386719 252.488281 L 514.464844 286.488281 L 470.292969 311.980469 L 411.402344 345.980469 L 396.695312 354.46875 L 337.773438 388.46875 L 293.601562 413.964844 L 236.730469 446.800781 L 234.695312 447.964844 L 116.894531 379.980469 L 119.382812 378.53125 L 119.398438 378.53125 L 219.976562 320.46875 L 219.992188 320.46875 L 234.695312 311.980469 L 278.882812 286.488281 L 293.601562 278 L 396.667969 218.488281 L 396.695312 218.488281 L 411.402344 210 L 455.589844 184.488281 L 470.292969 176 L 573.386719 116.507812 L 588.089844 108.003906 L 632.277344 82.507812 L 647 74.019531 L 750.0625 14.523438 L 750.0625 14.507812 L 750.078125 14.507812 L 853.140625 74.003906 Z M 867.863281 82.507812 " fill-opacity="1" fill-rule="nonzero"/></g><g clip-path="url(#6cadb675e8)"><path fill="#207985" d="M 406.484375 948.300781 L 406.484375 1084.566406 L 392.261719 1076.289062 L 289.589844 1016.554688 L 288.683594 1016.042969 L 229.792969 981.769531 L 186.949219 956.847656 L 186.933594 956.847656 L 128.253906 922.699219 L 111.996094 913.230469 L 111.996094 388.152344 L 229.792969 456.136719 L 229.792969 845.519531 L 245.808594 854.835938 L 288.683594 879.789062 L 304.476562 888.984375 L 304.492188 888.984375 Z M 406.484375 948.300781 " fill-opacity="1" fill-rule="nonzero"/></g></svg>