<svg xmlns="http://www.w3.org/2000/svg" xmlns:xlink="http://www.w3.org/1999/xlink" width="2000" zoomAndPan="magnify" viewBox="0 0 1500 1499.999933" height="2000" preserveAspectRatio="xMidYMid meet" version="1.0"><defs><filter x="0%" y="0%" width="100%" height="100%" id="4291a02e71"><feColorMatrix values="0 0 0 0 1 0 0 0 0 1 0 0 0 0 1 0 0 0 1 0" color-interpolation-filters="sRGB"/></filter><g/><clipPath id="e744382d2a"><path d="M 330 578 L 357.304688 578 L 357.304688 763 L 330 763 Z M 330 578 " clip-rule="nonzero"/></clipPath><clipPath id="95b957714e"><path d="M 65.214844 714 L 210 714 L 210 830.34375 L 65.214844 830.34375 Z M 65.214844 714 " clip-rule="nonzero"/></clipPath><clipPath id="0d9c0f0cb4"><path d="M 212 691 L 317 691 L 317 830.34375 L 212 830.34375 Z M 212 691 " clip-rule="nonzero"/></clipPath><clipPath id="90d6c2d34a"><path d="M 66 493.316406 L 239 493.316406 L 239 593 L 66 593 Z M 66 493.316406 " clip-rule="nonzero"/></clipPath><clipPath id="e3f51b4a25"><path d="M 65.214844 578 L 133 578 L 133 739 L 65.214844 739 Z M 65.214844 578 " clip-rule="nonzero"/></clipPath><clipPath id="5b81c3712a"><path d="M 0 0.601562 L 1500 0.601562 L 1500 1409.398438 L 0 1409.398438 Z M 0 0.601562 " clip-rule="nonzero"/></clipPath><clipPath id="902f71e9b1"><path d="M 0 0.820312 L 1500 0.820312 L 1500 1409.363281 L 0 1409.363281 Z M 0 0.820312 " clip-rule="nonzero"/></clipPath><clipPath id="042d21a2c5"><path d="M 0 0.820312 L 1500 0.820312 L 1500 1409.363281 L 0 1409.363281 Z M 0 0.820312 " clip-rule="nonzero"/></clipPath><clipPath id="8114d68393"><path d="M 0 0.820312 L 1500 0.820312 L 1500 1409.363281 L 0 1409.363281 Z M 0 0.820312 " clip-rule="nonzero"/></clipPath><radialGradient gradientTransform="matrix(0.999541, 0, 0, 1.000459, 464.103089, 627.019385)" gradientUnits="userSpaceOnUse" r="503.134642" cx="478.290795" id="46a08a1bea" cy="77.25184" fx="478.290795" fy="77.25184"><stop stop-opacity="1" stop-color="rgb(47.709656%, 93.180847%, 81.87561%)" offset="0"/><stop stop-opacity="1" stop-color="rgb(47.517395%, 92.961121%, 81.752014%)" offset="0.0078125"/><stop stop-opacity="1" stop-color="rgb(47.387695%, 92.81311%, 81.669617%)" offset="0.0117188"/><stop stop-opacity="1" stop-color="rgb(47.259521%, 92.666626%, 81.585693%)" offset="0.015625"/><stop stop-opacity="1" stop-color="rgb(47.129822%, 92.518616%, 81.503296%)" offset="0.0195312"/><stop stop-opacity="1" stop-color="rgb(47.001648%, 92.372131%, 81.420898%)" offset="0.0234375"/><stop stop-opacity="1" stop-color="rgb(46.873474%, 92.224121%, 81.338501%)" offset="0.0273438"/><stop stop-opacity="1" stop-color="rgb(46.743774%, 92.077637%, 81.254578%)" offset="0.03125"/><stop stop-opacity="1" stop-color="rgb(46.615601%, 91.929626%, 81.17218%)" offset="0.0351562"/><stop stop-opacity="1" stop-color="rgb(46.485901%, 91.783142%, 81.089783%)" offset="0.0390625"/><stop stop-opacity="1" stop-color="rgb(46.357727%, 91.635132%, 81.007385%)" offset="0.0429688"/><stop stop-opacity="1" stop-color="rgb(46.229553%, 91.488647%, 80.923462%)" offset="0.046875"/><stop stop-opacity="1" stop-color="rgb(46.099854%, 91.342163%, 80.841064%)" offset="0.0507812"/><stop stop-opacity="1" stop-color="rgb(45.97168%, 91.194153%, 80.758667%)" offset="0.0546875"/><stop stop-opacity="1" stop-color="rgb(45.84198%, 91.047668%, 80.674744%)" offset="0.0585938"/><stop stop-opacity="1" stop-color="rgb(45.713806%, 90.899658%, 80.592346%)" offset="0.0625"/><stop stop-opacity="1" stop-color="rgb(45.585632%, 90.753174%, 80.509949%)" offset="0.0664062"/><stop stop-opacity="1" stop-color="rgb(45.455933%, 90.605164%, 80.427551%)" offset="0.0703125"/><stop stop-opacity="1" stop-color="rgb(45.327759%, 90.458679%, 80.343628%)" offset="0.0742188"/><stop stop-opacity="1" stop-color="rgb(45.198059%, 90.310669%, 80.26123%)" offset="0.078125"/><stop stop-opacity="1" stop-color="rgb(45.069885%, 90.164185%, 80.178833%)" offset="0.0820312"/><stop stop-opacity="1" stop-color="rgb(44.940186%, 90.016174%, 80.09491%)" offset="0.0859375"/><stop stop-opacity="1" stop-color="rgb(44.812012%, 89.86969%, 80.012512%)" offset="0.0898438"/><stop stop-opacity="1" stop-color="rgb(44.683838%, 89.72168%, 79.930115%)" offset="0.09375"/><stop stop-opacity="1" stop-color="rgb(44.554138%, 89.575195%, 79.847717%)" offset="0.0976562"/><stop stop-opacity="1" stop-color="rgb(44.425964%, 89.427185%, 79.763794%)" offset="0.101562"/><stop stop-opacity="1" stop-color="rgb(44.296265%, 89.280701%, 79.681396%)" offset="0.105469"/><stop stop-opacity="1" stop-color="rgb(44.168091%, 89.13269%, 79.598999%)" offset="0.109375"/><stop stop-opacity="1" stop-color="rgb(44.039917%, 88.986206%, 79.516602%)" offset="0.113281"/><stop stop-opacity="1" stop-color="rgb(43.910217%, 88.838196%, 79.432678%)" offset="0.117188"/><stop stop-opacity="1" stop-color="rgb(43.782043%, 88.691711%, 79.350281%)" offset="0.121094"/><stop stop-opacity="1" stop-color="rgb(43.652344%, 88.543701%, 79.267883%)" offset="0.125"/><stop stop-opacity="1" stop-color="rgb(43.52417%, 88.397217%, 79.18396%)" offset="0.128906"/><stop stop-opacity="1" stop-color="rgb(43.395996%, 88.249207%, 79.101562%)" offset="0.132812"/><stop stop-opacity="1" stop-color="rgb(43.266296%, 88.102722%, 79.019165%)" offset="0.136719"/><stop stop-opacity="1" stop-color="rgb(43.138123%, 87.954712%, 78.936768%)" offset="0.140625"/><stop stop-opacity="1" stop-color="rgb(43.008423%, 87.808228%, 78.852844%)" offset="0.144531"/><stop stop-opacity="1" stop-color="rgb(42.880249%, 87.661743%, 78.770447%)" offset="0.148438"/><stop stop-opacity="1" stop-color="rgb(42.750549%, 87.513733%, 78.688049%)" offset="0.152344"/><stop stop-opacity="1" stop-color="rgb(42.622375%, 87.367249%, 78.605652%)" offset="0.15625"/><stop stop-opacity="1" stop-color="rgb(42.494202%, 87.219238%, 78.521729%)" offset="0.160156"/><stop stop-opacity="1" stop-color="rgb(42.364502%, 87.072754%, 78.439331%)" offset="0.164062"/><stop stop-opacity="1" stop-color="rgb(42.236328%, 86.924744%, 78.356934%)" offset="0.167969"/><stop stop-opacity="1" stop-color="rgb(42.106628%, 86.778259%, 78.27301%)" offset="0.171875"/><stop stop-opacity="1" stop-color="rgb(41.978455%, 86.630249%, 78.190613%)" offset="0.175781"/><stop stop-opacity="1" stop-color="rgb(41.850281%, 86.483765%, 78.108215%)" offset="0.179688"/><stop stop-opacity="1" stop-color="rgb(41.720581%, 86.335754%, 78.025818%)" offset="0.183594"/><stop stop-opacity="1" stop-color="rgb(41.592407%, 86.18927%, 77.941895%)" offset="0.1875"/><stop stop-opacity="1" stop-color="rgb(41.462708%, 86.04126%, 77.859497%)" offset="0.191406"/><stop stop-opacity="1" stop-color="rgb(41.334534%, 85.894775%, 77.7771%)" offset="0.195312"/><stop stop-opacity="1" stop-color="rgb(41.20636%, 85.746765%, 77.694702%)" offset="0.199219"/><stop stop-opacity="1" stop-color="rgb(41.07666%, 85.600281%, 77.610779%)" offset="0.203125"/><stop stop-opacity="1" stop-color="rgb(40.948486%, 85.452271%, 77.528381%)" offset="0.207031"/><stop stop-opacity="1" stop-color="rgb(40.818787%, 85.305786%, 77.445984%)" offset="0.210938"/><stop stop-opacity="1" stop-color="rgb(40.690613%, 85.157776%, 77.362061%)" offset="0.214844"/><stop stop-opacity="1" stop-color="rgb(40.562439%, 85.011292%, 77.279663%)" offset="0.21875"/><stop stop-opacity="1" stop-color="rgb(40.432739%, 84.863281%, 77.197266%)" offset="0.222656"/><stop stop-opacity="1" stop-color="rgb(40.304565%, 84.716797%, 77.114868%)" offset="0.226562"/><stop stop-opacity="1" stop-color="rgb(40.174866%, 84.568787%, 77.030945%)" offset="0.230469"/><stop stop-opacity="1" stop-color="rgb(40.046692%, 84.422302%, 76.948547%)" offset="0.234375"/><stop stop-opacity="1" stop-color="rgb(39.916992%, 84.274292%, 76.86615%)" offset="0.238281"/><stop stop-opacity="1" stop-color="rgb(39.788818%, 84.127808%, 76.782227%)" offset="0.242188"/><stop stop-opacity="1" stop-color="rgb(39.660645%, 83.979797%, 76.699829%)" offset="0.246094"/><stop stop-opacity="1" stop-color="rgb(39.530945%, 83.833313%, 76.617432%)" offset="0.25"/><stop stop-opacity="1" stop-color="rgb(39.337158%, 83.612061%, 76.49231%)" offset="0.253906"/><stop stop-opacity="1" stop-color="rgb(39.080811%, 83.317566%, 76.327515%)" offset="0.261719"/><stop stop-opacity="1" stop-color="rgb(38.822937%, 83.023071%, 76.161194%)" offset="0.269531"/><stop stop-opacity="1" stop-color="rgb(38.565063%, 82.728577%, 75.996399%)" offset="0.277344"/><stop stop-opacity="1" stop-color="rgb(38.30719%, 82.434082%, 75.830078%)" offset="0.285156"/><stop stop-opacity="1" stop-color="rgb(38.049316%, 82.139587%, 75.665283%)" offset="0.292969"/><stop stop-opacity="1" stop-color="rgb(37.791443%, 81.845093%, 75.498962%)" offset="0.300781"/><stop stop-opacity="1" stop-color="rgb(37.535095%, 81.550598%, 75.334167%)" offset="0.308594"/><stop stop-opacity="1" stop-color="rgb(37.277222%, 81.256104%, 75.167847%)" offset="0.316406"/><stop stop-opacity="1" stop-color="rgb(37.019348%, 80.961609%, 75.001526%)" offset="0.324219"/><stop stop-opacity="1" stop-color="rgb(36.763%, 80.671692%, 74.816895%)" offset="0.332031"/><stop stop-opacity="1" stop-color="rgb(36.505127%, 80.387878%, 74.609375%)" offset="0.339844"/><stop stop-opacity="1" stop-color="rgb(36.248779%, 80.104065%, 74.397278%)" offset="0.347656"/><stop stop-opacity="1" stop-color="rgb(35.992432%, 79.820251%, 74.186707%)" offset="0.355469"/><stop stop-opacity="1" stop-color="rgb(35.734558%, 79.534912%, 73.976135%)" offset="0.363281"/><stop stop-opacity="1" stop-color="rgb(35.47821%, 79.251099%, 73.764038%)" offset="0.371094"/><stop stop-opacity="1" stop-color="rgb(35.221863%, 78.967285%, 73.553467%)" offset="0.378906"/><stop stop-opacity="1" stop-color="rgb(34.963989%, 78.683472%, 73.342896%)" offset="0.386719"/><stop stop-opacity="1" stop-color="rgb(34.707642%, 78.398132%, 73.132324%)" offset="0.394531"/><stop stop-opacity="1" stop-color="rgb(34.451294%, 78.114319%, 72.920227%)" offset="0.402344"/><stop stop-opacity="1" stop-color="rgb(34.19342%, 77.830505%, 72.709656%)" offset="0.410156"/><stop stop-opacity="1" stop-color="rgb(33.937073%, 77.546692%, 72.499084%)" offset="0.417969"/><stop stop-opacity="1" stop-color="rgb(33.680725%, 77.261353%, 72.288513%)" offset="0.425781"/><stop stop-opacity="1" stop-color="rgb(33.424377%, 76.977539%, 72.076416%)" offset="0.433594"/><stop stop-opacity="1" stop-color="rgb(33.166504%, 76.693726%, 71.865845%)" offset="0.441406"/><stop stop-opacity="1" stop-color="rgb(32.910156%, 76.409912%, 71.655273%)" offset="0.449219"/><stop stop-opacity="1" stop-color="rgb(32.653809%, 76.124573%, 71.444702%)" offset="0.457031"/><stop stop-opacity="1" stop-color="rgb(32.395935%, 75.840759%, 71.232605%)" offset="0.464844"/><stop stop-opacity="1" stop-color="rgb(32.139587%, 75.556946%, 71.022034%)" offset="0.472656"/><stop stop-opacity="1" stop-color="rgb(31.88324%, 75.273132%, 70.811462%)" offset="0.480469"/><stop stop-opacity="1" stop-color="rgb(31.625366%, 74.987793%, 70.599365%)" offset="0.488281"/><stop stop-opacity="1" stop-color="rgb(31.369019%, 74.703979%, 70.388794%)" offset="0.496094"/><stop stop-opacity="1" stop-color="rgb(31.176758%, 74.490356%, 70.230103%)" offset="0.503906"/><stop stop-opacity="1" stop-color="rgb(31.048584%, 74.34845%, 70.124817%)" offset="0.507812"/><stop stop-opacity="1" stop-color="rgb(30.92041%, 74.206543%, 70.019531%)" offset="0.511719"/><stop stop-opacity="1" stop-color="rgb(30.79071%, 74.064636%, 69.914246%)" offset="0.515625"/><stop stop-opacity="1" stop-color="rgb(30.662537%, 73.922729%, 69.80896%)" offset="0.519531"/><stop stop-opacity="1" stop-color="rgb(30.534363%, 73.779297%, 69.702148%)" offset="0.523438"/><stop stop-opacity="1" stop-color="rgb(30.406189%, 73.63739%, 69.596863%)" offset="0.527344"/><stop stop-opacity="1" stop-color="rgb(30.278015%, 73.495483%, 69.491577%)" offset="0.53125"/><stop stop-opacity="1" stop-color="rgb(30.149841%, 73.353577%, 69.386292%)" offset="0.535156"/><stop stop-opacity="1" stop-color="rgb(30.020142%, 73.21167%, 69.281006%)" offset="0.539062"/><stop stop-opacity="1" stop-color="rgb(29.891968%, 73.069763%, 69.17572%)" offset="0.542969"/><stop stop-opacity="1" stop-color="rgb(29.763794%, 72.927856%, 69.070435%)" offset="0.546875"/><stop stop-opacity="1" stop-color="rgb(29.63562%, 72.78595%, 68.965149%)" offset="0.550781"/><stop stop-opacity="1" stop-color="rgb(29.507446%, 72.642517%, 68.858337%)" offset="0.554688"/><stop stop-opacity="1" stop-color="rgb(29.379272%, 72.50061%, 68.753052%)" offset="0.558594"/><stop stop-opacity="1" stop-color="rgb(29.249573%, 72.358704%, 68.647766%)" offset="0.5625"/><stop stop-opacity="1" stop-color="rgb(29.121399%, 72.216797%, 68.54248%)" offset="0.566406"/><stop stop-opacity="1" stop-color="rgb(28.993225%, 72.07489%, 68.437195%)" offset="0.570312"/><stop stop-opacity="1" stop-color="rgb(28.865051%, 71.932983%, 68.331909%)" offset="0.574219"/><stop stop-opacity="1" stop-color="rgb(28.736877%, 71.791077%, 68.226624%)" offset="0.578125"/><stop stop-opacity="1" stop-color="rgb(28.608704%, 71.64917%, 68.119812%)" offset="0.582031"/><stop stop-opacity="1" stop-color="rgb(28.48053%, 71.505737%, 68.014526%)" offset="0.585938"/><stop stop-opacity="1" stop-color="rgb(28.35083%, 71.363831%, 67.909241%)" offset="0.589844"/><stop stop-opacity="1" stop-color="rgb(28.222656%, 71.221924%, 67.803955%)" offset="0.59375"/><stop stop-opacity="1" stop-color="rgb(28.094482%, 71.080017%, 67.698669%)" offset="0.597656"/><stop stop-opacity="1" stop-color="rgb(27.966309%, 70.93811%, 67.593384%)" offset="0.601562"/><stop stop-opacity="1" stop-color="rgb(27.838135%, 70.796204%, 67.488098%)" offset="0.605469"/><stop stop-opacity="1" stop-color="rgb(27.709961%, 70.654297%, 67.382812%)" offset="0.609375"/><stop stop-opacity="1" stop-color="rgb(27.580261%, 70.51239%, 67.276001%)" offset="0.613281"/><stop stop-opacity="1" stop-color="rgb(27.452087%, 70.368958%, 67.170715%)" offset="0.617188"/><stop stop-opacity="1" stop-color="rgb(27.323914%, 70.227051%, 67.06543%)" offset="0.621094"/><stop stop-opacity="1" stop-color="rgb(27.19574%, 70.085144%, 66.960144%)" offset="0.625"/><stop stop-opacity="1" stop-color="rgb(27.003479%, 69.873047%, 66.802979%)" offset="0.628906"/><stop stop-opacity="1" stop-color="rgb(26.745605%, 69.589233%, 66.590881%)" offset="0.636719"/><stop stop-opacity="1" stop-color="rgb(26.489258%, 69.303894%, 66.38031%)" offset="0.644531"/><stop stop-opacity="1" stop-color="rgb(26.23291%, 69.020081%, 66.169739%)" offset="0.652344"/><stop stop-opacity="1" stop-color="rgb(25.971985%, 68.722534%, 65.951538%)" offset="0.660156"/><stop stop-opacity="1" stop-color="rgb(25.761414%, 68.443298%, 65.757751%)" offset="0.667969"/><stop stop-opacity="1" stop-color="rgb(25.605774%, 68.19458%, 65.597534%)" offset="0.671875"/><stop stop-opacity="1" stop-color="rgb(25.448608%, 67.945862%, 65.437317%)" offset="0.675781"/><stop stop-opacity="1" stop-color="rgb(25.292969%, 67.697144%, 65.275574%)" offset="0.679688"/><stop stop-opacity="1" stop-color="rgb(25.135803%, 67.448425%, 65.115356%)" offset="0.683594"/><stop stop-opacity="1" stop-color="rgb(24.980164%, 67.201233%, 64.953613%)" offset="0.6875"/><stop stop-opacity="1" stop-color="rgb(24.822998%, 66.952515%, 64.793396%)" offset="0.691406"/><stop stop-opacity="1" stop-color="rgb(24.667358%, 66.703796%, 64.631653%)" offset="0.695312"/><stop stop-opacity="1" stop-color="rgb(24.511719%, 66.455078%, 64.471436%)" offset="0.699219"/><stop stop-opacity="1" stop-color="rgb(24.354553%, 66.20636%, 64.309692%)" offset="0.703125"/><stop stop-opacity="1" stop-color="rgb(24.198914%, 65.957642%, 64.149475%)" offset="0.707031"/><stop stop-opacity="1" stop-color="rgb(24.041748%, 65.710449%, 63.987732%)" offset="0.710938"/><stop stop-opacity="1" stop-color="rgb(23.886108%, 65.461731%, 63.827515%)" offset="0.714844"/><stop stop-opacity="1" stop-color="rgb(23.728943%, 65.213013%, 63.665771%)" offset="0.71875"/><stop stop-opacity="1" stop-color="rgb(23.573303%, 64.964294%, 63.505554%)" offset="0.722656"/><stop stop-opacity="1" stop-color="rgb(23.416138%, 64.715576%, 63.343811%)" offset="0.726562"/><stop stop-opacity="1" stop-color="rgb(23.260498%, 64.466858%, 63.183594%)" offset="0.730469"/><stop stop-opacity="1" stop-color="rgb(23.103333%, 64.219666%, 63.021851%)" offset="0.734375"/><stop stop-opacity="1" stop-color="rgb(22.947693%, 63.970947%, 62.861633%)" offset="0.738281"/><stop stop-opacity="1" stop-color="rgb(22.790527%, 63.722229%, 62.69989%)" offset="0.742188"/><stop stop-opacity="1" stop-color="rgb(22.634888%, 63.473511%, 62.539673%)" offset="0.746094"/><stop stop-opacity="1" stop-color="rgb(22.477722%, 63.224792%, 62.37793%)" offset="0.75"/><stop stop-opacity="1" stop-color="rgb(22.322083%, 62.976074%, 62.217712%)" offset="0.753906"/><stop stop-opacity="1" stop-color="rgb(22.164917%, 62.728882%, 62.057495%)" offset="0.757812"/><stop stop-opacity="1" stop-color="rgb(22.009277%, 62.480164%, 61.895752%)" offset="0.761719"/><stop stop-opacity="1" stop-color="rgb(21.852112%, 62.231445%, 61.735535%)" offset="0.765625"/><stop stop-opacity="1" stop-color="rgb(21.696472%, 61.982727%, 61.573792%)" offset="0.769531"/><stop stop-opacity="1" stop-color="rgb(21.539307%, 61.734009%, 61.413574%)" offset="0.773438"/><stop stop-opacity="1" stop-color="rgb(21.383667%, 61.486816%, 61.251831%)" offset="0.777344"/><stop stop-opacity="1" stop-color="rgb(21.226501%, 61.238098%, 61.091614%)" offset="0.78125"/><stop stop-opacity="1" stop-color="rgb(21.070862%, 60.98938%, 60.929871%)" offset="0.785156"/><stop stop-opacity="1" stop-color="rgb(20.915222%, 60.740662%, 60.769653%)" offset="0.789062"/><stop stop-opacity="1" stop-color="rgb(20.758057%, 60.491943%, 60.60791%)" offset="0.792969"/><stop stop-opacity="1" stop-color="rgb(20.602417%, 60.243225%, 60.447693%)" offset="0.796875"/><stop stop-opacity="1" stop-color="rgb(20.445251%, 59.996033%, 60.28595%)" offset="0.800781"/><stop stop-opacity="1" stop-color="rgb(20.289612%, 59.747314%, 60.125732%)" offset="0.804688"/><stop stop-opacity="1" stop-color="rgb(20.132446%, 59.498596%, 59.963989%)" offset="0.808594"/><stop stop-opacity="1" stop-color="rgb(19.976807%, 59.249878%, 59.803772%)" offset="0.8125"/><stop stop-opacity="1" stop-color="rgb(19.819641%, 59.00116%, 59.642029%)" offset="0.816406"/><stop stop-opacity="1" stop-color="rgb(19.664001%, 58.752441%, 59.481812%)" offset="0.820312"/><stop stop-opacity="1" stop-color="rgb(19.506836%, 58.505249%, 59.320068%)" offset="0.824219"/><stop stop-opacity="1" stop-color="rgb(19.351196%, 58.256531%, 59.159851%)" offset="0.828125"/><stop stop-opacity="1" stop-color="rgb(19.194031%, 58.007812%, 58.999634%)" offset="0.832031"/><stop stop-opacity="1" stop-color="rgb(19.038391%, 57.759094%, 58.837891%)" offset="0.835938"/><stop stop-opacity="1" stop-color="rgb(18.881226%, 57.510376%, 58.677673%)" offset="0.839844"/><stop stop-opacity="1" stop-color="rgb(18.725586%, 57.263184%, 58.51593%)" offset="0.84375"/><stop stop-opacity="1" stop-color="rgb(18.56842%, 57.014465%, 58.355713%)" offset="0.847656"/><stop stop-opacity="1" stop-color="rgb(18.412781%, 56.765747%, 58.19397%)" offset="0.851562"/><stop stop-opacity="1" stop-color="rgb(18.255615%, 56.517029%, 58.033752%)" offset="0.855469"/><stop stop-opacity="1" stop-color="rgb(18.099976%, 56.268311%, 57.872009%)" offset="0.859375"/><stop stop-opacity="1" stop-color="rgb(17.94281%, 56.019592%, 57.711792%)" offset="0.863281"/><stop stop-opacity="1" stop-color="rgb(17.78717%, 55.7724%, 57.550049%)" offset="0.867188"/><stop stop-opacity="1" stop-color="rgb(17.631531%, 55.523682%, 57.389832%)" offset="0.871094"/><stop stop-opacity="1" stop-color="rgb(17.474365%, 55.274963%, 57.228088%)" offset="0.875"/><stop stop-opacity="1" stop-color="rgb(17.318726%, 55.026245%, 57.067871%)" offset="0.878906"/><stop stop-opacity="1" stop-color="rgb(17.16156%, 54.777527%, 56.906128%)" offset="0.882812"/><stop stop-opacity="1" stop-color="rgb(17.00592%, 54.528809%, 56.745911%)" offset="0.886719"/><stop stop-opacity="1" stop-color="rgb(16.848755%, 54.281616%, 56.584167%)" offset="0.890625"/><stop stop-opacity="1" stop-color="rgb(16.693115%, 54.032898%, 56.42395%)" offset="0.894531"/><stop stop-opacity="1" stop-color="rgb(16.53595%, 53.78418%, 56.262207%)" offset="0.898438"/><stop stop-opacity="1" stop-color="rgb(16.38031%, 53.535461%, 56.10199%)" offset="0.902344"/><stop stop-opacity="1" stop-color="rgb(16.223145%, 53.286743%, 55.940247%)" offset="0.90625"/><stop stop-opacity="1" stop-color="rgb(16.067505%, 53.038025%, 55.780029%)" offset="0.910156"/><stop stop-opacity="1" stop-color="rgb(15.910339%, 52.790833%, 55.619812%)" offset="0.914062"/><stop stop-opacity="1" stop-color="rgb(15.7547%, 52.542114%, 55.458069%)" offset="0.917969"/><stop stop-opacity="1" stop-color="rgb(15.597534%, 52.293396%, 55.297852%)" offset="0.921875"/><stop stop-opacity="1" stop-color="rgb(15.441895%, 52.044678%, 55.136108%)" offset="0.925781"/><stop stop-opacity="1" stop-color="rgb(15.284729%, 51.795959%, 54.975891%)" offset="0.929688"/><stop stop-opacity="1" stop-color="rgb(15.129089%, 51.548767%, 54.814148%)" offset="0.933594"/><stop stop-opacity="1" stop-color="rgb(14.971924%, 51.300049%, 54.653931%)" offset="0.9375"/><stop stop-opacity="1" stop-color="rgb(14.816284%, 51.051331%, 54.492188%)" offset="0.941406"/><stop stop-opacity="1" stop-color="rgb(14.659119%, 50.802612%, 54.33197%)" offset="0.945312"/><stop stop-opacity="1" stop-color="rgb(14.503479%, 50.553894%, 54.170227%)" offset="0.949219"/><stop stop-opacity="1" stop-color="rgb(14.347839%, 50.305176%, 54.01001%)" offset="0.953125"/><stop stop-opacity="1" stop-color="rgb(14.190674%, 50.057983%, 53.848267%)" offset="0.957031"/><stop stop-opacity="1" stop-color="rgb(14.035034%, 49.809265%, 53.688049%)" offset="0.960938"/><stop stop-opacity="1" stop-color="rgb(13.877869%, 49.560547%, 53.526306%)" offset="0.964844"/><stop stop-opacity="1" stop-color="rgb(13.722229%, 49.311829%, 53.366089%)" offset="0.96875"/><stop stop-opacity="1" stop-color="rgb(13.565063%, 49.06311%, 53.204346%)" offset="0.972656"/><stop stop-opacity="1" stop-color="rgb(13.409424%, 48.814392%, 53.044128%)" offset="0.976562"/><stop stop-opacity="1" stop-color="rgb(13.252258%, 48.5672%, 52.882385%)" offset="0.980469"/><stop stop-opacity="1" stop-color="rgb(13.096619%, 48.318481%, 52.722168%)" offset="0.984375"/><stop stop-opacity="1" stop-color="rgb(12.939453%, 48.069763%, 52.561951%)" offset="0.988281"/><stop stop-opacity="1" stop-color="rgb(12.783813%, 47.821045%, 52.400208%)" offset="0.992188"/><stop stop-opacity="1" stop-color="rgb(12.626648%, 47.572327%, 52.23999%)" offset="0.996094"/><stop stop-opacity="1" stop-color="rgb(12.548828%, 47.44873%, 52.159119%)" offset="1"/></radialGradient><clipPath id="be8f1c0e0f"><rect x="0" width="1500" y="0" height="1410"/></clipPath><clipPath id="429d895571"><path d="M 0 0.820312 L 1500 0.820312 L 1500 1409.363281 L 0 1409.363281 Z M 0 0.820312 " clip-rule="nonzero"/></clipPath><clipPath id="3c9f8b1a01"><rect x="0" width="1500" y="0" height="1410"/></clipPath><clipPath id="f86c301012"><rect x="0" width="1500" y="0" height="1410"/></clipPath><mask id="ce3cd653ca"><g filter="url(#4291a02e71)"><g transform="matrix(1, 0, 0, 1, 0, 0.000000000000113687)"><g clip-path="url(#f86c301012)"><g clip-path="url(#429d895571)"><g transform="matrix(1, 0, 0, 1, 0, 0.000000000000113687)"><g clip-path="url(#3c9f8b1a01)"><g fill="#000000" fill-opacity="1"><g transform="translate(464.716289, 770.013788)"><g><path d="M 73.21875 -43.1875 L 73.84375 -43.1875 L 88.5625 -223.421875 L 142.375 -223.421875 L 112.03125 0 L 30.359375 0 L 2.5 -223.421875 L 60.078125 -223.421875 Z M 73.21875 -43.1875 "/></g></g></g><g fill="#000000" fill-opacity="1"><g transform="translate(609.586879, 770.013788)"><g><path d="M 104.203125 -178.359375 L 64.46875 -178.359375 L 64.46875 -137.375 L 101.703125 -137.375 L 101.703125 -94.1875 L 64.46875 -94.1875 L 64.46875 -45.0625 L 107.328125 -45.0625 L 107.328125 0 L 6.890625 0 L 6.890625 -223.421875 L 104.203125 -223.421875 Z M 104.203125 -178.359375 "/></g></g></g><g fill="#000000" fill-opacity="1"><g transform="translate(719.726093, 770.013788)"><g><path d="M 88.5625 -112.34375 L 89.1875 -112.34375 L 89.1875 -223.421875 L 138 -223.421875 L 138 0 L 89.1875 0 L 56.640625 -124.859375 L 55.703125 -124.859375 L 55.703125 0 L 6.890625 0 L 6.890625 -223.421875 L 55.703125 -223.421875 Z M 88.5625 -112.34375 "/></g></g></g><g fill="#000000" fill-opacity="1"><g transform="translate(864.596683, 770.013788)"><g><path d="M 75.421875 -228.125 C 97.734375 -228.125 114.726562 -222.800781 126.40625 -212.15625 C 138.09375 -201.519531 143.9375 -184.3125 143.9375 -160.53125 L 143.9375 -68.21875 C 143.9375 -55.90625 142.894531 -46.148438 140.8125 -38.953125 C 138.726562 -31.753906 135.234375 -26.222656 130.328125 -22.359375 C 125.429688 -18.503906 118.597656 -15.640625 109.828125 -13.765625 C 109.617188 -9.390625 110.191406 -6.207031 111.546875 -4.21875 C 112.910156 -2.238281 115.882812 -1.25 120.46875 -1.25 L 147.078125 -1.25 L 147.078125 26.90625 L 92.9375 26.90625 C 82.71875 26.90625 75.101562 24.867188 70.09375 20.796875 C 65.082031 16.734375 62.578125 11.050781 62.578125 3.75 L 62.578125 0.9375 L 58.515625 0.9375 C 40.578125 0.9375 27.488281 -5.367188 19.25 -17.984375 C 11.007812 -30.609375 6.890625 -45.679688 6.890625 -63.203125 L 6.890625 -160.53125 C 6.890625 -184.101562 12.675781 -201.257812 24.25 -212 C 35.832031 -222.75 52.890625 -228.125 75.421875 -228.125 Z M 64.46875 -176.796875 L 64.46875 -46.625 C 64.46875 -42.238281 65.40625 -38.847656 67.28125 -36.453125 C 69.15625 -34.054688 71.867188 -32.859375 75.421875 -32.859375 C 78.960938 -32.859375 81.671875 -34.054688 83.546875 -36.453125 C 85.421875 -38.847656 86.359375 -42.238281 86.359375 -46.625 L 86.359375 -176.796875 C 86.359375 -181.179688 85.421875 -184.570312 83.546875 -186.96875 C 81.671875 -189.363281 78.960938 -190.5625 75.421875 -190.5625 C 68.117188 -190.5625 64.46875 -185.972656 64.46875 -176.796875 Z M 64.46875 -176.796875 "/></g></g></g><g fill="#000000" fill-opacity="1"><g transform="translate(1015.412287, 770.013788)"><g><path d="M 75.421875 -228.125 C 97.734375 -228.125 114.726562 -222.800781 126.40625 -212.15625 C 138.09375 -201.519531 143.9375 -184.3125 143.9375 -160.53125 L 143.9375 -62.890625 C 143.9375 -39.316406 138.144531 -22.160156 126.5625 -11.421875 C 114.988281 -0.679688 97.941406 4.6875 75.421875 4.6875 C 52.890625 4.6875 35.832031 -0.578125 24.25 -11.109375 C 12.675781 -21.640625 6.890625 -38.898438 6.890625 -62.890625 L 6.890625 -160.53125 C 6.890625 -184.101562 12.675781 -201.257812 24.25 -212 C 35.832031 -222.75 52.890625 -228.125 75.421875 -228.125 Z M 64.46875 -176.796875 L 64.46875 -46.625 C 64.46875 -42.238281 65.40625 -38.847656 67.28125 -36.453125 C 69.15625 -34.054688 71.867188 -32.859375 75.421875 -32.859375 C 78.960938 -32.859375 81.671875 -34.054688 83.546875 -36.453125 C 85.421875 -38.847656 86.359375 -42.238281 86.359375 -46.625 L 86.359375 -176.796875 C 86.359375 -181.179688 85.421875 -184.570312 83.546875 -186.96875 C 81.671875 -189.363281 78.960938 -190.5625 75.421875 -190.5625 C 68.117188 -190.5625 64.46875 -185.972656 64.46875 -176.796875 Z M 64.46875 -176.796875 "/></g></g></g><g fill="#000000" fill-opacity="1"><g transform="translate(1166.227866, 770.013788)"><g><path d="M 135.8125 -179.296875 L 135.8125 -156.78125 C 135.8125 -144.46875 132.992188 -135.234375 127.359375 -129.078125 C 121.722656 -122.921875 113.273438 -119.425781 102.015625 -118.59375 L 102.015625 -117.96875 C 114.316406 -117.132812 123.390625 -113.585938 129.234375 -107.328125 C 135.078125 -101.066406 138 -91.785156 138 -79.484375 L 138 0 L 84.171875 0 L 84.171875 -85.734375 C 84.171875 -98.046875 79.164062 -104.203125 69.15625 -104.203125 C 66.863281 -104.203125 64.671875 -103.890625 62.578125 -103.265625 L 62.578125 0 L 6.890625 0 L 6.890625 -223.421875 L 74.15625 -223.421875 C 87.507812 -223.421875 98.460938 -222.429688 107.015625 -220.453125 C 115.566406 -218.472656 122.503906 -214.300781 127.828125 -207.9375 C 133.148438 -201.570312 135.8125 -192.023438 135.8125 -179.296875 Z M 66.65625 -138 C 73.332031 -138 77.921875 -139.507812 80.421875 -142.53125 C 82.921875 -145.5625 84.171875 -149.054688 84.171875 -153.015625 L 84.171875 -172.734375 C 84.171875 -176.484375 82.921875 -179.921875 80.421875 -183.046875 C 77.921875 -186.179688 73.4375 -187.75 66.96875 -187.75 L 62.578125 -187.75 L 62.578125 -138 Z M 66.65625 -138 "/></g></g></g><g fill="#000000" fill-opacity="1"><g transform="translate(1311.098482, 770.013788)"><g><path d="M 104.203125 -178.359375 L 64.46875 -178.359375 L 64.46875 -137.375 L 101.703125 -137.375 L 101.703125 -94.1875 L 64.46875 -94.1875 L 64.46875 -45.0625 L 107.328125 -45.0625 L 107.328125 0 L 6.890625 0 L 6.890625 -223.421875 L 104.203125 -223.421875 Z M 104.203125 -178.359375 "/></g></g></g></g></g></g></g></g></g></mask><clipPath id="ccf0bc7e1a"><path d="M 0 0.820312 L 1500 0.820312 L 1500 1409.363281 L 0 1409.363281 Z M 0 0.820312 " clip-rule="nonzero"/></clipPath><clipPath id="7b42fddb73"><rect x="0" width="1500" y="0" height="1410"/></clipPath><clipPath id="2d2c3f83a8"><rect x="0" width="1500" y="0" height="1410"/></clipPath><clipPath id="0f2ae1ccac"><rect x="0" width="1500" y="0" height="1410"/></clipPath><clipPath id="3b6c7c3fc8"><rect x="0" width="1500" y="0" height="1410"/></clipPath></defs><g transform="matrix(1, 0, 0, 1, 0, 57)"><g clip-path="url(#3b6c7c3fc8)"><path fill="#5ecebf" d="M 210.136719 705.617188 L 210.136719 736.691406 L 210.011719 736.761719 L 210.007812 736.761719 L 186.550781 723.09375 L 186.550781 691.875 L 196.636719 697.75 L 210.0625 705.570312 Z M 210.136719 705.617188 " fill-opacity="1" fill-rule="nonzero"/><path fill="#5ecebf" d="M 235.964844 691.902344 L 235.964844 723.058594 L 212.382812 736.691406 L 212.382812 705.53125 L 225.761719 697.792969 Z M 235.964844 691.902344 " fill-opacity="1" fill-rule="nonzero"/><path fill="#42afa8" d="M 209.980469 752.355469 L 209.933594 783.554688 L 186.550781 769.929688 L 183.082031 767.90625 L 173.074219 762.074219 L 169.660156 760.089844 L 146.121094 746.375 L 146.121094 699.6875 L 146.246094 699.613281 L 146.121094 699.542969 L 146.121094 668.320312 L 149.65625 670.375 L 173.074219 684.023438 L 173.074219 730.855469 L 186.550781 738.707031 L 196.558594 744.539062 L 196.5625 744.539062 Z M 209.980469 752.355469 " fill-opacity="1" fill-rule="nonzero"/><path fill="#42afa8" d="M 276.398438 715.265625 L 276.398438 746.429688 L 252.53125 760.230469 L 252.527344 760.230469 L 249.445312 762.011719 L 239.082031 768.003906 L 235.964844 769.800781 L 212.382812 783.433594 L 212.179688 783.554688 L 212.226562 752.355469 L 212.382812 752.269531 L 225.675781 744.585938 L 225.679688 744.585938 L 225.679688 744.582031 L 235.964844 738.640625 L 249.445312 730.84375 L 252.578125 729.035156 L 252.582031 729.035156 L 266.035156 721.257812 Z M 276.398438 715.265625 " fill-opacity="1" fill-rule="nonzero"/><path fill="#207985" d="M 356.136719 577.058594 L 329.183594 592.640625 L 315.707031 584.851562 L 305.601562 579.007812 L 292.121094 571.21875 L 288.753906 569.273438 L 275.273438 561.476562 L 265.171875 555.640625 L 265.167969 555.640625 L 251.691406 547.847656 L 248.320312 549.796875 L 238.214844 555.640625 L 234.84375 557.585938 L 211.261719 571.21875 L 211.257812 571.21875 L 187.675781 557.585938 L 184.308594 555.640625 L 187.675781 553.695312 L 211.257812 540.058594 L 211.261719 540.058594 L 224.742188 532.265625 L 234.84375 526.425781 L 248.320312 518.632812 L 251.691406 516.6875 L 275.273438 530.320312 L 278.644531 532.265625 L 288.753906 538.109375 L 292.121094 540.058594 L 315.707031 553.691406 L 319.074219 555.640625 L 329.183594 561.480469 L 332.554688 563.425781 Z M 356.136719 577.058594 " fill-opacity="1" fill-rule="nonzero"/><g clip-path="url(#e744382d2a)"><path fill="#207985" d="M 357.261719 578.933594 L 357.261719 746.429688 L 356.691406 746.757812 L 333.15625 760.363281 L 333.152344 760.363281 L 330.308594 762.007812 L 330.308594 594.515625 Z M 357.261719 578.933594 " fill-opacity="1" fill-rule="nonzero"/></g><path fill="#5ecebf" d="M 197.78125 625.75 L 187.675781 631.589844 L 174.34375 639.300781 L 174.339844 639.300781 L 147.496094 623.65625 L 170.828125 610.167969 L 174.195312 612.121094 L 187.675781 619.910156 Z M 197.78125 625.75 " fill-opacity="1" fill-rule="nonzero"/><path fill="#5ecebf" d="M 173.21875 641.175781 L 173.074219 641.257812 L 173.074219 668.410156 L 163.105469 662.597656 L 149.683594 654.78125 L 146.121094 652.703125 L 146.121094 625.679688 L 146.125 625.679688 L 146.371094 625.53125 L 146.375 625.53125 Z M 173.21875 641.175781 " fill-opacity="1" fill-rule="nonzero"/><path fill="#7aeed1" d="M 234.84375 647.3125 L 211.277344 660.867188 L 211.257812 660.859375 L 187.792969 647.246094 L 187.890625 647.191406 L 211.257812 633.820312 L 234.722656 647.246094 Z M 234.84375 647.3125 " fill-opacity="1" fill-rule="nonzero"/><path fill="#7aeed1" d="M 235.964844 649.191406 L 235.964844 676.175781 L 235.847656 676.246094 L 235.753906 676.300781 L 212.382812 689.667969 L 212.382812 662.753906 L 212.398438 662.742188 Z M 235.964844 649.191406 " fill-opacity="1" fill-rule="nonzero"/><path fill="#7aeed1" d="M 210.136719 662.734375 L 210.136719 689.667969 L 186.671875 676.246094 L 186.550781 676.175781 L 186.550781 649.191406 L 186.671875 649.117188 Z M 210.136719 662.734375 " fill-opacity="1" fill-rule="nonzero"/><path fill="#037300" d="M 211.277344 660.867188 L 211.257812 660.878906 L 211.257812 660.859375 Z M 211.277344 660.867188 " fill-opacity="1" fill-rule="nonzero"/><g clip-path="url(#95b957714e)"><path fill="#207985" d="M 209.90625 799.148438 L 209.851562 830.34375 L 186.550781 816.765625 L 183.003906 814.699219 L 183 814.699219 L 173.074219 808.914062 L 169.578125 806.878906 L 146.121094 793.210938 L 142.730469 791.238281 L 132.640625 785.359375 L 129.308594 783.414062 L 129.304688 783.414062 L 105.6875 769.65625 L 102.457031 767.773438 L 92.210938 761.800781 L 89.035156 759.949219 L 65.542969 746.265625 L 65.257812 746.097656 L 65.257812 714.875 L 68.949219 717.027344 L 92.210938 730.574219 L 92.210938 730.84375 L 92.445312 730.714844 L 105.6875 738.429688 L 115.9375 744.398438 L 129.359375 752.222656 L 132.640625 754.136719 L 146.121094 761.984375 L 156.203125 767.863281 L 156.210938 767.863281 L 169.632812 775.679688 L 169.636719 775.679688 L 173.074219 777.6875 L 186.550781 785.542969 L 196.480469 791.328125 Z M 209.90625 799.148438 " fill-opacity="1" fill-rule="nonzero"/></g><g clip-path="url(#0d9c0f0cb4)"><path fill="#207985" d="M 316.828125 691.898438 L 316.828125 769.800781 L 292.804688 783.6875 L 292.796875 783.691406 L 289.875 785.382812 L 279.351562 791.464844 L 276.398438 793.167969 L 252.449219 807.015625 L 249.445312 808.75 L 239 814.792969 L 235.964844 816.542969 L 212.382812 830.175781 L 212.097656 830.34375 L 212.148438 799.148438 L 212.382812 799.015625 L 225.601562 791.375 L 235.964844 785.378906 L 249.445312 777.589844 L 252.503906 775.820312 L 265.949219 768.046875 L 265.953125 768.046875 L 276.398438 762.007812 L 289.875 754.214844 L 289.875 707.476562 L 313.457031 693.847656 L 313.460938 693.847656 Z M 316.828125 691.898438 " fill-opacity="1" fill-rule="nonzero"/></g><path fill="#42afa8" d="M 238.214844 602.378906 L 234.84375 604.328125 L 211.257812 617.960938 L 187.675781 604.328125 L 184.308594 602.378906 L 184.304688 602.378906 L 174.195312 596.535156 L 170.828125 594.589844 L 157.351562 602.378906 L 147.242188 608.222656 L 134.070312 615.839844 L 133.765625 615.660156 L 106.8125 600.433594 L 107.222656 600.195312 L 107.226562 600.195312 L 130.394531 586.800781 L 133.765625 584.851562 L 143.875 579.007812 L 147.242188 577.0625 L 170.828125 563.425781 L 170.832031 563.425781 L 174.195312 565.375 L 187.675781 573.167969 L 197.78125 579.007812 L 211.257812 586.800781 L 211.261719 586.800781 L 234.84375 600.433594 Z M 238.214844 602.378906 " fill-opacity="1" fill-rule="nonzero"/><path fill="#42afa8" d="M 132.640625 617.53125 L 132.640625 691.691406 L 122.753906 685.929688 L 109.328125 678.105469 L 105.6875 675.984375 L 105.6875 602.304688 Z M 132.640625 617.53125 " fill-opacity="1" fill-rule="nonzero"/><path fill="#5ecebf" d="M 275.273438 623.804688 L 248.320312 639.382812 L 234.84375 631.589844 L 224.738281 625.75 L 234.84375 619.910156 L 248.320312 612.121094 L 251.691406 610.167969 Z M 275.273438 623.804688 " fill-opacity="1" fill-rule="nonzero"/><path fill="#5ecebf" d="M 276.398438 625.679688 L 276.398438 652.945312 L 273.027344 654.890625 L 259.554688 662.683594 L 249.445312 668.527344 L 249.445312 641.257812 Z M 276.398438 625.679688 " fill-opacity="1" fill-rule="nonzero"/><path fill="#42afa8" d="M 315.707031 600.433594 L 288.753906 616.011719 L 275.273438 608.222656 L 265.167969 602.378906 L 251.691406 594.589844 L 248.320312 592.640625 L 234.84375 584.847656 L 224.742188 579.007812 L 234.84375 573.167969 L 248.320312 565.375 L 251.691406 563.425781 L 275.273438 577.058594 L 278.644531 579.007812 L 288.753906 584.851562 L 292.121094 586.800781 Z M 315.707031 600.433594 " fill-opacity="1" fill-rule="nonzero"/><path fill="#42afa8" d="M 316.828125 602.304688 L 316.828125 676.316406 L 313.460938 678.265625 L 299.984375 686.050781 L 289.875 691.898438 L 276.398438 699.6875 L 276.148438 699.832031 L 276.144531 699.832031 L 252.605469 713.4375 L 249.445312 715.269531 L 249.445312 684.105469 L 273.027344 670.476562 L 276.398438 668.527344 L 286.511719 662.683594 L 289.875 660.738281 L 289.875 617.882812 Z M 316.828125 602.304688 " fill-opacity="1" fill-rule="nonzero"/><g clip-path="url(#90d6c2d34a)"><path fill="#207985" d="M 238.214844 508.898438 L 234.84375 510.84375 L 211.261719 524.476562 L 211.257812 524.476562 L 197.78125 532.265625 L 187.675781 538.109375 L 174.195312 545.898438 L 170.832031 547.847656 L 157.351562 555.640625 L 147.242188 561.480469 L 133.765625 569.273438 L 130.402344 571.21875 L 116.921875 579.007812 L 106.8125 584.851562 L 93.800781 592.375 L 93.335938 592.640625 L 66.378906 577.0625 L 66.949219 576.730469 L 66.953125 576.730469 L 89.964844 563.425781 L 89.96875 563.425781 L 93.335938 561.480469 L 103.445312 555.640625 L 106.8125 553.695312 L 130.394531 540.058594 L 130.402344 540.058594 L 133.765625 538.113281 L 143.878906 532.265625 L 147.242188 530.320312 L 170.832031 516.6875 L 174.195312 514.738281 L 184.308594 508.898438 L 187.675781 506.953125 L 211.257812 493.316406 L 211.261719 493.316406 L 234.84375 506.949219 Z M 238.214844 508.898438 " fill-opacity="1" fill-rule="nonzero"/></g><g clip-path="url(#e3f51b4a25)"><path fill="#207985" d="M 132.640625 707.296875 L 132.640625 738.523438 L 129.386719 736.625 L 105.894531 722.9375 L 105.6875 722.820312 L 92.210938 714.964844 L 82.410156 709.253906 L 82.40625 709.253906 L 68.976562 701.429688 L 65.257812 699.257812 L 65.257812 578.9375 L 92.210938 594.515625 L 92.210938 683.742188 L 95.878906 685.878906 L 105.6875 691.597656 L 109.300781 693.703125 L 109.304688 693.703125 Z M 132.640625 707.296875 " fill-opacity="1" fill-rule="nonzero"/></g><g clip-path="url(#5b81c3712a)"><g transform="matrix(1, 0, 0, 1, 0, 0.000000000000113687)"><g clip-path="url(#0f2ae1ccac)"><g clip-path="url(#902f71e9b1)"><g transform="matrix(1, 0, 0, 1, 0, 0.000000000000113687)"><g clip-path="url(#2d2c3f83a8)"><g clip-path="url(#042d21a2c5)"><g mask="url(#ce3cd653ca)"><g transform="matrix(1, 0, 0, 1, 0, 0.000000000000113687)"><g clip-path="url(#7b42fddb73)"><g clip-path="url(#ccf0bc7e1a)"><path fill="url(#46a08a1bea)" d="M 0 0.820312 L 0 1409.363281 L 1500 1409.363281 L 1500 0.820312 Z M 0 0.820312 " fill-rule="nonzero"/></g></g></g></g></g></g></g></g></g></g></g></g></g></svg>