<svg xmlns="http://www.w3.org/2000/svg" xmlns:xlink="http://www.w3.org/1999/xlink" width="2000" zoomAndPan="magnify" viewBox="0 0 1500 1499.999933" height="2000" preserveAspectRatio="xMidYMid meet" version="1.0"><defs><filter x="0%" y="0%" width="100%" height="100%" id="c500339738"><feColorMatrix values="0 0 0 0 1 0 0 0 0 1 0 0 0 0 1 0 0 0 1 0" color-interpolation-filters="sRGB"/></filter><g/><clipPath id="a413932ec0"><path d="M 1132 302 L 1220.941406 302 L 1220.941406 899 L 1132 899 Z M 1132 302 " clip-rule="nonzero"/></clipPath><clipPath id="684ffff174"><path d="M 269.191406 744 L 741 744 L 741 1120.628906 L 269.191406 1120.628906 Z M 269.191406 744 " clip-rule="nonzero"/></clipPath><clipPath id="4405085553"><path d="M 747 669 L 1090 669 L 1090 1120.628906 L 747 1120.628906 Z M 747 669 " clip-rule="nonzero"/></clipPath><clipPath id="7f94b3916a"><path d="M 272 23.378906 L 833 23.378906 L 833 347 L 272 347 Z M 272 23.378906 " clip-rule="nonzero"/></clipPath><clipPath id="a055aa685f"><path d="M 269.191406 302 L 489 302 L 489 822 L 269.191406 822 Z M 269.191406 302 " clip-rule="nonzero"/></clipPath><clipPath id="af7d0f725e"><path d="M 0 0.371094 L 1500 0.371094 L 1500 946 L 0 946 Z M 0 0.371094 " clip-rule="nonzero"/></clipPath><clipPath id="58e197e7e6"><path d="M 0 0.371094 L 1500 0.371094 L 1500 946 L 0 946 Z M 0 0.371094 " clip-rule="nonzero"/></clipPath><clipPath id="ec3392cadd"><path d="M 0 60.722656 L 1500 60.722656 L 1500 946 L 0 946 Z M 0 60.722656 " clip-rule="nonzero"/></clipPath><radialGradient gradientTransform="matrix(1.000074, 0, 0, 0.999926, 278.521533, 614.799639)" gradientUnits="userSpaceOnUse" r="494.102193" cx="469.616716" id="6c452e1dff" cy="213.966517" fx="469.616716" fy="213.966517"><stop stop-opacity="1" stop-color="rgb(47.709656%, 93.180847%, 81.87561%)" offset="0"/><stop stop-opacity="1" stop-color="rgb(47.517395%, 92.961121%, 81.752014%)" offset="0.0078125"/><stop stop-opacity="1" stop-color="rgb(47.387695%, 92.81311%, 81.669617%)" offset="0.0117188"/><stop stop-opacity="1" stop-color="rgb(47.259521%, 92.666626%, 81.585693%)" offset="0.015625"/><stop stop-opacity="1" stop-color="rgb(47.129822%, 92.518616%, 81.503296%)" offset="0.0195312"/><stop stop-opacity="1" stop-color="rgb(47.001648%, 92.372131%, 81.420898%)" offset="0.0234375"/><stop stop-opacity="1" stop-color="rgb(46.873474%, 92.224121%, 81.338501%)" offset="0.0273438"/><stop stop-opacity="1" stop-color="rgb(46.743774%, 92.077637%, 81.254578%)" offset="0.03125"/><stop stop-opacity="1" stop-color="rgb(46.615601%, 91.929626%, 81.17218%)" offset="0.0351562"/><stop stop-opacity="1" stop-color="rgb(46.485901%, 91.783142%, 81.089783%)" offset="0.0390625"/><stop stop-opacity="1" stop-color="rgb(46.357727%, 91.635132%, 81.007385%)" offset="0.0429688"/><stop stop-opacity="1" stop-color="rgb(46.229553%, 91.488647%, 80.923462%)" offset="0.046875"/><stop stop-opacity="1" stop-color="rgb(46.099854%, 91.342163%, 80.841064%)" offset="0.0507812"/><stop stop-opacity="1" stop-color="rgb(45.97168%, 91.194153%, 80.758667%)" offset="0.0546875"/><stop stop-opacity="1" stop-color="rgb(45.84198%, 91.047668%, 80.674744%)" offset="0.0585938"/><stop stop-opacity="1" stop-color="rgb(45.713806%, 90.899658%, 80.592346%)" offset="0.0625"/><stop stop-opacity="1" stop-color="rgb(45.585632%, 90.753174%, 80.509949%)" offset="0.0664062"/><stop stop-opacity="1" stop-color="rgb(45.455933%, 90.605164%, 80.427551%)" offset="0.0703125"/><stop stop-opacity="1" stop-color="rgb(45.327759%, 90.458679%, 80.343628%)" offset="0.0742188"/><stop stop-opacity="1" stop-color="rgb(45.198059%, 90.310669%, 80.26123%)" offset="0.078125"/><stop stop-opacity="1" stop-color="rgb(45.069885%, 90.164185%, 80.178833%)" offset="0.0820312"/><stop stop-opacity="1" stop-color="rgb(44.940186%, 90.016174%, 80.09491%)" offset="0.0859375"/><stop stop-opacity="1" stop-color="rgb(44.812012%, 89.86969%, 80.012512%)" offset="0.0898438"/><stop stop-opacity="1" stop-color="rgb(44.683838%, 89.72168%, 79.930115%)" offset="0.09375"/><stop stop-opacity="1" stop-color="rgb(44.554138%, 89.575195%, 79.847717%)" offset="0.0976562"/><stop stop-opacity="1" stop-color="rgb(44.425964%, 89.427185%, 79.763794%)" offset="0.101562"/><stop stop-opacity="1" stop-color="rgb(44.296265%, 89.280701%, 79.681396%)" offset="0.105469"/><stop stop-opacity="1" stop-color="rgb(44.168091%, 89.13269%, 79.598999%)" offset="0.109375"/><stop stop-opacity="1" stop-color="rgb(44.039917%, 88.986206%, 79.516602%)" offset="0.113281"/><stop stop-opacity="1" stop-color="rgb(43.910217%, 88.838196%, 79.432678%)" offset="0.117188"/><stop stop-opacity="1" stop-color="rgb(43.782043%, 88.691711%, 79.350281%)" offset="0.121094"/><stop stop-opacity="1" stop-color="rgb(43.652344%, 88.543701%, 79.267883%)" offset="0.125"/><stop stop-opacity="1" stop-color="rgb(43.52417%, 88.397217%, 79.18396%)" offset="0.128906"/><stop stop-opacity="1" stop-color="rgb(43.395996%, 88.249207%, 79.101562%)" offset="0.132812"/><stop stop-opacity="1" stop-color="rgb(43.266296%, 88.102722%, 79.019165%)" offset="0.136719"/><stop stop-opacity="1" stop-color="rgb(43.138123%, 87.954712%, 78.936768%)" offset="0.140625"/><stop stop-opacity="1" stop-color="rgb(43.008423%, 87.808228%, 78.852844%)" offset="0.144531"/><stop stop-opacity="1" stop-color="rgb(42.880249%, 87.661743%, 78.770447%)" offset="0.148438"/><stop stop-opacity="1" stop-color="rgb(42.750549%, 87.513733%, 78.688049%)" offset="0.152344"/><stop stop-opacity="1" stop-color="rgb(42.622375%, 87.367249%, 78.605652%)" offset="0.15625"/><stop stop-opacity="1" stop-color="rgb(42.494202%, 87.219238%, 78.521729%)" offset="0.160156"/><stop stop-opacity="1" stop-color="rgb(42.364502%, 87.072754%, 78.439331%)" offset="0.164062"/><stop stop-opacity="1" stop-color="rgb(42.236328%, 86.924744%, 78.356934%)" offset="0.167969"/><stop stop-opacity="1" stop-color="rgb(42.106628%, 86.778259%, 78.27301%)" offset="0.171875"/><stop stop-opacity="1" stop-color="rgb(41.978455%, 86.630249%, 78.190613%)" offset="0.175781"/><stop stop-opacity="1" stop-color="rgb(41.850281%, 86.483765%, 78.108215%)" offset="0.179688"/><stop stop-opacity="1" stop-color="rgb(41.720581%, 86.335754%, 78.025818%)" offset="0.183594"/><stop stop-opacity="1" stop-color="rgb(41.592407%, 86.18927%, 77.941895%)" offset="0.1875"/><stop stop-opacity="1" stop-color="rgb(41.462708%, 86.04126%, 77.859497%)" offset="0.191406"/><stop stop-opacity="1" stop-color="rgb(41.334534%, 85.894775%, 77.7771%)" offset="0.195312"/><stop stop-opacity="1" stop-color="rgb(41.20636%, 85.746765%, 77.694702%)" offset="0.199219"/><stop stop-opacity="1" stop-color="rgb(41.07666%, 85.600281%, 77.610779%)" offset="0.203125"/><stop stop-opacity="1" stop-color="rgb(40.948486%, 85.452271%, 77.528381%)" offset="0.207031"/><stop stop-opacity="1" stop-color="rgb(40.818787%, 85.305786%, 77.445984%)" offset="0.210938"/><stop stop-opacity="1" stop-color="rgb(40.690613%, 85.157776%, 77.362061%)" offset="0.214844"/><stop stop-opacity="1" stop-color="rgb(40.562439%, 85.011292%, 77.279663%)" offset="0.21875"/><stop stop-opacity="1" stop-color="rgb(40.432739%, 84.863281%, 77.197266%)" offset="0.222656"/><stop stop-opacity="1" stop-color="rgb(40.304565%, 84.716797%, 77.114868%)" offset="0.226562"/><stop stop-opacity="1" stop-color="rgb(40.174866%, 84.568787%, 77.030945%)" offset="0.230469"/><stop stop-opacity="1" stop-color="rgb(40.046692%, 84.422302%, 76.948547%)" offset="0.234375"/><stop stop-opacity="1" stop-color="rgb(39.916992%, 84.274292%, 76.86615%)" offset="0.238281"/><stop stop-opacity="1" stop-color="rgb(39.788818%, 84.127808%, 76.782227%)" offset="0.242188"/><stop stop-opacity="1" stop-color="rgb(39.660645%, 83.979797%, 76.699829%)" offset="0.246094"/><stop stop-opacity="1" stop-color="rgb(39.530945%, 83.833313%, 76.617432%)" offset="0.25"/><stop stop-opacity="1" stop-color="rgb(39.337158%, 83.612061%, 76.49231%)" offset="0.253906"/><stop stop-opacity="1" stop-color="rgb(39.080811%, 83.317566%, 76.327515%)" offset="0.261719"/><stop stop-opacity="1" stop-color="rgb(38.822937%, 83.023071%, 76.161194%)" offset="0.269531"/><stop stop-opacity="1" stop-color="rgb(38.565063%, 82.728577%, 75.996399%)" offset="0.277344"/><stop stop-opacity="1" stop-color="rgb(38.30719%, 82.434082%, 75.830078%)" offset="0.285156"/><stop stop-opacity="1" stop-color="rgb(38.049316%, 82.139587%, 75.665283%)" offset="0.292969"/><stop stop-opacity="1" stop-color="rgb(37.791443%, 81.845093%, 75.498962%)" offset="0.300781"/><stop stop-opacity="1" stop-color="rgb(37.535095%, 81.550598%, 75.334167%)" offset="0.308594"/><stop stop-opacity="1" stop-color="rgb(37.277222%, 81.256104%, 75.167847%)" offset="0.316406"/><stop stop-opacity="1" stop-color="rgb(37.019348%, 80.961609%, 75.001526%)" offset="0.324219"/><stop stop-opacity="1" stop-color="rgb(36.763%, 80.671692%, 74.816895%)" offset="0.332031"/><stop stop-opacity="1" stop-color="rgb(36.505127%, 80.387878%, 74.609375%)" offset="0.339844"/><stop stop-opacity="1" stop-color="rgb(36.248779%, 80.104065%, 74.397278%)" offset="0.347656"/><stop stop-opacity="1" stop-color="rgb(35.992432%, 79.820251%, 74.186707%)" offset="0.355469"/><stop stop-opacity="1" stop-color="rgb(35.734558%, 79.534912%, 73.976135%)" offset="0.363281"/><stop stop-opacity="1" stop-color="rgb(35.47821%, 79.251099%, 73.764038%)" offset="0.371094"/><stop stop-opacity="1" stop-color="rgb(35.221863%, 78.967285%, 73.553467%)" offset="0.378906"/><stop stop-opacity="1" stop-color="rgb(34.963989%, 78.683472%, 73.342896%)" offset="0.386719"/><stop stop-opacity="1" stop-color="rgb(34.707642%, 78.398132%, 73.132324%)" offset="0.394531"/><stop stop-opacity="1" stop-color="rgb(34.451294%, 78.114319%, 72.920227%)" offset="0.402344"/><stop stop-opacity="1" stop-color="rgb(34.19342%, 77.830505%, 72.709656%)" offset="0.410156"/><stop stop-opacity="1" stop-color="rgb(33.937073%, 77.546692%, 72.499084%)" offset="0.417969"/><stop stop-opacity="1" stop-color="rgb(33.680725%, 77.261353%, 72.288513%)" offset="0.425781"/><stop stop-opacity="1" stop-color="rgb(33.424377%, 76.977539%, 72.076416%)" offset="0.433594"/><stop stop-opacity="1" stop-color="rgb(33.166504%, 76.693726%, 71.865845%)" offset="0.441406"/><stop stop-opacity="1" stop-color="rgb(32.910156%, 76.409912%, 71.655273%)" offset="0.449219"/><stop stop-opacity="1" stop-color="rgb(32.653809%, 76.124573%, 71.444702%)" offset="0.457031"/><stop stop-opacity="1" stop-color="rgb(32.395935%, 75.840759%, 71.232605%)" offset="0.464844"/><stop stop-opacity="1" stop-color="rgb(32.139587%, 75.556946%, 71.022034%)" offset="0.472656"/><stop stop-opacity="1" stop-color="rgb(31.88324%, 75.273132%, 70.811462%)" offset="0.480469"/><stop stop-opacity="1" stop-color="rgb(31.625366%, 74.987793%, 70.599365%)" offset="0.488281"/><stop stop-opacity="1" stop-color="rgb(31.369019%, 74.703979%, 70.388794%)" offset="0.496094"/><stop stop-opacity="1" stop-color="rgb(31.176758%, 74.490356%, 70.230103%)" offset="0.503906"/><stop stop-opacity="1" stop-color="rgb(31.048584%, 74.34845%, 70.124817%)" offset="0.507812"/><stop stop-opacity="1" stop-color="rgb(30.92041%, 74.206543%, 70.019531%)" offset="0.511719"/><stop stop-opacity="1" stop-color="rgb(30.79071%, 74.064636%, 69.914246%)" offset="0.515625"/><stop stop-opacity="1" stop-color="rgb(30.662537%, 73.922729%, 69.80896%)" offset="0.519531"/><stop stop-opacity="1" stop-color="rgb(30.534363%, 73.779297%, 69.702148%)" offset="0.523438"/><stop stop-opacity="1" stop-color="rgb(30.406189%, 73.63739%, 69.596863%)" offset="0.527344"/><stop stop-opacity="1" stop-color="rgb(30.278015%, 73.495483%, 69.491577%)" offset="0.53125"/><stop stop-opacity="1" stop-color="rgb(30.149841%, 73.353577%, 69.386292%)" offset="0.535156"/><stop stop-opacity="1" stop-color="rgb(30.020142%, 73.21167%, 69.281006%)" offset="0.539062"/><stop stop-opacity="1" stop-color="rgb(29.891968%, 73.069763%, 69.17572%)" offset="0.542969"/><stop stop-opacity="1" stop-color="rgb(29.763794%, 72.927856%, 69.070435%)" offset="0.546875"/><stop stop-opacity="1" stop-color="rgb(29.63562%, 72.78595%, 68.965149%)" offset="0.550781"/><stop stop-opacity="1" stop-color="rgb(29.507446%, 72.642517%, 68.858337%)" offset="0.554688"/><stop stop-opacity="1" stop-color="rgb(29.379272%, 72.50061%, 68.753052%)" offset="0.558594"/><stop stop-opacity="1" stop-color="rgb(29.249573%, 72.358704%, 68.647766%)" offset="0.5625"/><stop stop-opacity="1" stop-color="rgb(29.121399%, 72.216797%, 68.54248%)" offset="0.566406"/><stop stop-opacity="1" stop-color="rgb(28.993225%, 72.07489%, 68.437195%)" offset="0.570312"/><stop stop-opacity="1" stop-color="rgb(28.865051%, 71.932983%, 68.331909%)" offset="0.574219"/><stop stop-opacity="1" stop-color="rgb(28.736877%, 71.791077%, 68.226624%)" offset="0.578125"/><stop stop-opacity="1" stop-color="rgb(28.608704%, 71.64917%, 68.119812%)" offset="0.582031"/><stop stop-opacity="1" stop-color="rgb(28.48053%, 71.505737%, 68.014526%)" offset="0.585938"/><stop stop-opacity="1" stop-color="rgb(28.35083%, 71.363831%, 67.909241%)" offset="0.589844"/><stop stop-opacity="1" stop-color="rgb(28.222656%, 71.221924%, 67.803955%)" offset="0.59375"/><stop stop-opacity="1" stop-color="rgb(28.094482%, 71.080017%, 67.698669%)" offset="0.597656"/><stop stop-opacity="1" stop-color="rgb(27.966309%, 70.93811%, 67.593384%)" offset="0.601562"/><stop stop-opacity="1" stop-color="rgb(27.838135%, 70.796204%, 67.488098%)" offset="0.605469"/><stop stop-opacity="1" stop-color="rgb(27.709961%, 70.654297%, 67.382812%)" offset="0.609375"/><stop stop-opacity="1" stop-color="rgb(27.580261%, 70.51239%, 67.276001%)" offset="0.613281"/><stop stop-opacity="1" stop-color="rgb(27.452087%, 70.368958%, 67.170715%)" offset="0.617188"/><stop stop-opacity="1" stop-color="rgb(27.323914%, 70.227051%, 67.06543%)" offset="0.621094"/><stop stop-opacity="1" stop-color="rgb(27.19574%, 70.085144%, 66.960144%)" offset="0.625"/><stop stop-opacity="1" stop-color="rgb(27.003479%, 69.873047%, 66.802979%)" offset="0.628906"/><stop stop-opacity="1" stop-color="rgb(26.745605%, 69.589233%, 66.590881%)" offset="0.636719"/><stop stop-opacity="1" stop-color="rgb(26.489258%, 69.303894%, 66.38031%)" offset="0.644531"/><stop stop-opacity="1" stop-color="rgb(26.23291%, 69.020081%, 66.169739%)" offset="0.652344"/><stop stop-opacity="1" stop-color="rgb(25.971985%, 68.722534%, 65.951538%)" offset="0.660156"/><stop stop-opacity="1" stop-color="rgb(25.761414%, 68.443298%, 65.757751%)" offset="0.667969"/><stop stop-opacity="1" stop-color="rgb(25.605774%, 68.19458%, 65.597534%)" offset="0.671875"/><stop stop-opacity="1" stop-color="rgb(25.448608%, 67.945862%, 65.437317%)" offset="0.675781"/><stop stop-opacity="1" stop-color="rgb(25.292969%, 67.697144%, 65.275574%)" offset="0.679688"/><stop stop-opacity="1" stop-color="rgb(25.135803%, 67.448425%, 65.115356%)" offset="0.683594"/><stop stop-opacity="1" stop-color="rgb(24.980164%, 67.201233%, 64.953613%)" offset="0.6875"/><stop stop-opacity="1" stop-color="rgb(24.822998%, 66.952515%, 64.793396%)" offset="0.691406"/><stop stop-opacity="1" stop-color="rgb(24.667358%, 66.703796%, 64.631653%)" offset="0.695312"/><stop stop-opacity="1" stop-color="rgb(24.511719%, 66.455078%, 64.471436%)" offset="0.699219"/><stop stop-opacity="1" stop-color="rgb(24.354553%, 66.20636%, 64.309692%)" offset="0.703125"/><stop stop-opacity="1" stop-color="rgb(24.198914%, 65.957642%, 64.149475%)" offset="0.707031"/><stop stop-opacity="1" stop-color="rgb(24.041748%, 65.710449%, 63.987732%)" offset="0.710938"/><stop stop-opacity="1" stop-color="rgb(23.886108%, 65.461731%, 63.827515%)" offset="0.714844"/><stop stop-opacity="1" stop-color="rgb(23.728943%, 65.213013%, 63.665771%)" offset="0.71875"/><stop stop-opacity="1" stop-color="rgb(23.573303%, 64.964294%, 63.505554%)" offset="0.722656"/><stop stop-opacity="1" stop-color="rgb(23.416138%, 64.715576%, 63.343811%)" offset="0.726562"/><stop stop-opacity="1" stop-color="rgb(23.260498%, 64.466858%, 63.183594%)" offset="0.730469"/><stop stop-opacity="1" stop-color="rgb(23.103333%, 64.219666%, 63.021851%)" offset="0.734375"/><stop stop-opacity="1" stop-color="rgb(22.947693%, 63.970947%, 62.861633%)" offset="0.738281"/><stop stop-opacity="1" stop-color="rgb(22.790527%, 63.722229%, 62.69989%)" offset="0.742188"/><stop stop-opacity="1" stop-color="rgb(22.634888%, 63.473511%, 62.539673%)" offset="0.746094"/><stop stop-opacity="1" stop-color="rgb(22.477722%, 63.224792%, 62.37793%)" offset="0.75"/><stop stop-opacity="1" stop-color="rgb(22.322083%, 62.976074%, 62.217712%)" offset="0.753906"/><stop stop-opacity="1" stop-color="rgb(22.164917%, 62.728882%, 62.057495%)" offset="0.757812"/><stop stop-opacity="1" stop-color="rgb(22.009277%, 62.480164%, 61.895752%)" offset="0.761719"/><stop stop-opacity="1" stop-color="rgb(21.852112%, 62.231445%, 61.735535%)" offset="0.765625"/><stop stop-opacity="1" stop-color="rgb(21.696472%, 61.982727%, 61.573792%)" offset="0.769531"/><stop stop-opacity="1" stop-color="rgb(21.539307%, 61.734009%, 61.413574%)" offset="0.773438"/><stop stop-opacity="1" stop-color="rgb(21.383667%, 61.486816%, 61.251831%)" offset="0.777344"/><stop stop-opacity="1" stop-color="rgb(21.226501%, 61.238098%, 61.091614%)" offset="0.78125"/><stop stop-opacity="1" stop-color="rgb(21.070862%, 60.98938%, 60.929871%)" offset="0.785156"/><stop stop-opacity="1" stop-color="rgb(20.915222%, 60.740662%, 60.769653%)" offset="0.789062"/><stop stop-opacity="1" stop-color="rgb(20.758057%, 60.491943%, 60.60791%)" offset="0.792969"/><stop stop-opacity="1" stop-color="rgb(20.602417%, 60.243225%, 60.447693%)" offset="0.796875"/><stop stop-opacity="1" stop-color="rgb(20.445251%, 59.996033%, 60.28595%)" offset="0.800781"/><stop stop-opacity="1" stop-color="rgb(20.289612%, 59.747314%, 60.125732%)" offset="0.804688"/><stop stop-opacity="1" stop-color="rgb(20.132446%, 59.498596%, 59.963989%)" offset="0.808594"/><stop stop-opacity="1" stop-color="rgb(19.976807%, 59.249878%, 59.803772%)" offset="0.8125"/><stop stop-opacity="1" stop-color="rgb(19.819641%, 59.00116%, 59.642029%)" offset="0.816406"/><stop stop-opacity="1" stop-color="rgb(19.664001%, 58.752441%, 59.481812%)" offset="0.820312"/><stop stop-opacity="1" stop-color="rgb(19.506836%, 58.505249%, 59.320068%)" offset="0.824219"/><stop stop-opacity="1" stop-color="rgb(19.351196%, 58.256531%, 59.159851%)" offset="0.828125"/><stop stop-opacity="1" stop-color="rgb(19.194031%, 58.007812%, 58.999634%)" offset="0.832031"/><stop stop-opacity="1" stop-color="rgb(19.038391%, 57.759094%, 58.837891%)" offset="0.835938"/><stop stop-opacity="1" stop-color="rgb(18.881226%, 57.510376%, 58.677673%)" offset="0.839844"/><stop stop-opacity="1" stop-color="rgb(18.725586%, 57.263184%, 58.51593%)" offset="0.84375"/><stop stop-opacity="1" stop-color="rgb(18.56842%, 57.014465%, 58.355713%)" offset="0.847656"/><stop stop-opacity="1" stop-color="rgb(18.412781%, 56.765747%, 58.19397%)" offset="0.851562"/><stop stop-opacity="1" stop-color="rgb(18.255615%, 56.517029%, 58.033752%)" offset="0.855469"/><stop stop-opacity="1" stop-color="rgb(18.099976%, 56.268311%, 57.872009%)" offset="0.859375"/><stop stop-opacity="1" stop-color="rgb(17.94281%, 56.019592%, 57.711792%)" offset="0.863281"/><stop stop-opacity="1" stop-color="rgb(17.78717%, 55.7724%, 57.550049%)" offset="0.867188"/><stop stop-opacity="1" stop-color="rgb(17.631531%, 55.523682%, 57.389832%)" offset="0.871094"/><stop stop-opacity="1" stop-color="rgb(17.474365%, 55.274963%, 57.228088%)" offset="0.875"/><stop stop-opacity="1" stop-color="rgb(17.318726%, 55.026245%, 57.067871%)" offset="0.878906"/><stop stop-opacity="1" stop-color="rgb(17.16156%, 54.777527%, 56.906128%)" offset="0.882812"/><stop stop-opacity="1" stop-color="rgb(17.00592%, 54.528809%, 56.745911%)" offset="0.886719"/><stop stop-opacity="1" stop-color="rgb(16.848755%, 54.281616%, 56.584167%)" offset="0.890625"/><stop stop-opacity="1" stop-color="rgb(16.693115%, 54.032898%, 56.42395%)" offset="0.894531"/><stop stop-opacity="1" stop-color="rgb(16.53595%, 53.78418%, 56.262207%)" offset="0.898438"/><stop stop-opacity="1" stop-color="rgb(16.38031%, 53.535461%, 56.10199%)" offset="0.902344"/><stop stop-opacity="1" stop-color="rgb(16.223145%, 53.286743%, 55.940247%)" offset="0.90625"/><stop stop-opacity="1" stop-color="rgb(16.067505%, 53.038025%, 55.780029%)" offset="0.910156"/><stop stop-opacity="1" stop-color="rgb(15.910339%, 52.790833%, 55.619812%)" offset="0.914062"/><stop stop-opacity="1" stop-color="rgb(15.7547%, 52.542114%, 55.458069%)" offset="0.917969"/><stop stop-opacity="1" stop-color="rgb(15.597534%, 52.293396%, 55.297852%)" offset="0.921875"/><stop stop-opacity="1" stop-color="rgb(15.441895%, 52.044678%, 55.136108%)" offset="0.925781"/><stop stop-opacity="1" stop-color="rgb(15.284729%, 51.795959%, 54.975891%)" offset="0.929688"/><stop stop-opacity="1" stop-color="rgb(15.129089%, 51.548767%, 54.814148%)" offset="0.933594"/><stop stop-opacity="1" stop-color="rgb(14.971924%, 51.300049%, 54.653931%)" offset="0.9375"/><stop stop-opacity="1" stop-color="rgb(14.816284%, 51.051331%, 54.492188%)" offset="0.941406"/><stop stop-opacity="1" stop-color="rgb(14.659119%, 50.802612%, 54.33197%)" offset="0.945312"/><stop stop-opacity="1" stop-color="rgb(14.503479%, 50.553894%, 54.170227%)" offset="0.949219"/><stop stop-opacity="1" stop-color="rgb(14.347839%, 50.305176%, 54.01001%)" offset="0.953125"/><stop stop-opacity="1" stop-color="rgb(14.190674%, 50.057983%, 53.848267%)" offset="0.957031"/><stop stop-opacity="1" stop-color="rgb(14.035034%, 49.809265%, 53.688049%)" offset="0.960938"/><stop stop-opacity="1" stop-color="rgb(13.877869%, 49.560547%, 53.526306%)" offset="0.964844"/><stop stop-opacity="1" stop-color="rgb(13.722229%, 49.311829%, 53.366089%)" offset="0.96875"/><stop stop-opacity="1" stop-color="rgb(13.565063%, 49.06311%, 53.204346%)" offset="0.972656"/><stop stop-opacity="1" stop-color="rgb(13.409424%, 48.814392%, 53.044128%)" offset="0.976562"/><stop stop-opacity="1" stop-color="rgb(13.252258%, 48.5672%, 52.882385%)" offset="0.980469"/><stop stop-opacity="1" stop-color="rgb(13.096619%, 48.318481%, 52.722168%)" offset="0.984375"/><stop stop-opacity="1" stop-color="rgb(12.939453%, 48.069763%, 52.561951%)" offset="0.988281"/><stop stop-opacity="1" stop-color="rgb(12.783813%, 47.821045%, 52.400208%)" offset="0.992188"/><stop stop-opacity="1" stop-color="rgb(12.626648%, 47.572327%, 52.23999%)" offset="0.996094"/><stop stop-opacity="1" stop-color="rgb(12.548828%, 47.44873%, 52.159119%)" offset="1"/></radialGradient><clipPath id="3f83691cf8"><rect x="0" width="1500" y="0" height="946"/></clipPath><clipPath id="2804febde5"><path d="M 0 0.371094 L 1500 0.371094 L 1500 946 L 0 946 Z M 0 0.371094 " clip-rule="nonzero"/></clipPath><clipPath id="b983c8a38f"><rect x="0" width="1500" y="0" height="946"/></clipPath><clipPath id="2da7a1bbfe"><rect x="0" width="1500" y="0" height="946"/></clipPath><mask id="6b3e7fc312"><g filter="url(#c500339738)"><g transform="matrix(1, 0, 0, 1, 0, 0.000000000000113687)"><g clip-path="url(#2da7a1bbfe)"><g clip-path="url(#2804febde5)"><g transform="matrix(1, 0, 0, 1, 0, 0.000000000000113687)"><g clip-path="url(#b983c8a38f)"><g fill="#000000" fill-opacity="1"><g transform="translate(278.436396, 893.210379)"><g><path d="M 71.890625 -42.390625 L 72.5 -42.390625 L 86.9375 -219.359375 L 139.78125 -219.359375 L 109.984375 0 L 29.796875 0 L 2.453125 -219.359375 L 58.984375 -219.359375 Z M 71.890625 -42.390625 "/></g></g></g><g fill="#000000" fill-opacity="1"><g transform="translate(420.676548, 893.210379)"><g><path d="M 102.296875 -175.109375 L 63.28125 -175.109375 L 63.28125 -134.875 L 99.84375 -134.875 L 99.84375 -92.46875 L 63.28125 -92.46875 L 63.28125 -44.234375 L 105.375 -44.234375 L 105.375 0 L 6.765625 0 L 6.765625 -219.359375 L 102.296875 -219.359375 Z M 102.296875 -175.109375 "/></g></g></g><g fill="#000000" fill-opacity="1"><g transform="translate(528.815929, 893.210379)"><g><path d="M 86.9375 -110.296875 L 87.5625 -110.296875 L 87.5625 -219.359375 L 135.484375 -219.359375 L 135.484375 0 L 87.5625 0 L 55.609375 -122.578125 L 54.6875 -122.578125 L 54.6875 0 L 6.765625 0 L 6.765625 -219.359375 L 54.6875 -219.359375 Z M 86.9375 -110.296875 "/></g></g></g><g fill="#000000" fill-opacity="1"><g transform="translate(671.056081, 893.210379)"><g><path d="M 74.046875 -223.96875 C 95.953125 -223.96875 112.640625 -218.742188 124.109375 -208.296875 C 135.585938 -197.847656 141.328125 -180.953125 141.328125 -157.609375 L 141.328125 -66.96875 C 141.328125 -54.882812 140.300781 -45.3125 138.25 -38.25 C 136.195312 -31.1875 132.765625 -25.757812 127.953125 -21.96875 C 123.140625 -18.175781 116.429688 -15.359375 107.828125 -13.515625 C 107.628906 -9.210938 108.191406 -6.085938 109.515625 -4.140625 C 110.847656 -2.203125 113.769531 -1.234375 118.28125 -1.234375 L 144.390625 -1.234375 L 144.390625 26.421875 L 91.25 26.421875 C 81.207031 26.421875 73.726562 24.421875 68.8125 20.421875 C 63.894531 16.429688 61.4375 10.851562 61.4375 3.6875 L 61.4375 0.921875 L 57.453125 0.921875 C 39.835938 0.921875 26.984375 -5.269531 18.890625 -17.65625 C 10.804688 -30.050781 6.765625 -44.851562 6.765625 -62.0625 L 6.765625 -157.609375 C 6.765625 -180.742188 12.445312 -197.585938 23.8125 -208.140625 C 35.175781 -218.691406 51.921875 -223.96875 74.046875 -223.96875 Z M 63.28125 -173.578125 L 63.28125 -45.78125 C 63.28125 -41.476562 64.203125 -38.148438 66.046875 -35.796875 C 67.890625 -33.441406 70.554688 -32.265625 74.046875 -32.265625 C 77.523438 -32.265625 80.1875 -33.441406 82.03125 -35.796875 C 83.875 -38.148438 84.796875 -41.476562 84.796875 -45.78125 L 84.796875 -173.578125 C 84.796875 -177.878906 83.875 -181.207031 82.03125 -183.5625 C 80.1875 -185.914062 77.523438 -187.09375 74.046875 -187.09375 C 66.867188 -187.09375 63.28125 -182.585938 63.28125 -173.578125 Z M 63.28125 -173.578125 "/></g></g></g><g fill="#000000" fill-opacity="1"><g transform="translate(819.133299, 893.210379)"><g><path d="M 74.046875 -223.96875 C 95.953125 -223.96875 112.640625 -218.742188 124.109375 -208.296875 C 135.585938 -197.847656 141.328125 -180.953125 141.328125 -157.609375 L 141.328125 -61.75 C 141.328125 -38.601562 135.640625 -21.753906 124.265625 -11.203125 C 112.898438 -0.660156 96.160156 4.609375 74.046875 4.609375 C 51.921875 4.609375 35.175781 -0.5625 23.8125 -10.90625 C 12.445312 -21.25 6.765625 -38.195312 6.765625 -61.75 L 6.765625 -157.609375 C 6.765625 -180.742188 12.445312 -197.585938 23.8125 -208.140625 C 35.175781 -218.691406 51.921875 -223.96875 74.046875 -223.96875 Z M 63.28125 -173.578125 L 63.28125 -45.78125 C 63.28125 -41.476562 64.203125 -38.148438 66.046875 -35.796875 C 67.890625 -33.441406 70.554688 -32.265625 74.046875 -32.265625 C 77.523438 -32.265625 80.1875 -33.441406 82.03125 -35.796875 C 83.875 -38.148438 84.796875 -41.476562 84.796875 -45.78125 L 84.796875 -173.578125 C 84.796875 -177.878906 83.875 -181.207031 82.03125 -183.5625 C 80.1875 -185.914062 77.523438 -187.09375 74.046875 -187.09375 C 66.867188 -187.09375 63.28125 -182.585938 63.28125 -173.578125 Z M 63.28125 -173.578125 "/></g></g></g><g fill="#000000" fill-opacity="1"><g transform="translate(967.210517, 893.210379)"><g><path d="M 133.328125 -176.03125 L 133.328125 -153.921875 C 133.328125 -141.835938 130.5625 -132.773438 125.03125 -126.734375 C 119.507812 -120.691406 111.21875 -117.257812 100.15625 -116.4375 L 100.15625 -115.828125 C 112.238281 -115.003906 121.144531 -111.519531 126.875 -105.375 C 132.613281 -99.226562 135.484375 -90.113281 135.484375 -78.03125 L 135.484375 0 L 82.640625 0 L 82.640625 -84.171875 C 82.640625 -96.253906 77.722656 -102.296875 67.890625 -102.296875 C 65.640625 -102.296875 63.488281 -101.988281 61.4375 -101.375 L 61.4375 0 L 6.765625 0 L 6.765625 -219.359375 L 72.8125 -219.359375 C 85.914062 -219.359375 96.664062 -218.382812 105.0625 -216.4375 C 113.46875 -214.488281 120.28125 -210.390625 125.5 -204.140625 C 130.71875 -197.898438 133.328125 -188.53125 133.328125 -176.03125 Z M 65.4375 -135.484375 C 71.988281 -135.484375 76.492188 -136.96875 78.953125 -139.9375 C 81.410156 -142.90625 82.640625 -146.335938 82.640625 -150.234375 L 82.640625 -169.578125 C 82.640625 -173.265625 81.410156 -176.644531 78.953125 -179.71875 C 76.492188 -182.789062 72.09375 -184.328125 65.75 -184.328125 L 61.4375 -184.328125 L 61.4375 -135.484375 Z M 65.4375 -135.484375 "/></g></g></g><g fill="#000000" fill-opacity="1"><g transform="translate(1109.450648, 893.210379)"><g><path d="M 102.296875 -175.109375 L 63.28125 -175.109375 L 63.28125 -134.875 L 99.84375 -134.875 L 99.84375 -92.46875 L 63.28125 -92.46875 L 63.28125 -44.234375 L 105.375 -44.234375 L 105.375 0 L 6.765625 0 L 6.765625 -219.359375 L 102.296875 -219.359375 Z M 102.296875 -175.109375 "/></g></g></g></g></g></g></g></g></g></mask><clipPath id="76d417b909"><path d="M 0 60.722656 L 1500 60.722656 L 1500 946 L 0 946 Z M 0 60.722656 " clip-rule="nonzero"/></clipPath><clipPath id="e3cd4357bf"><rect x="0" width="1500" y="0" height="946"/></clipPath><clipPath id="d091b35c72"><rect x="0" width="1500" y="0" height="946"/></clipPath><clipPath id="ac9726c275"><rect x="0" width="1500" y="0" height="946"/></clipPath></defs><path fill="#5ecebf" d="M 741.40625 714.566406 L 741.40625 815.734375 L 741 815.96875 L 740.988281 815.96875 L 664.546875 771.472656 L 664.546875 669.832031 L 697.417969 688.953125 L 741.15625 714.417969 Z M 741.40625 714.566406 " fill-opacity="1" fill-rule="nonzero"/><path fill="#5ecebf" d="M 825.570312 669.910156 L 825.570312 771.347656 L 748.726562 815.734375 L 748.726562 714.285156 L 792.320312 689.101562 Z M 825.570312 669.910156 " fill-opacity="1" fill-rule="nonzero"/><path fill="#42afa8" d="M 740.898438 866.734375 L 740.742188 968.304688 L 664.546875 923.941406 L 653.246094 917.363281 L 620.636719 898.375 L 609.507812 891.90625 L 532.808594 847.261719 L 532.808594 695.265625 L 533.210938 695.015625 L 532.808594 694.792969 L 532.808594 593.140625 L 544.320312 599.832031 L 620.636719 644.265625 L 620.636719 796.734375 L 664.546875 822.289062 L 697.15625 841.277344 L 697.167969 841.277344 Z M 740.898438 866.734375 " fill-opacity="1" fill-rule="nonzero"/><path fill="#42afa8" d="M 957.320312 745.980469 L 957.320312 847.441406 L 879.542969 892.367188 L 879.53125 892.367188 L 869.492188 898.171875 L 835.722656 917.675781 L 825.570312 923.527344 L 748.726562 967.910156 L 748.0625 968.304688 L 748.21875 866.734375 L 748.726562 866.453125 L 792.039062 841.433594 L 792.050781 841.433594 L 792.050781 841.425781 L 825.570312 822.078125 L 869.492188 796.699219 L 879.699219 790.808594 L 879.710938 790.808594 L 923.542969 765.488281 L 923.554688 765.488281 Z M 957.320312 745.980469 " fill-opacity="1" fill-rule="nonzero"/><path fill="#207985" d="M 1217.148438 296.027344 L 1129.316406 346.757812 L 1085.410156 321.390625 L 1052.472656 302.371094 L 1008.550781 277.007812 L 997.578125 270.675781 L 953.65625 245.296875 L 920.730469 226.289062 L 920.722656 226.289062 L 876.8125 200.921875 L 865.824219 207.265625 L 832.890625 226.289062 L 821.914062 232.621094 L 745.070312 277.007812 L 745.058594 277.007812 L 668.214844 232.621094 L 657.238281 226.289062 L 668.214844 219.957031 L 745.058594 175.558594 L 745.070312 175.558594 L 788.992188 150.191406 L 821.914062 131.183594 L 865.824219 105.808594 L 876.8125 99.476562 L 953.65625 143.859375 L 964.640625 150.191406 L 997.578125 169.214844 L 1008.550781 175.558594 L 1085.410156 219.945312 L 1096.382812 226.289062 L 1129.316406 245.308594 L 1140.304688 251.640625 Z M 1217.148438 296.027344 " fill-opacity="1" fill-rule="nonzero"/><g clip-path="url(#a413932ec0)"><path fill="#207985" d="M 1220.816406 302.125 L 1220.816406 847.441406 L 1218.960938 848.511719 L 1142.261719 892.804688 L 1142.25 892.804688 L 1132.984375 898.160156 L 1132.984375 352.855469 Z M 1220.816406 302.125 " fill-opacity="1" fill-rule="nonzero"/></g><path fill="#5ecebf" d="M 701.148438 454.550781 L 668.214844 473.558594 L 624.777344 498.664062 L 624.753906 498.664062 L 537.292969 447.734375 L 613.316406 403.820312 L 624.292969 410.175781 L 668.214844 435.527344 Z M 701.148438 454.550781 " fill-opacity="1" fill-rule="nonzero"/><path fill="#5ecebf" d="M 621.097656 504.761719 L 620.636719 505.03125 L 620.636719 593.433594 L 588.152344 574.511719 L 544.410156 549.058594 L 532.808594 542.296875 L 532.808594 454.3125 L 532.820312 454.3125 L 533.628906 453.828125 L 533.640625 453.828125 Z M 621.097656 504.761719 " fill-opacity="1" fill-rule="nonzero"/><path fill="#7aeed1" d="M 821.914062 524.75 L 745.117188 568.878906 L 745.058594 568.855469 L 668.597656 524.527344 L 668.910156 524.355469 L 745.058594 480.824219 L 821.523438 524.527344 Z M 821.914062 524.75 " fill-opacity="1" fill-rule="nonzero"/><path fill="#7aeed1" d="M 825.570312 530.859375 L 825.570312 618.71875 L 825.1875 618.945312 L 824.871094 619.125 L 748.726562 662.644531 L 748.726562 575.019531 L 748.769531 574.984375 Z M 825.570312 530.859375 " fill-opacity="1" fill-rule="nonzero"/><path fill="#7aeed1" d="M 741.40625 574.953125 L 741.40625 662.644531 L 664.941406 618.945312 L 664.546875 618.71875 L 664.546875 530.859375 L 664.941406 530.621094 Z M 741.40625 574.953125 " fill-opacity="1" fill-rule="nonzero"/><path fill="#037300" d="M 745.117188 568.878906 L 745.058594 568.910156 L 745.058594 568.855469 Z M 745.117188 568.878906 " fill-opacity="1" fill-rule="nonzero"/><g clip-path="url(#684ffff174)"><path fill="#207985" d="M 740.652344 1019.070312 L 740.472656 1120.628906 L 664.546875 1076.425781 L 652.988281 1069.699219 L 652.976562 1069.699219 L 620.636719 1050.867188 L 609.246094 1044.242188 L 532.808594 999.746094 L 521.753906 993.320312 L 488.886719 974.175781 L 478.023438 967.84375 L 478.011719 967.84375 L 401.054688 923.054688 L 390.53125 916.921875 L 357.144531 897.484375 L 346.789062 891.457031 L 270.238281 846.902344 L 269.316406 846.363281 L 269.316406 744.710938 L 281.347656 751.71875 L 357.144531 795.824219 L 357.144531 796.699219 L 357.898438 796.273438 L 401.054688 821.390625 L 434.453125 840.828125 L 478.191406 866.292969 L 488.886719 872.527344 L 532.808594 898.082031 L 565.664062 917.214844 L 565.6875 917.214844 L 609.417969 942.671875 L 609.425781 942.671875 L 620.636719 949.207031 L 664.546875 974.773438 L 696.910156 993.613281 Z M 740.652344 1019.070312 " fill-opacity="1" fill-rule="nonzero"/></g><g clip-path="url(#4405085553)"><path fill="#207985" d="M 1089.0625 669.898438 L 1089.0625 923.527344 L 1010.777344 968.742188 L 1010.757812 968.753906 L 1001.230469 974.253906 L 966.949219 994.0625 L 957.320312 999.609375 L 879.285156 1044.691406 L 869.492188 1050.339844 L 835.453125 1070 L 825.570312 1075.703125 L 748.726562 1120.089844 L 747.792969 1120.628906 L 747.960938 1019.070312 L 748.726562 1018.640625 L 791.792969 993.761719 L 825.570312 974.246094 L 869.492188 948.890625 L 879.453125 943.132812 L 923.273438 917.824219 L 923.285156 917.824219 L 957.320312 898.160156 L 1001.230469 872.785156 L 1001.230469 720.617188 L 1078.078125 676.242188 L 1078.089844 676.242188 Z M 1089.0625 669.898438 " fill-opacity="1" fill-rule="nonzero"/></g><path fill="#42afa8" d="M 832.890625 378.457031 L 821.914062 384.800781 L 745.058594 429.183594 L 668.214844 384.800781 L 657.238281 378.457031 L 657.226562 378.457031 L 624.292969 359.433594 L 613.316406 353.101562 L 569.398438 378.457031 L 536.460938 397.476562 L 493.542969 422.277344 L 492.550781 421.695312 L 404.722656 372.121094 L 406.058594 371.347656 L 406.070312 371.347656 L 481.566406 327.738281 L 492.550781 321.390625 L 525.488281 302.371094 L 536.460938 296.039062 L 613.316406 251.640625 L 613.328125 251.640625 L 624.292969 257.984375 L 668.214844 283.351562 L 701.148438 302.371094 L 745.058594 327.738281 L 745.070312 327.738281 L 821.914062 372.121094 Z M 832.890625 378.457031 " fill-opacity="1" fill-rule="nonzero"/><path fill="#42afa8" d="M 488.886719 427.789062 L 488.886719 669.222656 L 456.671875 650.472656 L 456.660156 650.472656 L 412.917969 624.996094 L 401.054688 618.089844 L 401.054688 378.21875 Z M 488.886719 427.789062 " fill-opacity="1" fill-rule="nonzero"/><path fill="#5ecebf" d="M 953.65625 448.207031 L 865.824219 498.9375 L 821.914062 473.558594 L 788.980469 454.550781 L 821.914062 435.527344 L 865.824219 410.175781 L 876.8125 403.820312 Z M 953.65625 448.207031 " fill-opacity="1" fill-rule="nonzero"/><path fill="#5ecebf" d="M 957.320312 454.3125 L 957.320312 543.085938 L 946.335938 549.417969 L 902.425781 574.78125 L 869.492188 593.816406 L 869.492188 505.03125 Z M 957.320312 454.3125 " fill-opacity="1" fill-rule="nonzero"/><path fill="#42afa8" d="M 1085.410156 372.121094 L 997.578125 422.839844 L 953.65625 397.476562 L 920.722656 378.457031 L 876.8125 353.101562 L 865.824219 346.757812 L 821.914062 321.382812 L 788.992188 302.371094 L 821.914062 283.363281 L 821.914062 283.351562 L 865.824219 257.984375 L 876.8125 251.640625 L 953.65625 296.027344 L 964.640625 302.371094 L 997.578125 321.390625 L 1008.550781 327.738281 Z M 1085.410156 372.121094 " fill-opacity="1" fill-rule="nonzero"/><path fill="#42afa8" d="M 1089.0625 378.21875 L 1089.0625 619.167969 L 1078.089844 625.511719 L 1034.179688 650.867188 L 1034.167969 650.867188 L 1001.230469 669.898438 L 957.320312 695.265625 L 956.5 695.734375 L 956.488281 695.734375 L 879.789062 740.03125 L 869.492188 745.992188 L 869.492188 644.535156 L 946.335938 600.160156 L 957.320312 593.816406 L 990.269531 574.78125 L 1001.230469 568.449219 L 1001.230469 428.9375 Z M 1089.0625 378.21875 " fill-opacity="1" fill-rule="nonzero"/><g clip-path="url(#7f94b3916a)"><path fill="#207985" d="M 832.890625 74.109375 L 821.914062 80.453125 L 745.070312 124.828125 L 745.058594 124.828125 L 701.148438 150.191406 L 668.214844 169.214844 L 624.292969 194.578125 L 613.328125 200.921875 L 569.398438 226.289062 L 536.460938 245.308594 L 492.550781 270.675781 L 481.589844 277.007812 L 437.65625 302.371094 L 404.722656 321.390625 L 362.316406 345.890625 L 360.800781 346.757812 L 272.96875 296.039062 L 274.824219 294.957031 L 274.835938 294.957031 L 349.824219 251.640625 L 349.835938 251.640625 L 360.800781 245.308594 L 393.746094 226.289062 L 404.722656 219.957031 L 481.566406 175.558594 L 481.589844 175.558594 L 492.550781 169.226562 L 525.5 150.191406 L 536.460938 143.859375 L 613.328125 99.476562 L 624.292969 93.128906 L 657.238281 74.109375 L 668.214844 67.777344 L 745.058594 23.390625 L 745.058594 23.378906 L 745.070312 23.378906 L 821.914062 67.765625 Z M 832.890625 74.109375 " fill-opacity="1" fill-rule="nonzero"/></g><g clip-path="url(#a055aa685f)"><path fill="#207985" d="M 488.886719 720.03125 L 488.886719 821.695312 L 478.28125 815.519531 L 401.730469 770.953125 L 401.054688 770.570312 L 357.144531 745.003906 L 325.199219 726.410156 L 325.1875 726.410156 L 281.4375 700.933594 L 269.316406 693.867188 L 269.316406 302.136719 L 357.144531 352.855469 L 357.144531 643.351562 L 369.085938 650.304688 L 401.054688 668.921875 L 412.828125 675.78125 L 412.839844 675.78125 Z M 488.886719 720.03125 " fill-opacity="1" fill-rule="nonzero"/></g><g transform="matrix(1, 0, 0, 1, 0, 554)"><g clip-path="url(#ac9726c275)"><g clip-path="url(#af7d0f725e)"><g transform="matrix(1, 0, 0, 1, 0, 0.000000000000113687)"><g clip-path="url(#d091b35c72)"><g clip-path="url(#58e197e7e6)"><g mask="url(#6b3e7fc312)"><g transform="matrix(1, 0, 0, 1, 0, 0.000000000000113687)"><g clip-path="url(#e3cd4357bf)"><g clip-path="url(#76d417b909)"><path fill="url(#6c452e1dff)" d="M 0 60.722656 L 0 946 L 1500 946 L 1500 60.722656 Z M 0 60.722656 " fill-rule="nonzero"/></g></g></g></g></g></g></g></g></g></g></svg>